<svg id="svg" version="1.1" width="400" height="300" viewBox="0 0 400 300" xmlns="http://www.w3.org/2000/svg" xmlns:xlink="http://www.w3.org/1999/xlink"><g id="svgg"><path id="path0" d="M245.350 72.655 C 244.896 72.777,243.284 72.970,241.767 73.084 C 240.251 73.199,238.672 73.462,238.260 73.669 C 236.572 74.515,234.058 75.304,231.508 75.788 C 230.023 76.070,228.200 76.605,227.457 76.977 C 226.714 77.348,225.364 77.873,224.456 78.142 C 223.548 78.411,221.775 79.168,220.515 79.823 C 217.214 81.540,211.924 83.724,210.353 84.018 C 209.610 84.157,208.260 84.484,207.352 84.746 C 206.444 85.007,204.100 85.363,202.143 85.536 C 200.186 85.710,197.958 85.982,197.192 86.142 C 196.426 86.301,194.719 86.628,193.398 86.867 C 192.078 87.105,190.323 87.514,189.497 87.775 C 185.175 89.140,182.390 89.696,176.597 90.347 C 169.459 91.150,166.052 92.203,158.290 96.007 C 155.649 97.301,153.016 98.459,152.438 98.579 C 151.134 98.851,149.401 99.708,147.637 100.954 C 146.894 101.479,145.473 102.249,144.479 102.665 C 143.484 103.082,141.313 104.448,139.653 105.701 C 135.058 109.172,127.856 112.741,124.955 112.984 C 123.016 113.147,121.790 114.201,119.634 117.562 C 118.014 120.088,117.796 124.345,119.024 129.482 C 119.863 132.991,120.171 136.266,120.587 146.137 C 121.005 156.056,121.992 157.760,129.563 161.635 C 131.498 162.626,136.714 167.485,138.010 169.504 C 138.531 170.316,139.403 171.286,139.947 171.659 C 140.492 172.032,141.532 173.160,142.260 174.166 C 143.884 176.411,146.407 179.145,146.855 179.145 C 147.038 179.146,147.656 179.547,148.229 180.037 C 148.803 180.527,149.680 181.092,150.180 181.292 C 150.679 181.492,151.869 182.179,152.824 182.819 C 161.691 188.762,169.762 191.242,181.845 191.737 C 185.889 191.903,190.889 192.195,192.958 192.385 C 196.489 192.711,204.137 192.443,206.002 191.928 C 206.625 191.755,208.506 191.158,213.353 189.592 C 214.921 189.085,216.812 188.360,217.554 187.979 C 218.297 187.599,220.540 186.611,222.538 185.784 C 226.685 184.067,230.917 181.825,232.176 180.678 C 232.648 180.247,233.838 179.226,234.822 178.407 C 235.805 177.589,237.757 175.826,239.160 174.490 C 242.371 171.431,250.929 166.581,253.175 166.547 C 253.374 166.544,254.241 166.126,255.102 165.619 C 255.962 165.112,257.757 164.152,259.091 163.486 C 260.424 162.820,261.920 161.974,262.416 161.605 C 263.633 160.697,267.709 158.899,269.917 158.295 C 270.908 158.024,271.988 157.682,272.318 157.535 C 272.648 157.388,273.931 156.976,275.169 156.619 C 279.896 155.256,282.515 153.368,285.336 149.287 C 286.021 148.297,287.082 146.812,287.695 145.986 C 288.308 145.161,289.218 143.722,289.716 142.789 C 290.215 141.856,291.216 140.100,291.940 138.888 C 292.665 137.676,293.475 136.279,293.741 135.784 C 294.006 135.289,294.305 134.816,294.404 134.734 C 295.840 133.542,296.965 125.681,296.336 121.230 C 296.068 119.332,295.724 114.201,295.571 109.827 C 295.145 97.594,294.443 94.752,290.305 88.522 C 289.264 86.954,287.988 85.213,287.470 84.654 C 286.951 84.094,285.994 82.913,285.341 82.029 C 284.688 81.146,283.787 80.198,283.337 79.924 C 282.888 79.650,281.643 78.863,280.570 78.175 C 278.460 76.822,275.001 75.724,271.418 75.268 C 270.263 75.121,268.035 74.732,266.467 74.404 C 256.764 72.370,256.243 72.301,251.104 72.369 C 248.393 72.405,245.804 72.534,245.350 72.655 " stroke="none" fill="#e3822e" fill-rule="evenodd"></path><path id="path1" d="M243.511 61.502 C 241.860 61.617,239.362 61.923,237.959 62.182 C 234.840 62.758,231.071 63.297,229.248 63.427 C 228.501 63.480,227.623 63.661,227.298 63.829 C 226.973 63.996,225.857 64.218,224.819 64.321 C 222.998 64.503,217.115 65.762,212.453 66.967 C 210.326 67.518,207.904 68.047,204.501 68.704 C 203.676 68.864,201.446 69.202,199.546 69.457 C 197.646 69.711,195.620 70.055,195.045 70.222 C 194.469 70.388,193.126 70.665,192.060 70.837 C 190.993 71.009,189.980 71.263,189.809 71.402 C 189.123 71.959,185.527 73.292,182.804 74.000 C 181.217 74.412,179.771 74.873,179.589 75.023 C 179.408 75.174,177.494 75.641,175.337 76.062 C 173.180 76.483,170.689 77.075,169.803 77.378 C 168.917 77.682,167.699 78.021,167.097 78.133 C 166.495 78.244,165.685 78.580,165.297 78.880 C 164.034 79.854,160.722 81.559,159.340 81.947 C 158.597 82.155,157.854 82.423,157.689 82.542 C 157.304 82.820,153.522 83.906,152.088 84.151 C 149.862 84.531,141.101 87.594,138.335 88.959 C 135.212 90.500,131.772 91.748,129.647 92.111 C 120.191 93.726,113.432 98.012,110.425 104.299 C 110.037 105.112,109.633 105.844,109.528 105.926 C 107.500 107.523,104.445 115.622,104.208 120.029 C 104.036 123.217,104.998 130.487,105.832 132.308 C 106.428 133.608,106.979 137.544,107.578 144.786 C 108.030 150.251,109.012 156.173,109.565 156.774 C 109.709 156.931,109.827 157.247,109.827 157.476 C 109.827 158.135,111.907 162.698,112.659 163.691 C 113.035 164.186,113.429 164.865,113.534 165.200 C 114.328 167.710,120.637 173.116,125.581 175.521 C 128.688 177.032,132.834 179.784,135.484 182.094 C 136.639 183.101,138.103 184.301,138.737 184.761 C 139.371 185.220,140.720 186.246,141.734 187.039 C 143.865 188.707,147.131 190.717,150.868 192.661 C 156.976 195.840,159.587 197.293,161.156 198.390 C 162.934 199.632,166.834 201.379,169.542 202.147 C 177.423 204.383,201.527 204.626,207.728 202.533 C 208.678 202.213,209.626 201.950,209.836 201.950 C 210.641 201.950,230.368 192.063,230.753 191.467 C 230.838 191.335,231.641 190.857,232.536 190.405 C 233.432 189.953,234.985 189.055,235.987 188.409 C 240.406 185.560,243.539 183.793,248.162 181.543 C 255.662 177.892,257.829 176.736,258.815 175.859 C 259.791 174.991,262.443 173.005,264.790 171.384 C 266.363 170.297,271.198 168.042,271.954 168.042 C 272.204 168.042,274.076 167.518,276.114 166.878 C 281.346 165.234,284.223 163.628,287.728 160.395 C 290.365 157.962,290.769 157.525,292.469 155.267 C 293.422 154.000,294.574 152.566,295.028 152.080 C 295.482 151.594,296.269 150.496,296.775 149.641 C 297.282 148.786,298.509 146.939,299.502 145.536 C 300.496 144.134,301.392 142.783,301.495 142.536 C 301.598 142.288,301.763 142.018,301.863 141.935 C 303.267 140.777,306.156 135.372,307.265 131.829 C 309.744 123.907,309.838 101.990,307.427 93.993 C 306.829 92.011,301.606 81.652,300.470 80.196 C 300.005 79.600,299.287 78.472,298.875 77.689 C 294.589 69.553,286.506 63.899,277.419 62.680 C 270.643 61.771,249.953 61.052,243.511 61.502 M257.014 67.082 C 257.839 67.168,259.055 67.361,259.715 67.512 C 261.569 67.935,262.800 68.097,265.566 68.282 C 275.910 68.972,277.140 69.205,281.320 71.263 C 284.593 72.873,286.546 74.644,288.605 77.869 C 289.447 79.190,290.261 80.413,290.413 80.588 C 290.565 80.763,291.025 81.506,291.434 82.238 C 291.844 82.971,292.889 84.516,293.756 85.671 C 297.889 91.178,299.687 97.227,300.351 107.852 C 300.515 110.479,300.585 112.731,300.507 112.857 C 300.429 112.983,300.570 114.345,300.819 115.883 C 301.671 121.135,301.244 130.285,300.034 132.696 C 299.726 133.309,299.475 133.990,299.475 134.211 C 299.475 134.677,297.182 139.468,296.640 140.135 C 296.439 140.383,295.968 141.328,295.593 142.236 C 295.218 143.143,294.605 144.224,294.231 144.636 C 293.857 145.049,292.971 146.534,292.261 147.937 C 287.995 156.370,283.490 160.278,275.169 162.762 C 268.867 164.644,265.646 165.857,263.841 167.030 C 262.892 167.647,260.563 169.181,258.665 170.438 C 256.767 171.696,253.712 173.485,251.877 174.413 C 250.041 175.341,248.198 176.417,247.780 176.805 C 247.362 177.192,246.415 177.811,245.674 178.181 C 244.933 178.551,244.150 179.067,243.933 179.328 C 243.717 179.589,242.588 180.521,241.425 181.400 C 240.262 182.279,239.012 183.278,238.647 183.622 C 238.283 183.965,237.894 184.246,237.784 184.246 C 237.673 184.246,236.689 184.908,235.596 185.717 C 232.598 187.935,228.940 190.128,227.316 190.679 C 226.518 190.950,225.490 191.439,225.031 191.766 C 224.571 192.093,223.658 192.551,223.000 192.783 C 222.342 193.015,219.599 194.271,216.904 195.574 C 214.208 196.878,211.328 198.124,210.503 198.343 C 209.677 198.562,208.800 198.910,208.552 199.117 C 208.113 199.485,206.152 200.073,205.251 200.107 C 205.004 200.117,203.653 200.286,202.251 200.483 C 197.248 201.187,179.969 200.325,174.794 199.114 C 173.803 198.882,172.048 198.531,170.893 198.333 C 168.656 197.951,158.716 193.347,156.988 191.893 C 156.521 191.500,155.437 190.902,154.579 190.563 C 153.721 190.225,152.712 189.748,152.337 189.502 C 151.962 189.256,150.860 188.782,149.886 188.447 C 148.913 188.112,148.043 187.733,147.952 187.605 C 147.861 187.477,146.774 186.713,145.536 185.906 C 143.152 184.351,140.144 182.046,138.992 180.890 C 138.611 180.508,136.923 178.763,135.241 177.013 C 133.559 175.264,131.702 173.546,131.113 173.197 C 130.525 172.848,129.784 172.277,129.468 171.927 C 129.152 171.578,127.743 170.736,126.337 170.057 C 124.931 169.378,123.308 168.462,122.731 168.023 C 122.153 167.584,121.222 166.989,120.661 166.702 C 114.936 163.772,112.263 156.585,112.230 144.036 C 112.220 139.987,112.061 137.013,111.766 135.334 C 109.517 122.535,110.542 115.307,115.457 109.302 C 116.032 108.601,116.667 108.027,116.869 108.027 C 117.071 108.027,117.494 107.737,117.808 107.383 C 118.695 106.383,121.267 104.829,122.431 104.589 C 123.486 104.372,126.602 103.442,130.233 102.261 C 131.305 101.912,132.708 101.278,133.349 100.851 C 136.368 98.842,138.539 97.480,139.105 97.242 C 139.445 97.099,140.378 96.567,141.176 96.061 C 141.974 95.554,143.113 94.984,143.707 94.793 C 144.301 94.602,145.731 94.011,146.887 93.480 C 149.058 92.481,154.223 90.623,154.828 90.623 C 155.017 90.623,155.738 90.370,156.431 90.061 C 157.123 89.752,158.770 89.144,160.090 88.711 C 169.850 85.509,169.987 85.473,176.100 84.593 C 182.630 83.652,185.309 83.047,189.168 81.641 C 191.929 80.635,197.463 79.521,199.704 79.520 C 200.649 79.520,201.638 79.290,202.360 78.903 C 203.011 78.554,204.536 78.170,205.876 78.017 C 207.177 77.868,208.856 77.538,209.607 77.283 C 210.359 77.028,211.115 76.819,211.287 76.819 C 211.459 76.819,213.041 76.098,214.802 75.217 C 216.563 74.336,218.747 73.379,219.655 73.089 C 220.563 72.799,221.980 72.258,222.806 71.886 C 223.631 71.514,225.319 70.997,226.557 70.737 C 227.794 70.477,229.550 70.068,230.458 69.828 C 231.365 69.588,233.121 69.248,234.359 69.073 C 237.255 68.663,241.449 67.865,242.644 67.496 C 243.157 67.338,244.980 67.130,246.695 67.034 C 248.409 66.939,249.880 66.790,249.962 66.704 C 250.107 66.553,253.880 66.756,257.014 67.082 " stroke="none" fill="#c05a1c" fill-rule="evenodd"></path><path id="path2" d="M249.962 66.704 C 249.880 66.790,248.409 66.939,246.695 67.034 C 244.980 67.130,243.157 67.338,242.644 67.496 C 241.449 67.865,237.255 68.663,234.359 69.073 C 233.121 69.248,231.365 69.588,230.458 69.828 C 229.550 70.068,227.794 70.477,226.557 70.737 C 225.319 70.997,223.631 71.514,222.806 71.886 C 221.980 72.258,220.563 72.799,219.655 73.089 C 218.747 73.379,216.563 74.336,214.802 75.217 C 213.041 76.098,211.459 76.819,211.287 76.819 C 211.115 76.819,210.359 77.028,209.607 77.283 C 208.856 77.538,207.177 77.868,205.876 78.017 C 204.536 78.170,203.011 78.554,202.360 78.903 C 201.638 79.290,200.649 79.520,199.704 79.520 C 197.463 79.521,191.929 80.635,189.168 81.641 C 185.309 83.047,182.630 83.652,176.100 84.593 C 169.987 85.473,169.850 85.509,160.090 88.711 C 158.770 89.144,157.123 89.752,156.431 90.061 C 155.738 90.370,155.017 90.623,154.828 90.623 C 154.223 90.623,149.058 92.481,146.887 93.480 C 145.731 94.011,144.301 94.602,143.707 94.793 C 143.113 94.984,141.974 95.554,141.176 96.061 C 140.378 96.567,139.445 97.099,139.105 97.242 C 138.539 97.480,136.368 98.842,133.349 100.851 C 132.708 101.278,131.305 101.912,130.233 102.261 C 126.602 103.442,123.486 104.372,122.431 104.589 C 121.267 104.829,118.695 106.383,117.808 107.383 C 117.494 107.737,117.071 108.027,116.869 108.027 C 116.667 108.027,116.032 108.601,115.457 109.302 C 110.542 115.307,109.517 122.535,111.766 135.334 C 112.061 137.013,112.220 139.987,112.230 144.036 C 112.263 156.585,114.936 163.772,120.661 166.702 C 121.222 166.989,122.153 167.584,122.731 168.023 C 123.308 168.462,124.931 169.378,126.337 170.057 C 127.743 170.736,129.152 171.578,129.468 171.927 C 129.784 172.277,130.525 172.848,131.113 173.197 C 131.702 173.546,133.559 175.264,135.241 177.013 C 136.923 178.763,138.611 180.508,138.992 180.890 C 140.144 182.046,143.152 184.351,145.536 185.906 C 146.774 186.713,147.861 187.477,147.952 187.605 C 148.043 187.733,148.913 188.112,149.886 188.447 C 150.860 188.782,151.962 189.256,152.337 189.502 C 152.712 189.748,153.721 190.225,154.579 190.563 C 155.437 190.902,156.521 191.500,156.988 191.893 C 158.716 193.347,168.656 197.951,170.893 198.333 C 172.048 198.531,173.803 198.882,174.794 199.114 C 179.969 200.325,197.248 201.187,202.251 200.483 C 203.653 200.286,205.004 200.117,205.251 200.107 C 206.152 200.073,208.113 199.485,208.552 199.117 C 208.800 198.910,209.677 198.562,210.503 198.343 C 211.328 198.124,214.208 196.878,216.904 195.574 C 219.599 194.271,222.342 193.015,223.000 192.783 C 223.658 192.551,224.571 192.093,225.031 191.766 C 225.490 191.439,226.518 190.950,227.316 190.679 C 228.940 190.128,232.598 187.935,235.596 185.717 C 236.689 184.908,237.673 184.246,237.784 184.246 C 237.894 184.246,238.283 183.965,238.647 183.622 C 239.012 183.278,240.262 182.279,241.425 181.400 C 242.588 180.521,243.717 179.589,243.933 179.328 C 244.150 179.067,244.933 178.551,245.674 178.181 C 246.415 177.811,247.362 177.192,247.780 176.805 C 248.198 176.417,250.041 175.341,251.877 174.413 C 253.712 173.485,256.767 171.696,258.665 170.438 C 260.563 169.181,262.892 167.647,263.841 167.030 C 265.646 165.857,268.867 164.644,275.169 162.762 C 283.490 160.278,287.995 156.370,292.261 147.937 C 292.971 146.534,293.857 145.049,294.231 144.636 C 294.605 144.224,295.218 143.143,295.593 142.236 C 295.968 141.328,296.439 140.383,296.640 140.135 C 297.182 139.468,299.475 134.677,299.475 134.211 C 299.475 133.990,299.726 133.309,300.034 132.696 C 301.244 130.285,301.671 121.135,300.819 115.883 C 300.570 114.345,300.429 112.983,300.507 112.857 C 300.585 112.731,300.515 110.479,300.351 107.852 C 299.687 97.227,297.889 91.178,293.756 85.671 C 292.889 84.516,291.844 82.971,291.434 82.238 C 291.025 81.506,290.565 80.763,290.413 80.588 C 290.261 80.413,289.447 79.190,288.605 77.869 C 286.546 74.644,284.593 72.873,281.320 71.263 C 277.140 69.205,275.910 68.972,265.566 68.282 C 262.800 68.097,261.569 67.935,259.715 67.512 C 257.638 67.038,250.231 66.424,249.962 66.704 M259.825 73.055 C 261.910 73.468,264.899 74.075,266.467 74.404 C 268.035 74.732,270.263 75.121,271.418 75.268 C 275.001 75.724,278.460 76.822,280.570 78.175 C 281.643 78.863,282.888 79.650,283.337 79.924 C 283.787 80.198,284.688 81.146,285.341 82.029 C 285.994 82.913,286.951 84.094,287.470 84.654 C 290.095 87.490,293.127 92.760,294.012 96.024 C 295.095 100.016,295.290 101.736,295.571 109.827 C 295.724 114.201,296.068 119.332,296.336 121.230 C 296.965 125.681,295.840 133.542,294.404 134.734 C 294.305 134.816,294.006 135.289,293.741 135.784 C 293.475 136.279,292.665 137.676,291.940 138.888 C 291.216 140.100,290.215 141.856,289.716 142.789 C 289.218 143.722,288.308 145.161,287.695 145.986 C 287.082 146.812,286.021 148.297,285.336 149.287 C 282.515 153.368,279.896 155.256,275.169 156.619 C 273.931 156.976,272.648 157.388,272.318 157.535 C 271.988 157.682,270.908 158.024,269.917 158.295 C 267.709 158.899,263.633 160.697,262.416 161.605 C 261.920 161.974,260.424 162.820,259.091 163.486 C 257.757 164.152,255.962 165.112,255.102 165.619 C 254.241 166.126,253.374 166.544,253.175 166.547 C 250.929 166.581,242.371 171.431,239.160 174.490 C 237.757 175.826,235.805 177.589,234.822 178.407 C 233.838 179.226,232.648 180.247,232.176 180.678 C 230.917 181.825,226.685 184.067,222.538 185.784 C 220.540 186.611,218.297 187.599,217.554 187.979 C 216.812 188.360,214.921 189.085,213.353 189.592 C 208.506 191.158,206.625 191.755,206.002 191.928 C 204.137 192.443,196.489 192.711,192.958 192.385 C 190.889 192.195,185.889 191.903,181.845 191.737 C 169.762 191.242,161.691 188.762,152.824 182.819 C 151.869 182.179,150.679 181.492,150.180 181.292 C 149.680 181.092,148.803 180.527,148.229 180.037 C 147.656 179.547,147.038 179.146,146.855 179.145 C 146.407 179.145,143.884 176.411,142.260 174.166 C 141.532 173.160,140.492 172.032,139.947 171.659 C 139.403 171.286,138.531 170.316,138.010 169.504 C 136.714 167.485,131.498 162.626,129.563 161.635 C 125.183 159.393,123.839 158.362,122.659 156.338 C 120.994 153.482,120.872 152.881,120.587 146.137 C 120.171 136.266,119.863 132.991,119.024 129.482 C 117.796 124.345,118.014 120.088,119.634 117.562 C 121.790 114.201,123.016 113.147,124.955 112.984 C 127.856 112.741,135.058 109.172,139.653 105.701 C 141.313 104.448,143.484 103.082,144.479 102.665 C 145.473 102.249,146.894 101.479,147.637 100.954 C 149.401 99.708,151.134 98.851,152.438 98.579 C 153.016 98.459,155.649 97.301,158.290 96.007 C 166.052 92.203,169.459 91.150,176.597 90.347 C 182.390 89.696,185.175 89.140,189.497 87.775 C 190.323 87.514,192.078 87.105,193.398 86.867 C 194.719 86.628,196.426 86.301,197.192 86.142 C 197.958 85.982,200.186 85.710,202.143 85.536 C 204.100 85.363,206.444 85.007,207.352 84.746 C 208.260 84.484,209.610 84.157,210.353 84.018 C 211.924 83.724,217.214 81.540,220.515 79.823 C 221.775 79.168,223.548 78.411,224.456 78.142 C 225.364 77.873,226.714 77.348,227.457 76.977 C 228.200 76.605,230.023 76.070,231.508 75.788 C 234.058 75.304,236.572 74.515,238.260 73.669 C 238.672 73.462,240.251 73.199,241.767 73.084 C 243.284 72.970,244.896 72.777,245.350 72.655 C 247.579 72.059,255.968 72.291,259.825 73.055 " stroke="none" fill="#c67028" fill-rule="evenodd"></path><path id="path3" d="M260.465 34.544 C 250.148 34.962,248.696 35.112,247.818 35.850 C 247.104 36.451,246.587 36.537,242.716 36.696 C 237.850 36.896,236.716 37.151,235.501 38.315 C 234.667 39.114,234.538 39.137,229.927 39.325 C 225.341 39.512,222.956 40.002,222.956 40.758 C 222.956 41.259,221.357 41.658,218.610 41.843 C 215.287 42.067,213.817 42.447,212.963 43.302 C 212.251 44.015,210.921 44.207,204.051 44.587 C 201.142 44.748,200.459 44.882,199.700 45.443 C 198.351 46.440,193.824 46.807,179.844 47.051 C 168.018 47.258,167.776 47.274,167.091 47.916 C 166.511 48.458,165.931 48.593,163.691 48.711 C 162.206 48.790,160.113 48.995,159.040 49.167 C 157.967 49.340,153.867 49.577,149.928 49.695 C 143.051 49.900,142.735 49.936,141.947 50.599 C 141.029 51.371,137.179 51.602,122.731 51.748 C 113.742 51.838,110.428 52.293,110.428 53.436 C 110.428 53.850,108.065 54.899,107.114 54.907 C 106.661 54.911,105.900 55.340,105.238 55.964 C 104.626 56.542,103.929 57.014,103.689 57.014 C 103.450 57.014,102.843 57.526,102.339 58.152 C 101.709 58.937,101.028 59.397,100.150 59.632 C 99.221 59.880,98.313 60.526,96.805 62.012 C 95.667 63.134,94.217 64.284,93.583 64.567 C 92.737 64.947,92.308 65.393,91.964 66.252 C 91.707 66.894,90.717 68.156,89.764 69.055 C 87.944 70.773,87.339 71.691,86.726 73.668 C 86.229 75.270,78.192 83.501,76.268 84.379 C 75.305 84.818,74.849 85.258,74.515 86.072 C 74.261 86.690,72.564 88.695,70.640 90.650 C 68.757 92.564,67.216 94.319,67.215 94.551 C 67.211 95.546,66.538 97.274,65.937 97.834 C 65.183 98.537,64.885 100.320,64.624 105.693 C 64.455 109.184,64.446 109.218,63.435 110.290 L 62.416 111.371 62.416 118.851 C 62.416 125.833,62.454 126.370,62.993 126.909 C 64.020 127.936,64.157 128.522,64.362 132.786 C 64.589 137.492,64.862 138.734,65.919 139.868 C 66.748 140.758,67.508 143.276,67.513 145.152 C 67.517 146.384,67.641 146.542,72.156 151.051 C 74.717 153.610,76.859 155.999,76.938 156.387 C 77.017 156.773,77.168 157.494,77.274 157.989 C 77.393 158.542,78.209 159.621,79.387 160.783 C 80.778 162.154,81.400 163.023,81.644 163.934 C 81.829 164.625,82.102 165.501,82.251 165.881 C 82.399 166.260,82.521 167.160,82.521 167.881 C 82.521 168.946,82.667 169.299,83.297 169.758 C 84.108 170.349,84.218 170.862,84.880 177.112 C 85.039 178.622,85.259 179.285,85.751 179.743 C 86.112 180.080,86.626 181.105,86.892 182.021 C 87.159 182.938,87.750 184.117,88.206 184.642 C 88.662 185.167,89.278 186.114,89.575 186.747 C 89.872 187.379,90.437 188.019,90.831 188.169 C 91.225 188.319,91.778 188.846,92.060 189.340 C 92.342 189.835,93.046 190.429,93.623 190.661 C 94.201 190.893,95.619 192.039,96.774 193.207 C 98.128 194.576,99.195 195.395,99.775 195.509 C 101.841 195.916,102.785 196.681,109.449 203.348 C 115.443 209.345,116.580 210.353,117.551 210.528 C 118.947 210.780,119.679 211.143,120.577 212.028 C 120.960 212.406,121.703 212.800,122.227 212.903 C 123.817 213.216,124.836 213.704,125.695 214.563 C 126.502 215.370,126.931 215.492,130.483 215.923 C 131.642 216.064,132.358 216.357,133.074 216.986 C 133.619 217.464,134.518 217.942,135.074 218.048 C 136.388 218.298,137.447 218.840,138.157 219.624 C 138.601 220.115,139.083 220.255,140.331 220.255 C 143.409 220.255,147.332 221.116,148.048 221.949 C 148.585 222.573,149.147 222.762,151.391 223.073 C 154.257 223.470,154.960 223.730,155.859 224.723 C 156.168 225.065,156.909 225.433,157.506 225.541 C 158.866 225.787,159.932 226.319,160.647 227.109 C 161.264 227.790,161.792 227.940,164.983 228.334 C 166.730 228.550,167.316 228.758,167.872 229.357 C 168.787 230.345,170.226 230.720,174.013 230.958 C 176.839 231.136,177.221 231.232,178.065 231.973 C 179.057 232.843,178.621 232.796,188.897 233.145 C 192.610 233.272,196.437 232.717,197.214 231.939 C 197.866 231.288,198.437 231.059,199.777 230.915 C 200.725 230.813,202.067 230.600,202.759 230.443 C 203.451 230.286,204.560 230.158,205.224 230.158 C 206.147 230.158,206.637 229.956,207.308 229.300 C 208.066 228.559,208.573 228.392,211.056 228.063 C 213.217 227.777,214.060 227.535,214.465 227.085 C 215.291 226.168,216.205 225.933,220.088 225.636 C 223.454 225.379,223.727 225.310,224.589 224.492 C 225.781 223.362,226.425 223.189,229.367 223.213 C 232.424 223.237,233.816 222.873,234.967 221.748 C 235.464 221.261,236.240 220.782,236.690 220.682 C 238.569 220.267,239.481 219.876,239.751 219.372 C 240.063 218.789,241.137 218.305,242.727 218.029 C 243.286 217.932,244.068 217.503,244.465 217.074 C 245.021 216.475,245.649 216.228,247.199 215.999 C 250.356 215.534,251.480 215.167,252.232 214.355 C 252.790 213.753,253.371 213.548,255.122 213.333 C 258.521 212.918,258.671 212.846,261.106 210.479 C 262.512 209.113,263.646 208.252,264.041 208.252 C 265.180 208.252,266.876 207.356,267.755 206.289 C 268.497 205.389,268.788 205.251,269.946 205.251 C 271.087 205.251,271.471 205.076,272.583 204.051 C 273.622 203.094,274.114 202.851,275.016 202.851 C 275.886 202.851,276.414 202.609,277.309 201.800 C 277.948 201.223,278.745 200.750,279.080 200.750 C 280.291 200.750,281.697 199.890,283.606 197.981 C 284.757 196.830,286.006 195.885,286.662 195.669 C 287.436 195.413,287.829 195.077,287.959 194.560 C 288.081 194.072,288.573 193.616,289.394 193.230 C 290.200 192.851,290.757 192.341,290.964 191.792 C 291.201 191.166,291.555 190.886,292.300 190.737 C 292.858 190.626,293.811 190.135,294.418 189.648 C 295.024 189.161,296.170 188.616,296.964 188.438 C 298.544 188.084,299.647 187.136,305.179 181.378 C 307.655 178.800,308.113 178.168,308.286 177.082 C 308.454 176.035,308.642 175.755,309.345 175.510 C 309.912 175.312,310.382 174.809,310.740 174.017 C 311.036 173.360,311.587 172.489,311.965 172.082 C 312.342 171.674,312.745 170.835,312.860 170.217 C 313.220 168.276,319.267 161.617,321.526 160.673 C 322.107 160.430,322.771 159.841,323.031 159.339 C 323.435 158.558,323.663 158.439,324.764 158.432 C 326.841 158.420,328.673 157.862,329.632 156.950 C 330.128 156.479,331.040 155.885,331.660 155.631 C 332.351 155.347,332.901 154.867,333.082 154.391 C 333.245 153.963,333.764 153.392,334.236 153.121 C 334.707 152.851,335.440 152.012,335.864 151.258 C 336.288 150.504,337.452 149.103,338.450 148.145 C 339.806 146.842,340.315 146.122,340.465 145.294 C 340.713 143.922,341.269 142.800,342.196 141.800 C 342.587 141.378,343.135 140.222,343.412 139.233 C 343.690 138.244,344.042 137.434,344.194 137.434 C 344.755 137.434,345.419 135.549,345.743 133.038 C 346.028 130.829,346.194 130.352,346.895 129.728 C 347.679 129.030,347.722 128.839,347.898 125.339 C 347.999 123.327,348.100 121.545,348.123 121.380 C 348.459 118.941,347.624 108.542,347.055 108.090 C 345.941 107.206,345.848 106.805,345.527 101.508 C 345.220 96.451,345.195 96.320,344.375 95.465 C 343.697 94.756,343.486 94.173,343.261 92.383 C 342.910 89.588,342.484 88.296,341.790 87.925 C 341.415 87.724,341.181 87.134,341.047 86.051 C 340.622 82.615,340.257 81.380,339.403 80.486 C 338.772 79.826,338.501 79.177,338.355 77.982 C 337.943 74.583,337.811 74.108,336.994 73.081 C 336.471 72.422,336.078 71.483,335.955 70.595 C 335.661 68.471,335.228 67.602,334.146 66.964 C 333.381 66.513,333.129 66.124,332.975 65.158 C 332.794 64.026,331.937 63.087,322.230 53.384 C 312.105 43.264,310.654 42.011,309.057 42.011 C 308.706 42.011,308.042 41.608,307.582 41.116 C 306.516 39.974,305.689 39.671,302.744 39.341 C 300.745 39.118,300.235 38.946,299.628 38.292 C 299.059 37.677,298.620 37.509,297.583 37.509 C 296.858 37.509,295.872 37.379,295.394 37.221 C 294.915 37.062,293.001 36.813,291.139 36.667 C 288.386 36.450,287.679 36.297,287.348 35.844 C 286.421 34.576,274.234 33.986,260.465 34.544 M267.667 61.920 C 279.548 62.663,281.123 62.963,286.048 65.415 C 292.225 68.492,295.865 71.974,298.875 77.689 C 299.287 78.472,300.005 79.600,300.470 80.196 C 301.606 81.652,306.829 92.011,307.427 93.993 C 309.838 101.990,309.744 123.907,307.265 131.829 C 306.156 135.372,303.267 140.777,301.863 141.935 C 301.763 142.018,301.598 142.288,301.495 142.536 C 301.392 142.783,300.496 144.134,299.502 145.536 C 298.509 146.939,297.282 148.786,296.775 149.641 C 296.269 150.496,295.482 151.594,295.028 152.080 C 294.574 152.566,293.422 154.000,292.469 155.267 C 290.769 157.525,290.365 157.962,287.728 160.395 C 284.223 163.628,281.346 165.234,276.114 166.878 C 274.076 167.518,272.204 168.042,271.954 168.042 C 271.198 168.042,266.363 170.297,264.790 171.384 C 262.443 173.005,259.791 174.991,258.815 175.859 C 257.829 176.736,255.662 177.892,248.162 181.543 C 243.539 183.793,240.406 185.560,235.987 188.409 C 234.985 189.055,233.432 189.953,232.536 190.405 C 231.641 190.857,230.838 191.335,230.753 191.467 C 230.368 192.063,210.641 201.950,209.836 201.950 C 209.626 201.950,208.678 202.213,207.728 202.533 C 201.527 204.626,177.423 204.383,169.542 202.147 C 166.834 201.379,162.934 199.632,161.156 198.390 C 159.587 197.293,156.976 195.840,150.868 192.661 C 147.131 190.717,143.865 188.707,141.734 187.039 C 140.720 186.246,139.371 185.220,138.737 184.761 C 138.103 184.301,136.639 183.101,135.484 182.094 C 132.834 179.784,128.688 177.032,125.581 175.521 C 120.637 173.116,114.328 167.710,113.534 165.200 C 113.429 164.865,113.035 164.186,112.659 163.691 C 111.907 162.698,109.827 158.135,109.827 157.476 C 109.827 157.247,109.709 156.931,109.565 156.774 C 109.012 156.173,108.030 150.251,107.578 144.786 C 106.979 137.544,106.428 133.608,105.832 132.308 C 104.998 130.487,104.036 123.217,104.208 120.029 C 104.445 115.622,107.500 107.523,109.528 105.926 C 109.633 105.844,110.037 105.112,110.425 104.299 C 111.798 101.428,116.016 96.845,118.380 95.655 C 120.028 94.825,127.483 92.481,129.647 92.111 C 131.772 91.748,135.212 90.500,138.335 88.959 C 141.101 87.594,149.862 84.531,152.088 84.151 C 153.522 83.906,157.304 82.820,157.689 82.542 C 157.854 82.423,158.597 82.155,159.340 81.947 C 160.722 81.559,164.034 79.854,165.297 78.880 C 165.685 78.580,166.495 78.244,167.097 78.133 C 167.699 78.021,168.917 77.682,169.803 77.378 C 170.689 77.075,173.180 76.483,175.337 76.062 C 177.494 75.641,179.408 75.174,179.589 75.023 C 179.771 74.873,181.217 74.412,182.804 74.000 C 185.527 73.292,189.123 71.959,189.809 71.402 C 189.980 71.263,190.993 71.009,192.060 70.837 C 193.126 70.665,194.469 70.388,195.045 70.222 C 195.620 70.055,197.646 69.711,199.546 69.457 C 201.446 69.202,203.676 68.864,204.501 68.704 C 207.904 68.047,210.326 67.518,212.453 66.967 C 217.115 65.762,222.998 64.503,224.819 64.321 C 225.857 64.218,226.973 63.996,227.298 63.829 C 227.623 63.661,228.501 63.480,229.248 63.427 C 231.071 63.297,234.840 62.758,237.959 62.182 C 243.482 61.162,254.066 61.069,267.667 61.920 M42.011 98.929 C 36.435 99.184,36.609 98.987,36.609 105.048 C 36.609 110.722,36.664 110.836,39.577 111.174 C 41.305 111.375,41.411 111.432,41.415 112.183 C 41.423 113.491,41.734 113.670,44.188 113.777 L 46.513 113.878 46.512 112.603 L 46.512 111.328 47.712 111.328 L 48.912 111.328 48.912 106.227 L 48.912 101.125 47.712 101.125 L 46.512 101.125 46.512 99.925 L 46.512 98.725 45.236 98.782 C 44.535 98.814,43.083 98.880,42.011 98.929 " stroke="none" fill="#a55016" fill-rule="evenodd"></path></g></svg>