<svg id="svg" version="1.1" width="400" height="250" viewBox="0 0 400 250" xmlns="http://www.w3.org/2000/svg" xmlns:xlink="http://www.w3.org/1999/xlink"><g id="svgg"><path id="path0" d="M192.163 82.420 C 191.986 82.597,184.138 83.089,181.750 83.072 C 178.726 83.051,168.501 84.065,167.883 84.448 C 167.742 84.534,167.120 84.685,166.501 84.782 C 165.000 85.017,163.333 85.451,162.804 85.744 C 161.982 86.199,158.716 87.250,158.125 87.250 C 157.797 87.250,157.468 87.350,157.393 87.472 C 157.317 87.594,156.832 87.767,156.315 87.856 C 155.798 87.946,154.700 88.232,153.875 88.494 C 153.050 88.755,151.592 89.163,150.635 89.401 C 149.679 89.639,148.610 89.983,148.260 90.165 C 147.911 90.348,147.435 90.498,147.202 90.498 C 146.970 90.499,146.710 90.612,146.625 90.750 C 146.540 90.888,146.194 91.000,145.857 91.000 C 145.519 91.000,145.048 91.110,144.809 91.245 C 144.193 91.594,140.015 93.500,139.868 93.500 C 139.800 93.500,139.205 93.879,138.546 94.343 C 137.886 94.806,137.072 95.272,136.736 95.376 C 136.400 95.481,136.069 95.648,136.000 95.746 C 135.783 96.055,132.403 98.354,131.443 98.846 C 130.937 99.104,130.297 99.527,130.020 99.785 C 129.308 100.448,125.979 102.166,124.397 102.686 C 122.801 103.211,122.156 103.647,120.010 105.651 C 119.111 106.491,118.099 107.391,117.761 107.651 C 116.655 108.505,114.177 111.251,113.646 112.211 C 113.521 112.439,113.343 112.681,113.252 112.750 C 112.419 113.377,109.274 118.800,109.117 119.879 C 109.018 120.564,108.726 121.568,108.468 122.109 C 108.210 122.653,107.995 123.661,107.989 124.359 C 107.983 125.056,107.875 126.131,107.749 126.750 C 107.341 128.749,108.406 136.989,109.339 139.052 C 109.544 139.505,109.769 140.269,109.840 140.750 C 110.076 142.353,110.679 144.863,111.071 145.875 C 111.283 146.425,111.525 147.358,111.608 147.948 C 111.691 148.539,111.860 149.214,111.982 149.448 C 112.105 149.683,112.509 150.857,112.880 152.057 C 113.419 153.797,113.752 154.430,114.528 155.182 C 115.062 155.701,115.500 156.245,115.500 156.393 C 115.501 157.355,120.321 161.165,122.084 161.597 C 122.474 161.692,123.029 161.991,123.318 162.260 C 123.608 162.530,124.189 162.751,124.610 162.752 C 125.031 162.752,125.667 162.905,126.023 163.091 C 126.380 163.277,127.111 163.511,127.648 163.611 C 129.054 163.871,133.358 166.064,134.515 167.109 C 135.058 167.599,135.621 168.000,135.767 168.000 C 135.913 168.000,136.897 168.857,137.954 169.904 C 139.010 170.951,140.380 172.216,140.998 172.716 C 141.615 173.216,142.403 173.888,142.748 174.209 C 143.093 174.531,143.825 175.082,144.375 175.434 C 144.925 175.786,145.431 176.142,145.500 176.225 C 145.668 176.427,148.333 177.750,148.571 177.750 C 148.675 177.750,149.180 178.015,149.692 178.338 C 150.205 178.662,150.906 179.007,151.250 179.104 C 152.037 179.327,152.435 179.494,154.750 180.570 C 155.781 181.050,157.637 181.805,158.875 182.249 C 160.113 182.693,161.575 183.264,162.125 183.517 C 164.303 184.522,166.323 185.230,167.446 185.382 C 168.094 185.469,169.356 185.750,170.250 186.006 C 171.623 186.399,174.371 186.843,178.500 187.338 C 178.981 187.395,180.331 187.635,181.500 187.871 C 182.669 188.106,184.075 188.389,184.625 188.500 C 185.175 188.611,186.356 188.834,187.250 188.994 C 188.144 189.155,189.438 189.498,190.125 189.757 C 190.813 190.016,191.938 190.300,192.625 190.389 C 193.313 190.478,194.550 190.763,195.375 191.022 C 197.012 191.537,201.087 192.362,204.625 192.894 C 208.823 193.526,213.815 193.348,220.250 192.339 C 221.556 192.134,223.412 191.846,224.375 191.699 C 225.338 191.552,226.681 191.166,227.362 190.841 C 228.042 190.516,228.765 190.250,228.969 190.250 C 229.430 190.250,230.808 189.805,232.125 189.230 C 233.902 188.456,235.859 187.528,236.500 187.158 C 236.844 186.960,238.067 186.329,239.219 185.756 C 240.371 185.184,241.496 184.615,241.719 184.492 C 242.686 183.960,245.133 182.961,245.787 182.830 C 246.179 182.752,246.501 182.617,246.503 182.531 C 246.506 182.380,247.089 182.093,250.000 180.812 C 250.756 180.479,251.600 180.084,251.875 179.934 C 252.150 179.784,252.702 179.484,253.102 179.268 C 253.501 179.052,254.025 178.706,254.265 178.500 C 254.506 178.294,255.242 177.731,255.901 177.250 C 257.531 176.061,258.679 174.906,260.006 173.125 C 260.621 172.300,261.180 171.569,261.249 171.500 C 261.318 171.431,261.806 170.735,262.333 169.952 C 262.860 169.169,263.535 168.255,263.833 167.922 C 264.746 166.900,265.199 166.312,265.479 165.789 C 265.626 165.514,265.888 165.140,266.061 164.957 C 266.234 164.774,266.881 163.950,267.499 163.125 C 268.118 162.300,268.686 161.569,268.762 161.500 C 269.064 161.227,270.500 158.725,270.500 158.472 C 270.500 158.324,270.721 157.892,270.990 157.514 C 272.228 155.775,273.136 151.379,273.393 145.875 C 273.451 144.637,273.609 142.950,273.744 142.125 C 274.667 136.480,274.891 124.361,274.131 121.125 C 273.905 120.162,273.660 119.094,273.585 118.750 C 273.390 117.847,272.974 116.831,272.157 115.258 C 271.762 114.497,271.048 113.116,270.570 112.188 C 270.092 111.259,269.615 110.500,269.508 110.500 C 269.402 110.500,268.934 109.741,268.470 108.813 C 268.005 107.884,267.165 106.393,266.603 105.498 C 266.041 104.603,265.372 103.422,265.116 102.873 C 264.860 102.324,264.588 101.819,264.512 101.750 C 264.435 101.681,263.984 100.838,263.510 99.875 C 263.036 98.912,262.499 97.974,262.318 97.789 C 262.137 97.604,261.833 97.152,261.643 96.785 C 261.349 96.217,259.614 94.487,258.126 93.280 C 257.434 92.718,255.433 91.697,254.625 91.492 C 254.213 91.388,253.369 91.128,252.750 90.915 C 251.516 90.489,248.246 89.940,243.653 89.388 C 242.018 89.191,240.561 88.911,240.415 88.765 C 240.269 88.619,239.918 88.500,239.635 88.500 C 239.352 88.500,238.166 88.153,236.998 87.729 C 235.830 87.305,234.650 86.899,234.375 86.827 C 234.100 86.754,233.144 86.470,232.250 86.195 C 231.356 85.920,229.781 85.597,228.750 85.477 C 227.719 85.358,225.919 85.085,224.750 84.872 C 223.581 84.659,221.387 84.380,219.875 84.251 C 218.363 84.123,216.338 83.838,215.375 83.618 C 214.412 83.399,212.834 83.131,211.868 83.023 C 210.902 82.915,209.869 82.697,209.572 82.539 C 208.981 82.222,192.474 82.109,192.163 82.420 " stroke="none" fill="#e89439" fill-rule="evenodd"></path><path id="path1" d="M201.625 71.542 C 200.387 71.659,198.614 71.866,197.683 72.002 C 196.752 72.139,195.233 72.251,194.308 72.251 C 193.382 72.252,192.217 72.366,191.718 72.505 C 189.593 73.095,182.027 73.482,179.564 73.126 C 178.756 73.009,178.132 73.034,177.939 73.191 C 177.766 73.330,176.331 73.523,174.750 73.618 C 172.057 73.780,168.935 74.205,166.625 74.725 C 166.075 74.848,165.056 75.066,164.361 75.209 C 163.666 75.352,162.501 75.870,161.773 76.359 C 161.045 76.849,160.285 77.250,160.084 77.250 C 159.705 77.250,157.496 77.890,156.625 78.253 C 156.350 78.367,155.638 78.529,155.043 78.612 C 154.449 78.694,153.324 79.081,152.543 79.470 C 151.763 79.860,150.474 80.253,149.679 80.343 C 148.884 80.433,148.040 80.610,147.804 80.736 C 146.970 81.181,142.863 82.704,142.021 82.880 C 141.551 82.978,140.957 83.254,140.700 83.493 C 140.444 83.732,139.422 84.232,138.429 84.604 C 137.437 84.975,135.480 85.723,134.080 86.265 C 132.680 86.807,131.395 87.250,131.223 87.250 C 131.051 87.250,130.565 87.363,130.143 87.502 C 129.360 87.758,126.031 88.588,124.000 89.034 C 123.381 89.169,122.425 89.494,121.875 89.756 C 121.325 90.017,120.425 90.309,119.876 90.405 C 118.814 90.590,116.981 91.515,116.158 92.282 C 115.885 92.536,115.457 92.809,115.206 92.889 C 114.955 92.969,114.750 93.139,114.750 93.267 C 114.750 93.395,114.603 93.500,114.422 93.500 C 114.242 93.500,113.764 93.814,113.360 94.199 C 112.956 94.583,112.006 95.342,111.250 95.886 C 108.839 97.619,107.426 98.916,106.000 100.706 C 105.656 101.138,104.981 101.762,104.500 102.094 C 104.019 102.425,102.722 103.580,101.619 104.661 C 100.516 105.741,99.363 106.790,99.057 106.993 C 98.751 107.195,98.500 107.465,98.500 107.592 C 98.500 107.720,98.106 108.207,97.625 108.674 C 97.144 109.142,96.750 109.603,96.749 109.700 C 96.749 109.796,96.288 110.550,95.725 111.375 C 90.921 118.414,90.492 131.446,94.791 139.743 C 95.181 140.496,95.500 141.384,95.500 141.718 C 95.500 142.052,95.768 142.899,96.096 143.600 C 97.096 145.742,97.676 147.095,97.872 147.750 C 98.185 148.792,101.269 153.804,102.292 154.932 C 102.819 155.513,103.250 156.081,103.250 156.194 C 103.250 156.455,105.437 158.674,107.617 160.625 C 108.539 161.450,109.649 162.500,110.084 162.957 C 113.856 166.925,118.688 171.371,119.500 171.619 C 120.514 171.929,122.838 173.091,123.327 173.532 C 123.576 173.756,124.363 174.015,125.077 174.107 C 127.280 174.390,130.164 175.485,130.412 176.131 C 130.490 176.334,130.774 176.500,131.043 176.500 C 131.313 176.500,131.891 176.772,132.329 177.104 C 132.767 177.436,133.631 177.896,134.250 178.126 C 136.238 178.864,137.250 179.322,137.250 179.484 C 137.250 179.571,137.616 179.854,138.063 180.113 C 138.509 180.372,139.168 180.825,139.525 181.119 C 139.883 181.414,140.839 181.965,141.650 182.345 C 142.461 182.724,143.412 183.189,143.763 183.378 C 144.478 183.761,146.375 184.451,148.625 185.145 C 149.450 185.399,150.406 185.792,150.750 186.017 C 151.094 186.243,151.928 186.500,152.605 186.590 C 153.281 186.679,155.362 187.271,157.230 187.905 C 160.414 188.986,161.660 189.498,165.375 191.254 C 167.474 192.246,169.197 193.000,169.364 193.000 C 169.442 193.000,169.982 193.213,170.565 193.473 C 171.148 193.733,172.919 194.194,174.500 194.497 C 179.094 195.377,179.399 195.451,180.540 195.960 C 181.137 196.225,182.637 196.627,183.875 196.853 C 186.061 197.251,187.375 197.738,188.299 198.493 C 188.546 198.695,189.340 198.990,190.062 199.149 C 191.449 199.453,195.701 200.923,196.125 201.244 C 196.262 201.348,196.941 201.505,197.632 201.593 C 198.323 201.681,199.504 201.979,200.257 202.256 C 201.652 202.770,213.254 203.086,213.991 202.630 C 214.143 202.536,214.967 202.351,215.821 202.218 C 219.866 201.590,221.958 201.237,222.875 201.028 C 223.425 200.903,224.494 200.675,225.250 200.522 C 226.006 200.368,227.019 200.067,227.500 199.851 C 229.635 198.893,232.069 197.582,232.672 197.064 C 233.033 196.754,233.413 196.500,233.518 196.500 C 233.731 196.500,234.401 195.952,236.425 194.125 C 237.186 193.438,238.330 192.539,238.967 192.128 C 239.604 191.717,240.266 191.246,240.439 191.082 C 241.044 190.506,244.154 189.065,247.625 187.752 C 250.699 186.589,256.150 184.123,256.500 183.737 C 256.569 183.661,257.162 183.219,257.818 182.754 C 258.474 182.288,259.486 181.282,260.068 180.517 C 260.649 179.753,261.211 179.014,261.315 178.876 C 261.420 178.738,261.847 178.231,262.265 177.750 C 262.682 177.269,264.076 175.406,265.361 173.610 C 266.647 171.815,268.076 169.949,268.537 169.465 C 269.586 168.362,270.500 167.197,270.500 166.963 C 270.500 166.864,270.725 166.712,271.000 166.625 C 271.275 166.538,271.500 166.300,271.500 166.097 C 271.500 165.795,272.752 163.936,273.875 162.571 C 276.804 159.011,278.219 155.448,278.419 151.125 C 278.483 149.750,278.639 148.344,278.766 148.000 C 278.893 147.656,279.118 146.081,279.265 144.500 C 279.873 137.975,280.004 136.758,280.372 134.250 C 281.731 124.978,281.967 118.583,281.072 115.250 C 280.869 114.494,280.595 113.369,280.462 112.750 C 280.329 112.131,280.115 111.372,279.985 111.063 C 279.856 110.753,279.645 110.247,279.516 109.938 C 279.387 109.628,279.203 109.094,279.107 108.750 C 279.011 108.406,278.852 108.069,278.754 108.000 C 278.656 107.931,278.086 107.088,277.487 106.125 C 276.888 105.162,276.328 104.319,276.244 104.250 C 276.160 104.181,275.911 103.668,275.691 103.110 C 275.472 102.551,274.889 101.426,274.397 100.610 C 273.904 99.793,273.501 99.038,273.501 98.931 C 273.497 97.763,267.193 90.460,264.496 88.500 C 264.024 88.156,263.308 87.566,262.906 87.188 C 262.505 86.809,262.101 86.500,262.010 86.500 C 261.919 86.500,261.626 86.301,261.360 86.059 C 260.179 84.983,256.893 83.124,255.733 82.876 C 255.261 82.775,254.762 82.612,254.625 82.515 C 254.132 82.165,252.330 81.791,249.750 81.503 C 248.306 81.341,246.819 81.045,246.444 80.845 C 246.049 80.633,244.688 80.417,243.194 80.329 C 240.997 80.200,240.360 80.056,238.794 79.339 C 237.787 78.878,236.869 78.500,236.753 78.500 C 236.637 78.500,236.504 78.416,236.458 78.313 C 236.244 77.831,230.897 75.503,228.875 75.011 C 224.361 73.913,221.102 73.259,220.125 73.256 C 219.575 73.255,218.281 73.140,217.250 73.001 C 216.219 72.862,214.137 72.582,212.625 72.380 C 211.113 72.177,208.975 71.843,207.875 71.636 C 205.709 71.229,205.042 71.219,201.625 71.542 M209.572 82.539 C 209.869 82.697,210.902 82.915,211.868 83.023 C 212.834 83.131,214.412 83.399,215.375 83.618 C 216.338 83.838,218.363 84.123,219.875 84.251 C 221.387 84.380,223.581 84.659,224.750 84.872 C 225.919 85.085,227.719 85.358,228.750 85.477 C 229.781 85.597,231.356 85.920,232.250 86.195 C 233.144 86.470,234.100 86.754,234.375 86.827 C 234.650 86.899,235.830 87.305,236.998 87.729 C 238.166 88.153,239.352 88.500,239.635 88.500 C 239.918 88.500,240.269 88.619,240.415 88.765 C 240.561 88.911,242.018 89.191,243.653 89.388 C 248.246 89.940,251.516 90.489,252.750 90.915 C 253.369 91.128,254.213 91.388,254.625 91.492 C 255.433 91.697,257.434 92.718,258.126 93.280 C 259.614 94.487,261.349 96.217,261.643 96.785 C 261.833 97.152,262.137 97.604,262.318 97.789 C 262.499 97.974,263.036 98.912,263.510 99.875 C 263.984 100.838,264.435 101.681,264.512 101.750 C 264.588 101.819,264.860 102.324,265.116 102.873 C 265.372 103.422,266.041 104.603,266.603 105.498 C 267.165 106.393,268.005 107.884,268.470 108.813 C 268.934 109.741,269.402 110.500,269.508 110.500 C 269.615 110.500,270.092 111.259,270.570 112.188 C 271.048 113.116,271.762 114.497,272.157 115.258 C 272.974 116.831,273.390 117.847,273.585 118.750 C 273.660 119.094,273.905 120.162,274.131 121.125 C 274.891 124.361,274.667 136.480,273.744 142.125 C 273.609 142.950,273.451 144.637,273.393 145.875 C 273.136 151.379,272.228 155.775,270.990 157.514 C 270.721 157.892,270.500 158.324,270.500 158.472 C 270.500 158.725,269.064 161.227,268.762 161.500 C 268.686 161.569,268.118 162.300,267.499 163.125 C 266.881 163.950,266.234 164.774,266.061 164.957 C 265.888 165.140,265.626 165.514,265.479 165.789 C 265.199 166.312,264.746 166.900,263.833 167.922 C 263.535 168.255,262.860 169.169,262.333 169.952 C 261.806 170.735,261.318 171.431,261.249 171.500 C 261.180 171.569,260.621 172.300,260.006 173.125 C 258.679 174.906,257.531 176.061,255.901 177.250 C 255.242 177.731,254.506 178.294,254.265 178.500 C 254.025 178.706,253.501 179.052,253.102 179.268 C 252.702 179.484,252.150 179.784,251.875 179.934 C 251.600 180.084,250.756 180.479,250.000 180.812 C 247.089 182.093,246.506 182.380,246.503 182.531 C 246.501 182.617,246.179 182.752,245.787 182.830 C 245.133 182.961,242.686 183.960,241.719 184.492 C 241.496 184.615,240.371 185.184,239.219 185.756 C 238.067 186.329,236.844 186.960,236.500 187.158 C 235.859 187.528,233.902 188.456,232.125 189.230 C 230.808 189.805,229.430 190.250,228.969 190.250 C 228.765 190.250,228.042 190.516,227.362 190.841 C 226.681 191.166,225.338 191.552,224.375 191.699 C 223.412 191.846,221.556 192.134,220.250 192.339 C 213.815 193.348,208.823 193.526,204.625 192.894 C 201.087 192.362,197.012 191.537,195.375 191.022 C 194.550 190.763,193.313 190.478,192.625 190.389 C 191.938 190.300,190.813 190.016,190.125 189.757 C 189.438 189.498,188.144 189.155,187.250 188.994 C 186.356 188.834,185.175 188.611,184.625 188.500 C 184.075 188.389,182.669 188.106,181.500 187.871 C 180.331 187.635,178.981 187.395,178.500 187.338 C 174.371 186.843,171.623 186.399,170.250 186.006 C 169.356 185.750,168.094 185.469,167.446 185.382 C 166.323 185.230,164.303 184.522,162.125 183.517 C 161.575 183.264,160.113 182.693,158.875 182.249 C 157.637 181.805,155.781 181.050,154.750 180.570 C 152.435 179.494,152.037 179.327,151.250 179.104 C 150.906 179.007,150.205 178.662,149.692 178.338 C 149.180 178.015,148.675 177.750,148.571 177.750 C 148.333 177.750,145.668 176.427,145.500 176.225 C 145.431 176.142,144.925 175.786,144.375 175.434 C 143.825 175.082,143.093 174.531,142.748 174.209 C 142.403 173.888,141.615 173.216,140.998 172.716 C 140.380 172.216,139.010 170.951,137.954 169.904 C 136.897 168.857,135.913 168.000,135.767 168.000 C 135.621 168.000,135.058 167.599,134.515 167.109 C 133.358 166.064,129.054 163.871,127.648 163.611 C 127.111 163.511,126.380 163.277,126.023 163.091 C 125.667 162.905,125.031 162.752,124.610 162.752 C 124.189 162.751,123.608 162.530,123.318 162.260 C 123.029 161.991,122.474 161.692,122.084 161.597 C 120.321 161.165,115.501 157.355,115.500 156.393 C 115.500 156.245,115.062 155.701,114.528 155.182 C 113.752 154.430,113.419 153.797,112.880 152.057 C 112.509 150.857,112.105 149.683,111.982 149.448 C 111.860 149.214,111.691 148.539,111.608 147.948 C 111.525 147.358,111.283 146.425,111.071 145.875 C 110.679 144.863,110.076 142.353,109.840 140.750 C 109.769 140.269,109.544 139.505,109.339 139.052 C 108.406 136.989,107.341 128.749,107.749 126.750 C 107.875 126.131,107.983 125.056,107.989 124.359 C 107.995 123.661,108.210 122.653,108.468 122.109 C 108.726 121.568,109.018 120.564,109.117 119.879 C 109.274 118.800,112.419 113.377,113.252 112.750 C 113.343 112.681,113.521 112.439,113.646 112.211 C 114.177 111.251,116.655 108.505,117.761 107.651 C 118.099 107.391,119.111 106.491,120.010 105.651 C 122.156 103.647,122.801 103.211,124.397 102.686 C 125.979 102.166,129.308 100.448,130.020 99.785 C 130.297 99.527,130.937 99.104,131.443 98.846 C 132.403 98.354,135.783 96.055,136.000 95.746 C 136.069 95.648,136.400 95.481,136.736 95.376 C 137.072 95.272,137.886 94.806,138.546 94.343 C 139.205 93.879,139.800 93.500,139.868 93.500 C 140.015 93.500,144.193 91.594,144.809 91.245 C 145.048 91.110,145.519 91.000,145.857 91.000 C 146.194 91.000,146.540 90.888,146.625 90.750 C 146.710 90.612,146.970 90.499,147.202 90.498 C 147.435 90.498,147.911 90.348,148.260 90.165 C 148.610 89.983,149.679 89.639,150.635 89.401 C 151.592 89.163,153.050 88.755,153.875 88.494 C 154.700 88.232,155.798 87.946,156.315 87.856 C 156.832 87.767,157.317 87.594,157.393 87.472 C 157.468 87.350,157.797 87.250,158.125 87.250 C 158.716 87.250,161.982 86.199,162.804 85.744 C 163.333 85.451,165.000 85.017,166.501 84.782 C 167.120 84.685,167.742 84.534,167.883 84.448 C 168.501 84.065,178.726 83.051,181.750 83.072 C 184.138 83.089,191.986 82.597,192.163 82.420 C 192.474 82.109,208.981 82.222,209.572 82.539 " stroke="none" fill="#d4702a" fill-rule="evenodd"></path><path id="path2" d="M175.506 35.743 L 174.812 36.487 168.968 36.717 C 162.556 36.970,161.511 37.168,160.418 38.338 L 159.683 39.125 153.904 39.275 C 150.664 39.359,147.741 39.552,147.252 39.713 C 146.771 39.871,145.776 40.000,145.039 40.000 C 143.869 40.000,143.611 40.096,142.987 40.764 C 142.351 41.445,142.047 41.553,140.199 41.754 C 137.376 42.062,136.277 42.418,135.463 43.289 C 134.854 43.941,134.528 44.055,132.699 44.254 C 129.853 44.564,128.777 44.918,127.933 45.822 C 127.219 46.586,127.180 46.595,123.919 46.773 C 120.073 46.982,118.907 47.279,117.967 48.286 C 117.465 48.823,116.921 49.082,115.952 49.246 C 115.222 49.369,114.287 49.529,113.875 49.600 C 113.463 49.671,112.684 49.799,112.145 49.884 C 111.515 49.983,110.917 50.304,110.472 50.780 C 109.766 51.536,109.461 51.624,105.375 52.257 C 104.550 52.385,103.281 52.492,102.554 52.495 C 101.409 52.499,101.120 52.608,100.380 53.313 C 98.988 54.638,98.805 54.750,98.027 54.750 C 96.756 54.750,96.026 55.189,94.170 57.070 C 93.162 58.091,91.896 59.100,91.283 59.370 C 90.591 59.676,89.974 60.197,89.597 60.794 C 89.270 61.312,88.678 61.904,88.281 62.109 C 87.885 62.314,87.330 62.873,87.048 63.350 C 86.766 63.828,86.203 64.391,85.798 64.600 C 85.392 64.810,84.824 65.382,84.535 65.872 C 83.978 66.816,83.965 66.824,82.297 67.251 C 81.462 67.465,80.786 67.964,79.297 69.461 C 77.382 71.388,76.826 71.734,74.816 72.247 C 72.797 72.762,64.253 81.709,64.251 83.309 C 64.250 83.831,64.021 84.138,63.289 84.600 C 62.167 85.309,61.834 86.045,61.668 88.190 C 61.565 89.525,61.437 89.859,60.798 90.455 C 59.784 91.402,59.491 92.543,59.261 96.431 C 59.068 99.710,59.059 99.744,58.283 100.469 C 57.594 101.113,57.500 101.362,57.500 102.539 C 57.500 103.276,57.381 104.271,57.236 104.752 C 57.090 105.232,56.882 106.549,56.772 107.679 C 56.592 109.519,56.493 109.806,55.811 110.443 C 54.909 111.286,54.546 112.403,54.273 115.179 C 54.094 117.007,53.990 117.309,53.327 117.929 L 52.582 118.625 52.408 125.274 C 52.312 128.931,52.312 134.082,52.406 136.720 L 52.579 141.517 53.346 142.268 C 54.063 142.969,54.125 143.176,54.295 145.446 C 54.983 154.617,54.862 153.978,56.109 155.024 C 56.506 155.357,56.613 155.849,56.705 157.773 C 56.821 160.211,57.325 161.498,58.551 162.491 C 58.836 162.722,59.092 163.338,59.180 164.003 C 59.334 165.168,60.219 166.817,61.051 167.491 C 61.336 167.722,61.592 168.338,61.680 169.003 C 61.829 170.127,62.778 171.951,63.409 172.324 C 63.594 172.433,64.047 173.139,64.416 173.892 C 64.871 174.822,65.276 175.310,65.675 175.410 C 66.327 175.574,66.750 176.194,66.750 176.989 C 66.750 177.571,67.888 179.516,68.409 179.824 C 68.594 179.933,69.038 180.620,69.396 181.351 C 69.850 182.277,70.284 182.785,70.830 183.027 C 71.593 183.366,71.997 184.095,72.353 185.773 C 72.585 186.873,73.663 187.721,75.062 187.907 C 76.198 188.057,76.376 188.173,76.970 189.139 C 77.330 189.725,77.960 190.355,78.369 190.540 C 79.088 190.864,79.506 191.632,79.849 193.259 C 79.928 193.634,81.269 195.169,83.126 197.009 C 85.199 199.064,86.486 200.559,86.907 201.400 C 87.426 202.439,87.761 202.772,88.710 203.194 C 89.351 203.480,90.185 204.049,90.563 204.460 C 91.031 204.967,91.591 205.259,92.313 205.371 C 93.745 205.594,94.739 206.081,95.556 206.959 C 96.288 207.746,96.916 207.924,100.088 208.244 C 101.887 208.426,102.123 208.516,102.905 209.321 C 103.778 210.220,104.175 210.341,108.036 210.885 C 109.026 211.025,109.265 211.174,109.655 211.899 C 110.164 212.843,110.819 213.128,113.097 213.394 C 114.287 213.533,114.736 213.724,115.440 214.388 C 116.327 215.224,117.056 215.433,120.727 215.902 C 121.772 216.036,122.274 216.260,122.945 216.892 C 123.834 217.731,124.763 217.993,128.287 218.400 C 129.448 218.534,129.837 218.709,130.474 219.384 C 131.018 219.961,131.566 220.255,132.312 220.371 C 133.655 220.580,134.889 221.134,135.304 221.715 C 135.807 222.420,136.756 222.903,138.264 223.221 C 139.309 223.441,139.857 223.730,140.472 224.382 C 140.944 224.882,141.533 225.250,141.864 225.250 C 143.194 225.250,144.100 225.632,145.203 226.659 C 146.353 227.731,146.405 227.750,148.124 227.752 C 151.693 227.755,154.463 228.352,155.403 229.319 C 156.197 230.137,156.349 230.188,158.432 230.336 C 163.824 230.719,164.470 230.859,165.427 231.844 C 166.232 232.672,166.428 232.750,167.716 232.754 C 168.491 232.757,170.137 232.925,171.375 233.128 C 172.613 233.332,174.384 233.499,175.312 233.499 C 176.889 233.500,177.058 233.556,177.907 234.356 C 178.965 235.355,178.415 235.287,189.414 235.769 C 195.056 236.016,197.836 236.014,203.414 235.758 C 207.243 235.583,212.270 235.391,214.587 235.333 L 218.799 235.227 219.688 234.363 L 220.577 233.500 226.101 233.499 C 229.791 233.498,232.372 233.375,233.875 233.128 C 235.113 232.925,236.721 232.757,237.450 232.754 C 238.608 232.751,238.882 232.646,239.625 231.924 L 240.476 231.098 245.883 230.673 L 251.290 230.248 252.061 229.477 C 253.050 228.489,253.706 228.250,255.437 228.250 C 259.159 228.250,261.271 227.753,262.438 226.602 C 263.375 225.679,263.716 225.509,264.949 225.357 C 266.123 225.211,266.516 225.032,267.171 224.340 C 267.608 223.878,268.086 223.500,268.233 223.500 C 268.380 223.500,268.500 223.396,268.500 223.268 C 268.500 223.140,269.140 222.956,269.923 222.858 C 271.066 222.715,271.516 222.516,272.206 221.845 C 272.690 221.376,273.407 220.963,273.846 220.902 C 274.274 220.843,275.545 220.677,276.669 220.534 L 278.714 220.274 280.844 218.162 C 282.290 216.729,283.342 215.911,284.117 215.615 C 284.894 215.318,285.304 214.998,285.400 214.613 C 285.569 213.940,286.411 213.122,287.171 212.892 C 287.518 212.787,287.872 212.322,288.141 211.619 C 288.373 211.010,288.921 210.143,289.357 209.693 C 289.834 209.202,290.281 208.376,290.477 207.625 C 290.657 206.938,290.851 206.192,290.909 205.969 C 290.967 205.745,291.405 205.160,291.882 204.669 C 292.674 203.853,292.750 203.645,292.750 202.300 C 292.750 201.488,292.855 200.498,292.983 200.100 C 293.111 199.701,293.288 198.511,293.377 197.456 C 293.522 195.739,293.624 195.449,294.345 194.706 C 294.834 194.202,295.279 193.383,295.477 192.625 C 295.657 191.938,295.855 191.180,295.917 190.942 C 295.979 190.705,296.968 189.564,298.114 188.407 C 299.383 187.127,300.297 185.976,300.452 185.465 C 300.592 185.003,300.801 184.299,300.916 183.901 C 301.031 183.503,301.345 183.053,301.614 182.901 C 302.309 182.509,302.560 182.232,303.113 181.245 C 303.381 180.767,303.956 180.037,304.390 179.625 C 304.976 179.069,305.292 178.428,305.611 177.151 C 305.933 175.864,306.247 175.231,306.852 174.651 C 307.375 174.150,307.776 173.431,307.983 172.625 C 308.159 171.938,308.351 171.192,308.409 170.969 C 308.467 170.745,308.882 170.183,309.332 169.719 C 310.252 168.771,310.654 167.507,310.890 164.826 C 311.028 163.252,311.148 162.924,311.844 162.201 C 312.880 161.127,313.196 159.978,313.380 156.625 C 313.573 153.100,313.614 152.926,314.447 152.082 C 315.352 151.164,315.749 149.759,315.752 147.471 C 315.756 144.107,315.976 143.102,316.918 142.131 C 317.675 141.352,317.797 141.030,318.031 139.191 C 318.176 138.055,318.343 136.774,318.402 136.346 C 318.464 135.899,318.882 135.183,319.380 134.670 C 320.199 133.828,320.250 133.674,320.255 132.075 C 320.259 130.515,320.549 127.847,320.891 126.211 C 320.967 125.845,321.417 125.148,321.890 124.661 L 322.750 123.775 322.750 116.291 L 322.750 108.807 321.840 107.923 C 321.059 107.164,320.917 106.852,320.838 105.707 C 320.447 100.064,320.211 98.755,319.458 98.055 C 318.583 97.241,318.094 96.245,317.874 94.827 C 317.765 94.128,317.431 93.482,316.870 92.887 C 316.264 92.245,315.982 91.666,315.856 90.811 C 315.679 89.597,315.046 88.432,314.184 87.729 C 313.677 87.316,313.279 85.790,313.261 84.184 C 313.244 82.692,312.692 81.231,311.825 80.382 C 311.099 79.671,310.913 79.226,310.325 76.793 C 310.247 76.472,309.811 75.847,309.354 75.404 C 308.596 74.668,308.430 74.277,307.830 71.821 C 307.632 71.010,299.073 62.523,298.277 62.348 C 296.461 61.949,295.996 61.692,295.605 60.868 C 295.330 60.289,294.836 59.847,294.039 59.467 C 293.207 59.071,290.882 56.929,285.876 51.946 C 281.589 47.678,278.634 44.926,278.251 44.842 C 276.700 44.504,275.224 43.925,274.938 43.542 C 274.121 42.452,273.109 42.094,269.926 41.770 C 268.197 41.595,267.891 41.483,267.206 40.783 C 266.781 40.348,266.139 39.929,265.779 39.851 C 265.419 39.773,264.799 39.605,264.400 39.479 C 263.173 39.091,254.327 39.202,252.750 39.625 C 251.994 39.828,250.773 39.995,250.038 39.997 C 248.853 40.000,248.614 40.093,247.941 40.813 L 247.181 41.625 233.855 41.625 L 220.529 41.625 219.735 40.813 C 219.045 40.107,218.772 39.999,217.658 39.994 C 216.952 39.991,215.925 39.865,215.375 39.714 C 214.825 39.563,212.365 39.366,209.909 39.274 C 205.890 39.125,205.401 39.060,205.030 38.617 C 203.832 37.187,202.987 36.981,197.445 36.775 L 193.016 36.611 192.228 35.805 L 191.441 35.000 183.821 35.000 L 176.201 35.000 175.506 35.743 M210.750 58.749 C 213.294 58.874,216.725 59.040,218.375 59.117 C 223.549 59.361,230.288 60.029,233.500 60.617 C 234.531 60.805,236.106 61.093,237.000 61.255 C 237.894 61.418,239.525 61.611,240.625 61.684 C 241.725 61.757,242.808 61.910,243.031 62.025 C 243.409 62.220,245.524 62.470,251.177 62.990 C 253.191 63.175,256.085 63.850,257.625 64.494 C 257.900 64.609,258.583 64.874,259.142 65.082 C 259.702 65.290,260.939 65.996,261.892 66.651 C 262.845 67.306,264.105 68.168,264.691 68.566 C 265.277 68.964,265.952 69.569,266.191 69.909 C 266.430 70.250,267.244 71.173,268.000 71.960 C 268.756 72.748,269.600 73.713,269.875 74.105 C 270.150 74.496,270.712 75.176,271.125 75.616 C 272.275 76.842,272.684 77.397,272.870 77.986 C 272.965 78.282,273.830 79.335,274.795 80.325 C 275.759 81.315,276.891 82.519,277.311 83.000 C 277.731 83.481,279.239 85.084,280.662 86.562 C 282.085 88.040,283.250 89.353,283.250 89.481 C 283.250 89.610,283.393 89.863,283.569 90.045 C 284.017 90.509,286.500 94.473,286.500 94.723 C 286.500 94.837,286.950 95.904,287.500 97.095 C 288.050 98.285,288.500 99.371,288.500 99.508 C 288.500 99.644,288.906 100.600,289.402 101.631 C 289.898 102.662,290.394 103.870,290.505 104.315 C 291.193 107.092,291.814 109.100,292.203 109.810 C 293.371 111.934,294.548 120.802,293.767 121.583 C 293.620 121.730,293.494 122.418,293.487 123.112 C 293.480 123.807,293.248 125.331,292.972 126.500 C 292.695 127.669,292.376 129.188,292.264 129.875 C 292.152 130.563,291.823 132.194,291.534 133.500 C 291.245 134.806,290.893 136.438,290.750 137.125 C 290.432 138.663,289.995 143.838,289.749 149.000 C 289.442 155.421,288.698 159.486,287.247 162.660 C 286.986 163.229,286.693 164.014,286.596 164.403 C 286.446 164.997,285.533 166.886,284.313 169.125 C 284.164 169.400,283.569 170.581,282.993 171.750 C 281.782 174.204,281.055 175.319,279.844 176.574 C 279.552 176.877,278.744 177.912,278.050 178.875 C 277.355 179.838,276.526 180.840,276.206 181.103 C 274.280 182.685,271.181 185.334,270.619 185.876 C 270.334 186.151,269.787 186.582,269.404 186.833 C 267.217 188.266,261.922 194.052,259.972 197.140 C 259.370 198.093,258.709 199.049,258.502 199.266 C 258.295 199.483,257.791 200.102,257.384 200.643 C 256.152 202.275,253.517 204.750,253.011 204.750 C 252.867 204.750,252.750 204.850,252.750 204.973 C 252.750 205.095,252.497 205.262,252.188 205.342 C 251.878 205.423,251.287 205.802,250.875 206.185 C 249.838 207.148,249.056 207.601,247.799 207.966 C 247.208 208.137,246.661 208.440,246.585 208.639 C 246.509 208.838,246.283 209.000,246.082 209.000 C 245.882 209.000,245.135 209.265,244.421 209.590 C 243.708 209.914,242.619 210.262,242.000 210.362 C 241.381 210.462,240.537 210.755,240.125 211.014 C 239.119 211.645,237.765 212.250,237.359 212.250 C 237.178 212.250,236.966 212.352,236.889 212.477 C 236.812 212.601,236.165 212.784,235.450 212.882 C 234.735 212.980,233.689 213.258,233.125 213.500 C 232.562 213.741,231.150 214.007,229.988 214.090 C 228.826 214.173,227.369 214.350,226.750 214.485 C 220.084 215.935,195.179 215.718,187.625 214.143 C 186.525 213.914,184.556 213.623,183.250 213.497 C 178.870 213.075,170.971 212.148,169.250 211.855 C 167.129 211.494,162.341 209.523,160.075 208.079 C 159.359 207.623,158.607 207.250,158.402 207.250 C 158.197 207.250,157.968 207.150,157.892 207.028 C 157.817 206.905,157.485 206.738,157.154 206.655 C 156.824 206.572,155.741 206.003,154.748 205.390 C 153.754 204.778,152.589 204.202,152.158 204.111 C 151.727 204.020,151.150 203.747,150.875 203.505 C 150.332 203.026,147.221 201.500,146.787 201.500 C 146.640 201.500,146.019 200.966,145.408 200.313 C 144.779 199.641,142.979 198.327,141.268 197.290 C 139.603 196.281,138.102 195.320,137.933 195.156 C 136.568 193.830,131.516 191.500,130.006 191.500 C 129.579 191.500,128.531 191.280,127.677 191.012 C 126.824 190.743,125.056 190.340,123.750 190.115 C 121.144 189.668,119.048 189.039,117.441 188.221 C 117.202 188.099,116.875 188.000,116.714 188.000 C 115.824 188.000,109.549 184.366,108.500 183.242 C 108.431 183.169,107.799 182.744,107.094 182.299 C 105.739 181.442,104.812 180.672,102.639 178.599 C 101.903 177.897,100.914 177.083,100.441 176.791 C 99.306 176.089,96.841 173.175,95.768 171.266 C 94.839 169.615,94.460 169.066,93.500 167.980 C 93.156 167.592,92.594 166.911,92.250 166.468 C 91.906 166.025,91.484 165.521,91.313 165.349 C 91.141 165.177,91.000 164.880,91.000 164.690 C 91.000 164.501,90.481 163.738,89.848 162.995 C 89.214 162.253,88.374 160.982,87.981 160.171 C 87.589 159.360,87.164 158.568,87.038 158.411 C 86.911 158.254,86.735 157.782,86.645 157.363 C 86.556 156.944,86.093 155.954,85.616 155.163 C 85.140 154.372,84.750 153.568,84.750 153.377 C 84.750 153.186,84.650 152.968,84.529 152.893 C 84.407 152.818,84.231 152.242,84.136 151.613 C 84.042 150.985,83.512 149.212,82.959 147.673 C 82.405 146.134,81.753 143.742,81.509 142.357 C 81.265 140.972,80.928 139.583,80.760 139.269 C 79.164 136.286,79.390 120.499,81.092 116.125 C 81.306 115.575,81.706 114.281,81.979 113.250 C 82.725 110.443,83.151 109.028,83.728 107.444 C 84.015 106.657,84.250 105.813,84.251 105.569 C 84.251 105.325,84.463 104.778,84.722 104.354 C 84.980 103.930,85.274 103.199,85.375 102.729 C 85.475 102.259,85.639 101.763,85.738 101.625 C 85.837 101.487,86.112 100.738,86.350 99.960 C 86.588 99.181,87.269 97.820,87.863 96.934 C 88.457 96.048,89.024 95.068,89.123 94.756 C 89.348 94.048,93.407 90.005,94.394 89.506 C 94.796 89.303,95.519 88.897,96.000 88.605 C 96.481 88.313,97.888 87.666,99.125 87.167 C 103.515 85.397,104.139 85.115,105.441 84.312 C 106.165 83.865,106.868 83.500,107.004 83.500 C 107.139 83.500,107.250 83.388,107.250 83.250 C 107.250 83.112,107.381 83.000,107.541 83.000 C 107.887 83.000,110.216 81.555,110.750 81.009 C 111.338 80.408,113.547 78.636,114.369 78.105 C 114.778 77.841,115.622 77.118,116.244 76.499 C 118.203 74.549,119.536 73.750,120.830 73.750 C 121.061 73.750,121.250 73.635,121.250 73.494 C 121.250 73.353,121.546 73.125,121.908 72.988 C 122.269 72.850,122.860 72.529,123.220 72.275 C 123.614 71.996,124.524 71.754,125.500 71.666 C 127.818 71.459,128.838 71.242,129.125 70.893 C 129.262 70.726,130.219 70.386,131.250 70.139 C 132.281 69.891,133.534 69.477,134.034 69.219 C 134.534 68.961,135.117 68.750,135.329 68.750 C 135.541 68.750,135.874 68.590,136.070 68.395 C 136.265 68.199,136.920 67.909,137.525 67.749 C 138.130 67.589,139.131 67.173,139.750 66.824 C 140.944 66.151,141.651 65.924,144.250 65.382 C 145.144 65.195,146.409 64.860,147.061 64.637 C 147.714 64.414,148.951 64.132,149.811 64.011 C 150.671 63.890,151.825 63.664,152.375 63.510 C 152.925 63.355,154.387 63.065,155.625 62.867 C 157.865 62.507,158.408 62.396,161.500 61.669 C 166.705 60.443,172.616 59.765,178.175 59.755 C 179.853 59.752,181.765 59.638,182.425 59.501 C 183.725 59.231,189.929 58.789,196.500 58.499 C 200.698 58.314,202.548 58.346,210.750 58.749 " stroke="none" fill="#7b2609" fill-rule="evenodd"></path><path id="path3" d="M196.500 58.499 C 189.929 58.789,183.725 59.231,182.425 59.501 C 181.765 59.638,179.853 59.752,178.175 59.755 C 172.616 59.765,166.705 60.443,161.500 61.669 C 158.408 62.396,157.865 62.507,155.625 62.867 C 154.387 63.065,152.925 63.355,152.375 63.510 C 151.825 63.664,150.671 63.890,149.811 64.011 C 148.951 64.132,147.714 64.414,147.061 64.637 C 146.409 64.860,145.144 65.195,144.250 65.382 C 141.651 65.924,140.944 66.151,139.750 66.824 C 139.131 67.173,138.130 67.589,137.525 67.749 C 136.920 67.909,136.265 68.199,136.070 68.395 C 135.874 68.590,135.541 68.750,135.329 68.750 C 135.117 68.750,134.534 68.961,134.034 69.219 C 133.534 69.477,132.281 69.891,131.250 70.139 C 130.219 70.386,129.262 70.726,129.125 70.893 C 128.838 71.242,127.818 71.459,125.500 71.666 C 124.524 71.754,123.614 71.996,123.220 72.275 C 122.860 72.529,122.269 72.850,121.908 72.988 C 121.546 73.125,121.250 73.353,121.250 73.494 C 121.250 73.635,121.061 73.750,120.830 73.750 C 119.536 73.750,118.203 74.549,116.244 76.499 C 115.622 77.118,114.778 77.841,114.369 78.105 C 113.547 78.636,111.338 80.408,110.750 81.009 C 110.216 81.555,107.887 83.000,107.541 83.000 C 107.381 83.000,107.250 83.112,107.250 83.250 C 107.250 83.388,107.139 83.500,107.004 83.500 C 106.868 83.500,106.165 83.865,105.441 84.312 C 104.139 85.115,103.515 85.397,99.125 87.167 C 97.888 87.666,96.481 88.313,96.000 88.605 C 95.519 88.897,94.796 89.303,94.394 89.506 C 93.407 90.005,89.348 94.048,89.123 94.756 C 89.024 95.068,88.457 96.048,87.863 96.934 C 87.269 97.820,86.588 99.181,86.350 99.960 C 86.112 100.738,85.837 101.487,85.738 101.625 C 85.639 101.763,85.475 102.259,85.375 102.729 C 85.274 103.199,84.980 103.930,84.722 104.354 C 84.463 104.778,84.251 105.325,84.251 105.569 C 84.250 105.813,84.015 106.657,83.728 107.444 C 83.151 109.028,82.725 110.443,81.979 113.250 C 81.706 114.281,81.306 115.575,81.092 116.125 C 79.390 120.499,79.164 136.286,80.760 139.269 C 80.928 139.583,81.265 140.972,81.509 142.357 C 81.753 143.742,82.405 146.134,82.959 147.673 C 83.512 149.212,84.042 150.985,84.136 151.613 C 84.231 152.242,84.407 152.818,84.529 152.893 C 84.650 152.968,84.750 153.186,84.750 153.377 C 84.750 153.568,85.140 154.372,85.616 155.163 C 86.093 155.954,86.556 156.944,86.645 157.363 C 86.735 157.782,86.911 158.254,87.038 158.411 C 87.164 158.568,87.589 159.360,87.981 160.171 C 88.374 160.982,89.214 162.253,89.848 162.995 C 90.481 163.738,91.000 164.501,91.000 164.690 C 91.000 164.880,91.141 165.177,91.313 165.349 C 91.484 165.521,91.906 166.025,92.250 166.468 C 92.594 166.911,93.156 167.592,93.500 167.980 C 94.460 169.066,94.839 169.615,95.768 171.266 C 96.841 173.175,99.306 176.089,100.441 176.791 C 100.914 177.083,101.903 177.897,102.639 178.599 C 104.812 180.672,105.739 181.442,107.094 182.299 C 107.799 182.744,108.431 183.169,108.500 183.242 C 109.549 184.366,115.824 188.000,116.714 188.000 C 116.875 188.000,117.202 188.099,117.441 188.221 C 119.048 189.039,121.144 189.668,123.750 190.115 C 125.056 190.340,126.824 190.743,127.677 191.012 C 128.531 191.280,129.579 191.500,130.006 191.500 C 131.516 191.500,136.568 193.830,137.933 195.156 C 138.102 195.320,139.603 196.281,141.268 197.290 C 142.979 198.327,144.779 199.641,145.408 200.313 C 146.019 200.966,146.640 201.500,146.787 201.500 C 147.221 201.500,150.332 203.026,150.875 203.505 C 151.150 203.747,151.727 204.020,152.158 204.111 C 152.589 204.202,153.754 204.778,154.748 205.390 C 155.741 206.003,156.824 206.572,157.154 206.655 C 157.485 206.738,157.817 206.905,157.892 207.028 C 157.968 207.150,158.197 207.250,158.402 207.250 C 158.607 207.250,159.359 207.623,160.075 208.079 C 162.341 209.523,167.129 211.494,169.250 211.855 C 170.971 212.148,178.870 213.075,183.250 213.497 C 184.556 213.623,186.525 213.914,187.625 214.143 C 195.179 215.718,220.084 215.935,226.750 214.485 C 227.369 214.350,228.826 214.173,229.988 214.090 C 231.150 214.007,232.562 213.741,233.125 213.500 C 233.689 213.258,234.735 212.980,235.450 212.882 C 236.165 212.784,236.812 212.601,236.889 212.477 C 236.966 212.352,237.178 212.250,237.359 212.250 C 237.765 212.250,239.119 211.645,240.125 211.014 C 240.537 210.755,241.381 210.462,242.000 210.362 C 242.619 210.262,243.708 209.914,244.421 209.590 C 245.135 209.265,245.882 209.000,246.082 209.000 C 246.283 209.000,246.509 208.838,246.585 208.639 C 246.661 208.440,247.208 208.137,247.799 207.966 C 249.056 207.601,249.838 207.148,250.875 206.185 C 251.287 205.802,251.878 205.423,252.188 205.342 C 252.497 205.262,252.750 205.095,252.750 204.973 C 252.750 204.850,252.867 204.750,253.011 204.750 C 253.517 204.750,256.152 202.275,257.384 200.643 C 257.791 200.102,258.295 199.483,258.502 199.266 C 258.709 199.049,259.370 198.093,259.972 197.140 C 261.922 194.052,267.217 188.266,269.404 186.833 C 269.787 186.582,270.334 186.151,270.619 185.876 C 271.181 185.334,274.280 182.685,276.206 181.103 C 276.526 180.840,277.355 179.838,278.050 178.875 C 278.744 177.912,279.552 176.877,279.844 176.574 C 281.055 175.319,281.782 174.204,282.993 171.750 C 283.569 170.581,284.164 169.400,284.313 169.125 C 285.533 166.886,286.446 164.997,286.596 164.403 C 286.693 164.014,286.986 163.229,287.247 162.660 C 288.698 159.486,289.442 155.421,289.749 149.000 C 289.995 143.838,290.432 138.663,290.750 137.125 C 290.893 136.438,291.245 134.806,291.534 133.500 C 291.823 132.194,292.152 130.563,292.264 129.875 C 292.376 129.188,292.695 127.669,292.972 126.500 C 293.248 125.331,293.480 123.807,293.487 123.112 C 293.494 122.418,293.620 121.730,293.767 121.583 C 294.548 120.802,293.371 111.934,292.203 109.810 C 291.814 109.100,291.193 107.092,290.505 104.315 C 290.394 103.870,289.898 102.662,289.402 101.631 C 288.906 100.600,288.500 99.644,288.500 99.508 C 288.500 99.371,288.050 98.285,287.500 97.095 C 286.950 95.904,286.500 94.837,286.500 94.723 C 286.500 94.473,284.017 90.509,283.569 90.045 C 283.393 89.863,283.250 89.610,283.250 89.481 C 283.250 89.353,282.085 88.040,280.662 86.562 C 279.239 85.084,277.731 83.481,277.311 83.000 C 276.891 82.519,275.759 81.315,274.795 80.325 C 273.830 79.335,272.965 78.282,272.870 77.986 C 272.684 77.397,272.275 76.842,271.125 75.616 C 270.712 75.176,270.150 74.496,269.875 74.105 C 269.600 73.713,268.756 72.748,268.000 71.960 C 267.244 71.173,266.430 70.250,266.191 69.909 C 265.952 69.569,265.277 68.964,264.691 68.566 C 264.105 68.168,262.845 67.306,261.892 66.651 C 260.939 65.996,259.702 65.290,259.142 65.082 C 258.583 64.874,257.900 64.609,257.625 64.494 C 256.085 63.850,253.191 63.175,251.177 62.990 C 245.524 62.470,243.409 62.220,243.031 62.025 C 242.808 61.910,241.725 61.757,240.625 61.684 C 239.525 61.611,237.894 61.418,237.000 61.255 C 236.106 61.093,234.531 60.805,233.500 60.617 C 230.288 60.029,223.549 59.361,218.375 59.117 C 216.725 59.040,213.294 58.874,210.750 58.749 C 202.548 58.346,200.698 58.314,196.500 58.499 M207.875 71.636 C 208.975 71.843,211.113 72.177,212.625 72.380 C 214.137 72.582,216.219 72.862,217.250 73.001 C 218.281 73.140,219.575 73.255,220.125 73.256 C 221.102 73.259,224.361 73.913,228.875 75.011 C 230.897 75.503,236.244 77.831,236.458 78.313 C 236.504 78.416,236.637 78.500,236.753 78.500 C 236.869 78.500,237.787 78.878,238.794 79.339 C 240.360 80.056,240.997 80.200,243.194 80.329 C 244.688 80.417,246.049 80.633,246.444 80.845 C 246.819 81.045,248.306 81.341,249.750 81.503 C 252.330 81.791,254.132 82.165,254.625 82.515 C 254.762 82.612,255.261 82.775,255.733 82.876 C 256.893 83.124,260.179 84.983,261.360 86.059 C 261.626 86.301,261.919 86.500,262.010 86.500 C 262.101 86.500,262.505 86.809,262.906 87.188 C 263.308 87.566,264.024 88.156,264.496 88.500 C 267.193 90.460,273.497 97.763,273.501 98.931 C 273.501 99.038,273.904 99.793,274.397 100.610 C 274.889 101.426,275.472 102.551,275.691 103.110 C 275.911 103.668,276.160 104.181,276.244 104.250 C 276.328 104.319,276.888 105.162,277.487 106.125 C 278.086 107.088,278.656 107.931,278.754 108.000 C 278.852 108.069,279.011 108.406,279.107 108.750 C 279.203 109.094,279.387 109.628,279.516 109.938 C 279.645 110.247,279.856 110.753,279.985 111.063 C 280.115 111.372,280.329 112.131,280.462 112.750 C 280.595 113.369,280.869 114.494,281.072 115.250 C 281.967 118.583,281.731 124.978,280.372 134.250 C 280.004 136.758,279.873 137.975,279.265 144.500 C 279.118 146.081,278.893 147.656,278.766 148.000 C 278.639 148.344,278.483 149.750,278.419 151.125 C 278.219 155.448,276.804 159.011,273.875 162.571 C 272.752 163.936,271.500 165.795,271.500 166.097 C 271.500 166.300,271.275 166.538,271.000 166.625 C 270.725 166.712,270.500 166.864,270.500 166.963 C 270.500 167.197,269.586 168.362,268.537 169.465 C 268.076 169.949,266.647 171.815,265.361 173.610 C 264.076 175.406,262.682 177.269,262.265 177.750 C 261.847 178.231,261.420 178.738,261.315 178.876 C 261.211 179.014,260.649 179.753,260.068 180.517 C 259.486 181.282,258.474 182.288,257.818 182.754 C 257.162 183.219,256.569 183.661,256.500 183.737 C 256.150 184.123,250.699 186.589,247.625 187.752 C 244.154 189.065,241.044 190.506,240.439 191.082 C 240.266 191.246,239.604 191.717,238.967 192.128 C 238.330 192.539,237.186 193.438,236.425 194.125 C 234.401 195.952,233.731 196.500,233.518 196.500 C 233.413 196.500,233.033 196.754,232.672 197.064 C 232.069 197.582,229.635 198.893,227.500 199.851 C 227.019 200.067,226.006 200.368,225.250 200.522 C 224.494 200.675,223.425 200.903,222.875 201.028 C 221.958 201.237,219.866 201.590,215.821 202.218 C 214.967 202.351,214.143 202.536,213.991 202.630 C 213.254 203.086,201.652 202.770,200.257 202.256 C 199.504 201.979,198.323 201.681,197.632 201.593 C 196.941 201.505,196.262 201.348,196.125 201.244 C 195.701 200.923,191.449 199.453,190.062 199.149 C 189.340 198.990,188.546 198.695,188.299 198.493 C 187.375 197.738,186.061 197.251,183.875 196.853 C 182.637 196.627,181.137 196.225,180.540 195.960 C 179.399 195.451,179.094 195.377,174.500 194.497 C 172.919 194.194,171.148 193.733,170.565 193.473 C 169.982 193.213,169.442 193.000,169.364 193.000 C 169.197 193.000,167.474 192.246,165.375 191.254 C 161.660 189.498,160.414 188.986,157.230 187.905 C 155.362 187.271,153.281 186.679,152.605 186.590 C 151.928 186.500,151.094 186.243,150.750 186.017 C 150.406 185.792,149.450 185.399,148.625 185.145 C 146.375 184.451,144.478 183.761,143.763 183.378 C 143.412 183.189,142.461 182.724,141.650 182.345 C 140.839 181.965,139.883 181.414,139.525 181.119 C 139.168 180.825,138.509 180.372,138.063 180.113 C 137.616 179.854,137.250 179.571,137.250 179.484 C 137.250 179.322,136.238 178.864,134.250 178.126 C 133.631 177.896,132.767 177.436,132.329 177.104 C 131.891 176.772,131.313 176.500,131.043 176.500 C 130.774 176.500,130.490 176.334,130.412 176.131 C 130.164 175.485,127.280 174.390,125.077 174.107 C 124.363 174.015,123.576 173.756,123.327 173.532 C 122.838 173.091,120.514 171.929,119.500 171.619 C 118.688 171.371,113.856 166.925,110.084 162.957 C 109.649 162.500,108.539 161.450,107.617 160.625 C 105.437 158.674,103.250 156.455,103.250 156.194 C 103.250 156.081,102.819 155.513,102.292 154.932 C 101.269 153.804,98.185 148.792,97.872 147.750 C 97.676 147.095,97.096 145.742,96.096 143.600 C 95.768 142.899,95.500 142.052,95.500 141.718 C 95.500 141.384,95.181 140.496,94.791 139.743 C 90.492 131.446,90.921 118.414,95.725 111.375 C 96.288 110.550,96.749 109.796,96.749 109.700 C 96.750 109.603,97.144 109.142,97.625 108.674 C 98.106 108.207,98.500 107.720,98.500 107.592 C 98.500 107.465,98.751 107.195,99.057 106.993 C 99.363 106.790,100.516 105.741,101.619 104.661 C 102.722 103.580,104.019 102.425,104.500 102.094 C 104.981 101.762,105.656 101.138,106.000 100.706 C 107.426 98.916,108.839 97.619,111.250 95.886 C 112.006 95.342,112.956 94.583,113.360 94.199 C 113.764 93.814,114.242 93.500,114.422 93.500 C 114.603 93.500,114.750 93.395,114.750 93.267 C 114.750 93.139,114.955 92.969,115.206 92.889 C 115.457 92.809,115.885 92.536,116.158 92.282 C 116.981 91.515,118.814 90.590,119.876 90.405 C 120.425 90.309,121.325 90.017,121.875 89.756 C 122.425 89.494,123.381 89.169,124.000 89.034 C 126.031 88.588,129.360 87.758,130.143 87.502 C 130.565 87.363,131.051 87.250,131.223 87.250 C 131.395 87.250,132.680 86.807,134.080 86.265 C 135.480 85.723,137.437 84.975,138.429 84.604 C 139.422 84.232,140.444 83.732,140.700 83.493 C 140.957 83.254,141.551 82.978,142.021 82.880 C 142.863 82.704,146.970 81.181,147.804 80.736 C 148.040 80.610,148.884 80.433,149.679 80.343 C 150.474 80.253,151.763 79.860,152.543 79.470 C 153.324 79.081,154.449 78.694,155.043 78.612 C 155.638 78.529,156.350 78.367,156.625 78.253 C 157.496 77.890,159.705 77.250,160.084 77.250 C 160.285 77.250,161.045 76.849,161.773 76.359 C 162.501 75.870,163.666 75.352,164.361 75.209 C 165.056 75.066,166.075 74.848,166.625 74.725 C 168.935 74.205,172.057 73.780,174.750 73.618 C 176.331 73.523,177.766 73.330,177.939 73.191 C 178.132 73.034,178.756 73.009,179.564 73.126 C 182.027 73.482,189.593 73.095,191.718 72.505 C 192.217 72.366,193.382 72.252,194.308 72.251 C 195.233 72.251,196.752 72.139,197.683 72.002 C 199.631 71.717,203.412 71.345,204.875 71.294 C 205.425 71.275,206.775 71.429,207.875 71.636 " stroke="none" fill="#ba6523" fill-rule="evenodd"></path></g></svg>