<svg id="svg" version="1.1" width="400" height="560" viewBox="0 0 400 560" xmlns="http://www.w3.org/2000/svg" xmlns:xlink="http://www.w3.org/1999/xlink"><g id="svgg"><path id="path0" d="M174.700 25.433 C 174.572 25.562,173.147 25.832,171.533 26.034 C 169.793 26.252,168.187 26.706,167.584 27.150 C 166.589 27.884,165.374 28.148,160.677 28.651 C 158.655 28.867,158.216 29.075,157.277 30.258 C 156.524 31.208,155.757 31.688,154.726 31.855 C 153.915 31.987,152.848 32.523,152.356 33.047 C 151.863 33.571,151.187 34.000,150.852 34.000 C 150.517 34.000,149.063 35.232,147.621 36.737 C 146.031 38.399,144.528 39.590,143.800 39.769 C 142.076 40.191,141.223 41.116,140.942 42.870 C 140.762 43.999,140.420 44.539,139.650 44.908 C 139.074 45.183,138.332 45.977,138.002 46.671 C 137.406 47.921,136.190 49.368,134.289 51.091 C 133.696 51.628,133.201 52.634,133.043 53.619 C 132.822 55.006,132.210 55.826,129.031 59.000 C 125.922 62.103,125.234 63.017,125.012 64.329 C 124.860 65.227,124.320 66.311,123.765 66.833 C 123.226 67.339,122.518 68.652,122.192 69.751 C 121.866 70.851,121.262 72.121,120.851 72.575 C 120.088 73.417,119.819 74.949,119.235 81.778 C 119.051 83.929,118.740 85.420,118.456 85.515 C 117.711 85.763,116.800 87.832,116.798 89.280 C 116.795 91.076,116.082 93.510,115.449 93.889 C 114.683 94.347,114.000 96.657,114.000 98.790 C 114.000 100.240,113.787 100.861,113.053 101.550 C 112.214 102.338,112.076 102.925,111.836 106.720 C 111.456 112.740,110.891 115.634,109.888 116.711 C 109.187 117.465,108.999 118.304,108.802 121.572 C 108.597 124.960,108.413 125.740,107.507 127.061 C 106.926 127.907,106.326 129.140,106.174 129.800 C 106.022 130.460,105.533 131.605,105.089 132.344 C 104.644 133.083,104.128 134.504,103.941 135.501 C 103.510 137.811,103.130 138.245,101.275 138.542 C 100.336 138.692,99.329 139.239,98.608 139.991 C 97.782 140.854,97.076 141.200,96.142 141.200 C 94.987 141.200,94.103 141.931,88.596 147.436 C 82.957 153.073,82.154 153.730,80.243 154.273 C 78.682 154.717,77.948 155.180,77.441 156.038 C 76.853 157.033,76.509 157.200,75.039 157.200 C 72.944 157.200,72.000 158.091,72.000 160.070 C 72.000 161.833,70.990 162.800,69.149 162.800 C 67.384 162.800,66.800 163.395,66.800 165.194 C 66.800 167.263,63.246 170.800,61.167 170.800 C 59.383 170.800,58.800 171.391,58.800 173.199 C 58.800 174.493,58.399 175.031,54.804 178.556 C 51.465 181.830,50.712 182.800,50.220 184.459 C 49.798 185.877,49.075 186.979,47.682 188.322 C 45.548 190.379,44.800 191.527,44.800 192.743 C 44.800 193.181,44.331 194.095,43.759 194.776 C 43.186 195.456,42.464 196.856,42.154 197.886 C 41.844 198.916,41.249 200.128,40.831 200.579 C 40.413 201.031,39.876 202.139,39.636 203.041 C 39.397 203.944,38.751 205.168,38.200 205.762 C 37.570 206.442,37.198 207.315,37.196 208.121 C 37.187 210.551,36.693 212.399,35.790 213.373 C 33.748 215.577,33.627 238.015,35.648 239.843 C 36.626 240.729,36.606 242.090,35.600 243.000 C 34.364 244.119,34.513 246.657,35.900 248.104 L 37.000 249.252 37.200 258.804 C 37.394 268.069,37.427 268.382,38.300 269.194 C 39.470 270.282,39.436 271.109,38.168 272.433 L 37.136 273.511 38.568 274.603 C 39.771 275.520,40.000 275.940,40.000 277.227 C 40.000 278.307,40.295 279.077,41.000 279.838 C 41.777 280.676,42.000 281.344,42.000 282.832 C 42.000 285.116,42.477 286.501,43.811 288.086 C 44.610 289.035,44.800 289.700,44.800 291.542 C 44.800 293.798,45.185 294.728,46.881 296.570 C 47.271 296.994,47.703 297.984,47.840 298.770 C 48.017 299.781,48.773 300.904,50.417 302.600 C 52.099 304.334,52.820 305.416,53.017 306.501 C 53.231 307.682,54.047 308.769,56.835 311.592 C 58.926 313.709,60.481 315.636,60.627 316.291 C 61.090 318.368,61.195 318.600,62.212 319.779 C 62.771 320.427,63.419 321.717,63.653 322.646 C 63.887 323.574,64.511 324.740,65.039 325.237 C 65.568 325.733,66.000 326.446,66.000 326.821 C 66.000 327.765,67.137 330.400,67.545 330.400 C 67.728 330.400,68.201 331.116,68.596 331.991 C 68.991 332.866,69.632 333.683,70.021 333.807 C 70.410 333.930,71.204 334.654,71.785 335.416 C 72.366 336.177,73.102 336.800,73.420 336.800 C 73.739 336.800,74.960 337.768,76.133 338.950 C 78.490 341.326,79.522 342.000,80.803 342.000 C 81.875 342.000,86.137 346.009,87.454 348.257 C 87.988 349.168,88.780 350.006,89.213 350.119 C 89.772 350.266,90.000 350.668,90.000 351.509 C 90.000 352.424,90.591 353.306,92.600 355.385 C 94.030 356.865,95.200 358.265,95.200 358.495 C 95.200 358.726,96.460 360.135,98.000 361.627 C 99.540 363.119,100.800 364.640,100.800 365.008 C 100.800 366.027,102.024 367.878,103.068 368.436 C 103.821 368.839,104.000 369.264,104.000 370.647 C 104.000 372.134,104.184 372.500,105.400 373.427 C 106.170 374.014,106.800 374.745,106.800 375.051 C 106.800 375.357,107.340 376.352,108.000 377.263 C 108.660 378.175,109.200 379.144,109.200 379.418 C 109.200 380.682,116.405 387.200,117.802 387.200 C 118.644 387.200,119.600 388.156,119.600 388.998 C 119.600 390.027,120.354 391.185,122.179 392.960 C 124.390 395.110,124.760 395.872,125.055 398.882 C 125.252 400.894,125.528 401.641,126.428 402.600 C 127.048 403.260,127.728 404.572,127.939 405.516 C 128.149 406.459,128.767 407.676,129.310 408.220 C 129.854 408.763,130.409 409.895,130.543 410.734 C 130.792 412.293,130.890 412.406,141.027 422.853 C 142.767 424.646,143.686 425.942,143.863 426.853 C 144.240 428.796,147.454 431.873,149.612 432.358 C 150.534 432.565,151.772 433.198,152.364 433.765 C 153.205 434.572,153.999 434.850,156.020 435.045 C 158.047 435.240,158.928 435.550,160.129 436.489 C 161.483 437.547,163.912 438.197,167.228 438.387 C 167.353 438.394,168.061 438.940,168.800 439.600 C 169.601 440.315,170.588 440.800,171.241 440.800 C 171.845 440.800,172.852 441.232,173.480 441.761 C 174.108 442.289,175.374 442.924,176.293 443.171 C 177.212 443.419,178.197 443.849,178.482 444.127 C 179.673 445.290,181.048 446.000,182.108 446.000 C 182.800 446.000,183.598 446.388,184.165 447.000 C 184.810 447.696,185.513 448.000,186.479 448.000 C 187.242 448.000,188.842 448.169,190.033 448.376 C 191.225 448.583,193.550 448.960,195.200 449.215 C 196.850 449.469,198.870 450.029,199.689 450.458 C 201.819 451.575,220.631 451.441,221.890 450.300 C 222.315 449.915,223.222 449.600,223.905 449.600 C 224.589 449.600,225.655 449.393,226.274 449.140 C 226.893 448.887,229.461 448.555,231.979 448.402 C 234.911 448.224,236.615 447.955,236.716 447.653 C 237.030 446.709,239.086 446.092,242.836 445.816 C 246.076 445.579,246.847 445.385,247.796 444.570 C 249.083 443.463,251.132 442.805,253.300 442.802 C 254.283 442.801,255.086 442.514,255.631 441.969 C 256.088 441.512,257.345 440.876,258.425 440.556 C 259.505 440.235,260.842 439.552,261.397 439.038 C 262.401 438.107,264.230 437.613,266.700 437.604 C 267.744 437.601,268.436 437.161,270.206 435.377 C 271.805 433.765,272.945 432.995,274.353 432.577 C 276.977 431.798,279.797 428.980,280.574 426.361 C 281.078 424.666,282.106 423.469,288.946 416.619 C 293.234 412.324,296.862 408.435,297.007 407.978 C 297.152 407.521,298.161 406.266,299.249 405.189 C 300.337 404.112,301.477 402.636,301.781 401.908 C 302.085 401.179,302.712 400.242,303.173 399.824 C 303.635 399.407,304.124 398.362,304.262 397.504 C 304.407 396.593,305.069 395.275,305.848 394.343 C 306.583 393.463,307.378 392.026,307.613 391.150 C 307.849 390.274,308.388 389.212,308.811 388.789 C 309.234 388.366,309.687 387.521,309.818 386.910 C 310.139 385.410,310.627 384.401,311.635 383.150 C 312.222 382.422,312.581 381.198,312.804 379.162 C 312.982 377.546,313.327 376.158,313.572 376.076 C 314.556 375.748,315.293 373.339,315.542 369.639 C 315.760 366.394,315.939 365.661,316.700 364.900 C 317.697 363.903,317.788 362.505,317.605 351.008 C 317.522 345.758,317.457 345.346,316.558 344.277 C 315.049 342.484,315.081 331.827,316.600 330.400 C 317.522 329.533,317.601 329.179,317.609 325.830 C 317.628 318.549,318.273 312.786,319.177 311.824 C 319.683 311.286,320.000 310.411,320.000 309.553 C 320.000 308.483,320.327 307.840,321.400 306.800 C 322.465 305.768,322.800 305.114,322.800 304.069 C 322.800 303.016,323.128 302.385,324.200 301.374 C 325.263 300.371,325.600 299.729,325.600 298.702 C 325.600 297.722,325.930 297.033,326.800 296.200 C 327.700 295.337,328.000 294.689,328.000 293.603 C 328.000 292.337,328.352 291.813,330.806 289.422 C 332.370 287.899,333.709 286.226,333.830 285.644 C 334.189 283.922,334.579 283.479,336.131 283.029 C 337.059 282.760,338.554 281.667,340.137 280.100 C 342.273 277.986,342.880 277.600,344.069 277.600 C 345.920 277.600,346.800 276.595,346.800 274.483 C 346.800 272.594,347.493 272.000,349.694 272.000 C 351.443 272.000,352.000 271.393,352.000 269.486 C 352.000 268.212,352.253 267.708,353.400 266.692 C 354.484 265.732,354.800 265.145,354.800 264.087 C 354.800 262.942,355.202 262.327,357.302 260.261 C 359.761 257.842,360.800 256.241,360.800 254.869 C 360.800 254.487,361.880 253.106,363.200 251.800 C 365.214 249.807,365.603 249.198,365.617 248.013 C 365.650 245.365,366.300 243.032,367.163 242.458 C 367.784 242.046,368.002 241.476,368.010 240.251 C 368.025 237.661,368.646 235.605,369.768 234.433 C 370.610 233.554,370.800 232.969,370.800 231.252 C 370.800 228.958,371.184 227.951,372.667 226.359 C 373.442 225.527,373.686 224.727,373.883 222.380 C 374.082 220.004,374.308 219.276,375.065 218.575 C 375.919 217.783,376.002 217.366,376.028 213.754 C 376.082 206.331,376.472 203.786,377.764 202.437 L 378.910 201.242 378.944 184.075 L 378.978 166.908 377.754 165.514 C 376.550 164.143,376.525 164.029,376.265 158.560 C 376.014 153.270,375.953 152.965,375.022 152.283 C 374.357 151.795,373.961 151.014,373.785 149.842 C 373.640 148.873,373.086 147.610,372.522 146.959 C 371.177 145.408,370.800 144.323,370.800 141.999 C 370.800 140.406,370.588 139.817,369.638 138.778 C 368.908 137.978,368.381 136.867,368.219 135.788 C 368.078 134.844,367.711 133.975,367.406 133.858 C 366.754 133.608,366.005 131.166,366.002 129.280 C 366.000 127.897,365.024 125.600,364.438 125.600 C 364.251 125.600,363.871 125.054,363.594 124.386 C 363.318 123.719,362.632 122.811,362.070 122.370 C 361.257 121.730,360.991 121.069,360.762 119.128 C 360.580 117.587,360.164 116.306,359.631 115.645 C 358.632 114.405,358.138 113.388,357.826 111.923 C 357.700 111.331,356.451 109.672,355.052 108.238 C 353.066 106.203,352.451 105.282,352.254 104.046 C 352.011 102.527,351.284 101.496,348.390 98.565 C 347.662 97.827,347.073 96.730,346.929 95.842 C 346.758 94.787,346.297 94.057,345.344 93.330 C 344.230 92.481,344.000 92.042,344.000 90.770 C 344.000 89.447,343.700 88.932,341.826 87.044 C 339.534 84.733,338.806 83.079,338.802 80.170 C 338.801 78.968,338.548 78.302,337.841 77.638 C 336.847 76.705,336.494 75.590,336.128 72.229 C 335.989 70.953,335.639 70.036,335.137 69.629 C 334.709 69.283,334.179 68.190,333.958 67.200 C 333.609 65.639,332.868 64.705,328.378 60.167 C 324.663 56.413,323.196 54.660,323.186 53.967 C 323.167 52.689,322.449 51.462,321.100 50.405 C 320.207 49.704,320.000 49.221,320.000 47.839 C 320.000 46.420,319.829 46.043,318.975 45.586 C 318.411 45.285,317.652 44.534,317.288 43.919 C 316.741 42.993,316.354 42.800,315.040 42.800 C 313.599 42.800,313.203 42.541,310.746 40.000 C 308.450 37.626,307.834 37.200,306.694 37.200 C 305.722 37.200,305.031 36.867,304.200 36.000 C 303.347 35.109,302.683 34.799,301.625 34.796 C 299.610 34.790,296.602 33.802,295.627 32.827 C 294.922 32.122,294.304 32.000,291.426 32.000 C 287.628 32.000,286.683 31.738,285.079 30.244 C 284.195 29.420,283.555 29.200,282.043 29.200 C 280.989 29.200,279.244 28.932,278.164 28.604 C 276.711 28.164,274.136 28.008,268.263 28.004 C 260.936 28.000,260.248 27.939,259.309 27.200 C 258.500 26.564,257.669 26.396,255.246 26.382 C 253.571 26.373,251.480 26.105,250.600 25.788 C 248.502 25.033,215.933 24.920,214.126 25.663 C 212.138 26.479,192.187 26.627,189.497 25.845 C 187.304 25.208,175.261 24.872,174.700 25.433 M240.200 41.211 C 246.314 41.901,252.607 43.053,253.852 43.710 C 255.343 44.497,257.904 45.455,260.451 46.177 C 261.469 46.466,263.449 47.246,264.851 47.912 C 266.253 48.577,268.210 49.495,269.200 49.951 C 270.190 50.408,271.498 51.246,272.107 51.814 C 272.716 52.381,273.886 53.163,274.707 53.550 C 275.528 53.938,277.190 55.199,278.400 56.352 C 281.131 58.956,284.777 61.214,293.000 65.395 C 302.806 70.381,304.073 71.422,307.914 77.650 C 308.857 79.178,309.961 80.761,310.368 81.168 C 310.774 81.574,311.831 82.963,312.716 84.254 C 315.073 87.692,319.603 91.722,322.447 92.910 C 324.185 93.636,329.188 98.618,331.800 102.224 C 333.972 105.222,334.162 105.527,335.878 108.800 C 337.466 111.828,339.756 115.312,342.187 118.400 C 347.606 125.282,349.457 128.637,352.627 137.329 C 353.014 138.391,353.632 139.651,353.999 140.129 C 355.356 141.898,358.773 150.982,358.790 152.867 C 358.796 153.453,358.971 153.993,359.179 154.067 C 359.388 154.140,359.839 156.990,360.181 160.400 C 360.523 163.810,360.872 167.140,360.957 167.800 C 362.133 176.982,362.263 190.455,361.247 197.800 C 361.003 199.560,360.538 203.970,360.214 207.600 C 358.449 227.352,353.773 237.400,343.577 243.353 C 341.940 244.309,338.172 246.553,335.205 248.340 C 329.949 251.504,328.046 252.285,320.800 254.248 C 312.878 256.395,309.655 260.414,309.610 268.200 C 309.596 270.620,309.314 274.040,308.984 275.800 C 308.654 277.560,308.222 280.029,308.024 281.286 C 307.826 282.543,307.525 283.798,307.354 284.075 C 307.183 284.351,306.813 289.443,306.533 295.389 C 305.888 309.072,305.581 313.233,305.156 314.057 C 304.970 314.419,304.624 316.489,304.386 318.657 C 304.149 320.826,303.680 324.302,303.345 326.383 C 302.621 330.868,302.536 341.133,303.160 348.509 C 303.838 356.530,302.643 365.529,300.165 371.060 C 299.854 371.754,299.600 372.578,299.600 372.893 C 299.600 375.459,295.824 381.831,290.800 387.745 C 285.732 393.710,284.800 394.880,284.800 395.276 C 284.800 395.486,284.516 395.942,284.168 396.289 C 283.820 396.637,282.266 398.829,280.713 401.161 C 276.647 407.269,273.837 409.828,269.000 411.827 C 267.460 412.463,265.480 413.390,264.600 413.887 C 263.720 414.384,262.780 414.793,262.511 414.795 C 260.956 414.811,256.583 417.392,250.521 421.872 C 248.938 423.042,247.529 424.000,247.389 424.000 C 247.250 424.000,246.205 424.590,245.068 425.312 C 243.931 426.033,242.370 426.963,241.600 427.379 C 240.830 427.794,239.691 428.554,239.069 429.067 C 238.447 429.580,237.649 430.000,237.296 430.000 C 236.942 430.000,235.865 430.381,234.903 430.847 C 232.326 432.094,226.727 433.600,222.400 434.210 C 220.310 434.504,217.586 434.957,216.347 435.217 C 212.556 436.012,202.019 435.246,199.831 434.017 C 199.154 433.637,197.919 433.199,197.088 433.043 C 194.370 432.533,184.355 427.901,181.000 425.601 C 179.007 424.235,175.263 422.000,174.967 422.000 C 174.846 422.000,174.157 421.550,173.436 421.000 C 172.714 420.450,171.861 420.000,171.539 420.000 C 171.217 420.000,169.952 419.397,168.728 418.660 C 167.505 417.924,165.929 417.206,165.227 417.065 C 163.081 416.636,154.816 413.498,155.009 413.186 C 155.108 413.025,154.677 412.680,154.049 412.420 C 150.885 411.110,147.563 406.026,145.802 399.800 C 145.191 397.639,143.564 393.938,142.283 391.792 C 142.017 391.348,141.215 390.428,140.500 389.749 C 139.785 389.069,139.200 388.390,139.200 388.240 C 139.200 387.531,135.819 383.527,133.158 381.083 C 129.861 378.056,128.479 376.362,125.810 372.076 C 124.808 370.468,123.533 368.668,122.976 368.076 C 122.420 367.484,121.437 366.086,120.793 364.970 C 120.148 363.853,119.211 362.474,118.711 361.904 C 116.653 359.565,115.200 357.629,115.200 357.227 C 115.200 356.992,115.031 356.800,114.823 356.800 C 114.616 356.800,113.648 355.765,112.671 354.500 C 110.854 352.147,105.641 346.884,99.618 341.323 C 91.916 334.212,89.419 331.464,86.103 326.451 C 84.847 324.553,83.630 322.802,83.399 322.560 C 83.167 322.318,82.352 321.090,81.589 319.832 C 78.665 315.014,76.114 311.347,74.747 310.000 C 73.406 308.679,68.800 302.371,68.800 301.856 C 68.800 301.725,68.177 300.287,67.416 298.661 C 66.655 297.036,65.650 294.377,65.183 292.753 C 64.716 291.129,64.231 289.440,64.105 289.000 C 63.979 288.560,63.634 287.845,63.338 287.411 C 63.042 286.977,62.800 286.300,62.800 285.907 C 62.800 285.513,62.456 284.428,62.036 283.496 C 61.615 282.563,60.965 280.810,60.590 279.600 C 60.216 278.390,59.687 277.040,59.415 276.600 C 59.142 276.160,58.690 274.810,58.410 273.600 C 58.130 272.390,57.725 270.860,57.510 270.200 C 57.121 269.002,56.671 265.840,56.031 259.800 C 55.844 258.040,55.201 252.820,54.601 248.200 C 53.486 239.607,53.390 229.488,54.405 227.590 C 54.611 227.207,55.237 225.127,55.798 222.968 C 56.359 220.809,57.056 218.763,57.346 218.422 C 58.102 217.531,60.800 211.815,60.800 211.103 C 60.800 210.286,64.342 203.493,66.150 200.845 C 70.065 195.107,74.478 190.658,77.999 188.899 C 79.209 188.294,80.602 187.327,81.095 186.748 C 81.587 186.169,82.644 185.385,83.443 185.006 C 84.242 184.627,86.539 182.735,88.548 180.801 C 94.351 175.214,97.792 172.566,105.343 167.874 C 110.845 164.456,113.940 160.316,116.913 152.400 C 120.982 141.568,120.825 142.290,121.235 132.444 C 121.599 123.725,122.116 120.011,123.394 116.953 C 123.727 116.155,124.000 115.069,124.000 114.540 C 124.000 114.011,124.436 112.188,124.969 110.489 C 125.501 108.790,126.238 106.342,126.605 105.050 C 127.632 101.435,131.736 93.657,133.770 91.473 C 134.756 90.413,135.685 89.153,135.834 88.673 C 135.983 88.193,136.873 86.180,137.812 84.200 C 138.750 82.220,139.733 79.920,139.994 79.088 C 140.256 78.257,141.039 76.722,141.735 75.677 C 142.431 74.632,143.266 73.242,143.592 72.588 C 144.564 70.637,146.020 68.766,148.989 65.653 C 152.670 61.793,152.452 62.040,153.808 60.200 C 154.457 59.320,155.797 57.738,156.786 56.685 C 157.776 55.631,158.753 54.461,158.959 54.085 C 159.554 52.992,163.285 49.722,166.251 47.694 C 166.980 47.195,168.006 46.357,168.532 45.832 C 169.057 45.306,170.503 44.556,171.744 44.165 C 172.985 43.774,174.000 43.324,174.000 43.165 C 174.000 42.493,182.507 42.362,189.600 42.925 C 193.670 43.249,198.170 43.462,199.600 43.400 C 203.585 43.226,209.994 42.485,212.000 41.967 C 215.985 40.938,233.594 40.466,240.200 41.211 " stroke="none" fill="#631605" fill-rule="evenodd"></path><path id="path1" d="M214.600 74.455 C 211.331 74.963,208.906 75.455,207.000 75.996 C 206.120 76.247,204.410 76.690,203.200 76.981 C 201.990 77.273,199.920 77.799,198.600 78.151 C 197.280 78.503,194.490 78.992,192.400 79.238 C 183.088 80.335,181.375 80.686,178.708 82.047 C 176.792 83.024,176.791 83.026,173.087 86.535 C 171.499 88.039,168.855 90.469,167.212 91.935 C 158.393 99.799,157.564 100.943,154.842 109.000 C 153.580 112.736,152.331 116.229,149.862 122.929 C 148.405 126.880,147.345 132.388,146.422 140.800 C 146.169 143.110,145.782 145.925,145.562 147.056 C 145.105 149.405,145.088 154.758,145.514 162.000 C 145.954 169.485,144.504 176.051,141.636 179.555 C 138.012 183.983,135.114 186.712,132.894 187.786 C 131.632 188.396,130.330 189.122,130.000 189.397 C 129.670 189.673,128.770 190.101,128.000 190.348 C 127.230 190.595,125.228 192.031,123.551 193.539 C 120.638 196.160,116.104 199.354,111.800 201.816 C 109.198 203.305,105.613 205.904,104.600 207.037 C 101.559 210.437,98.208 215.550,96.258 219.763 C 95.099 222.269,92.811 225.319,87.939 230.853 C 75.961 244.457,74.653 262.155,84.548 276.740 C 85.347 277.917,86.000 279.065,86.000 279.292 C 86.000 279.518,86.724 280.764,87.610 282.061 C 88.495 283.358,89.558 285.270,89.973 286.310 C 90.387 287.349,91.350 289.460,92.111 291.000 C 92.873 292.540,93.632 294.250,93.797 294.800 C 95.091 299.100,101.166 305.738,106.426 308.600 C 109.385 310.210,113.770 314.207,114.794 316.228 C 115.121 316.873,116.049 318.500,116.856 319.844 C 117.663 321.189,119.076 323.843,119.995 325.742 C 121.454 328.756,122.227 329.744,126.066 333.498 C 134.524 341.768,137.958 345.536,137.989 346.578 C 137.995 346.786,138.428 347.416,138.951 347.978 C 139.474 348.540,140.347 349.810,140.891 350.800 C 142.133 353.061,143.705 355.468,144.888 356.922 C 145.389 357.538,146.520 359.180,147.400 360.569 C 148.280 361.958,149.526 363.883,150.168 364.847 C 150.811 365.811,152.486 368.349,153.890 370.487 C 157.719 376.317,162.239 380.485,169.716 385.081 C 170.862 385.785,172.486 386.840,173.325 387.424 C 177.185 390.116,184.957 393.511,189.800 394.622 C 196.431 396.144,197.723 396.603,201.000 398.606 C 201.880 399.144,202.870 399.697,203.200 399.834 C 203.530 399.972,204.703 400.493,205.806 400.992 C 206.909 401.492,208.889 402.129,210.206 402.408 C 211.523 402.687,213.024 403.176,213.542 403.495 C 215.193 404.509,223.254 404.343,226.200 403.233 C 227.520 402.735,229.171 402.187,229.869 402.013 C 230.568 401.840,231.675 401.316,232.331 400.849 C 232.987 400.382,234.081 400.000,234.762 400.000 C 235.443 400.000,236.000 399.810,236.000 399.578 C 236.000 399.345,236.765 398.800,237.700 398.365 C 238.635 397.931,239.670 397.418,240.000 397.226 C 240.330 397.034,242.325 395.879,244.433 394.660 C 246.541 393.440,248.509 392.150,248.806 391.792 C 249.103 391.434,249.989 390.793,250.773 390.367 C 251.558 389.940,252.556 389.369,252.991 389.096 C 253.426 388.823,255.046 387.814,256.591 386.852 C 258.136 385.891,260.086 384.631,260.924 384.052 C 261.762 383.474,263.539 382.322,264.873 381.494 C 269.034 378.912,270.910 376.927,273.779 372.071 C 275.925 368.439,276.549 366.989,278.889 360.200 L 280.129 356.600 280.434 343.600 C 280.602 336.450,280.930 329.880,281.164 329.000 C 281.397 328.120,281.770 325.870,281.992 324.000 C 282.215 322.130,282.754 317.630,283.190 314.000 C 284.147 306.044,284.189 302.790,283.401 297.682 C 282.044 288.892,281.101 282.429,280.762 279.600 C 280.372 276.344,280.000 274.592,278.979 271.200 C 277.936 267.738,277.739 260.488,278.610 257.687 C 280.491 251.645,285.211 247.522,294.473 243.832 C 295.943 243.246,300.173 241.221,303.873 239.332 C 309.715 236.350,315.667 233.915,319.800 232.819 C 328.994 230.379,334.755 225.151,337.068 217.147 C 339.843 207.548,341.993 187.055,340.881 180.800 C 338.693 168.486,333.507 154.334,327.248 143.602 C 325.902 141.293,324.800 139.146,324.800 138.830 C 324.800 134.388,320.364 126.790,314.171 120.624 C 311.505 117.971,308.896 115.170,308.373 114.400 C 307.850 113.630,307.080 112.640,306.663 112.200 C 306.246 111.760,305.030 110.211,303.962 108.757 C 300.415 103.933,298.314 102.432,286.800 96.507 C 282.070 94.073,276.081 90.991,273.490 89.657 C 270.900 88.324,268.110 87.130,267.290 87.004 C 263.567 86.434,257.646 83.603,251.000 79.216 C 249.273 78.076,247.027 77.078,244.800 76.461 C 244.030 76.248,242.410 75.791,241.200 75.446 C 237.185 74.300,219.770 73.652,214.600 74.455 " stroke="none" fill="#e58221" fill-rule="evenodd"></path><path id="path2" d="M221.254 53.416 C 220.514 53.737,219.124 54.000,218.165 54.000 C 217.207 54.000,215.473 54.416,214.311 54.925 C 213.150 55.434,210.850 56.080,209.200 56.360 C 207.550 56.641,205.120 57.155,203.800 57.504 C 201.894 58.007,199.053 58.144,190.000 58.169 L 178.600 58.200 176.400 59.294 C 173.477 60.748,169.944 62.758,169.200 63.391 C 168.870 63.672,167.700 64.346,166.600 64.890 C 161.983 67.173,159.747 68.483,158.884 69.413 C 158.380 69.956,157.787 70.400,157.567 70.400 C 156.840 70.400,153.139 74.150,152.362 75.675 C 151.942 76.497,151.271 77.491,150.869 77.885 C 150.468 78.278,149.898 79.230,149.604 80.000 C 149.309 80.770,148.828 81.684,148.534 82.031 C 148.240 82.379,148.000 82.877,148.000 83.139 C 148.000 83.401,147.589 84.287,147.086 85.108 C 146.047 86.803,145.117 88.745,144.964 89.535 C 144.907 89.829,144.602 90.369,144.286 90.735 C 143.970 91.101,143.042 92.570,142.223 94.000 C 141.404 95.430,140.301 97.320,139.772 98.200 C 138.817 99.787,136.840 105.373,135.738 109.600 C 135.423 110.810,134.723 112.471,134.182 113.291 C 133.642 114.112,133.200 114.973,133.200 115.205 C 133.200 115.437,132.750 116.515,132.200 117.600 C 131.650 118.685,131.200 120.007,131.200 120.538 C 131.200 121.068,130.930 122.149,130.600 122.938 C 130.270 123.728,129.999 125.325,129.998 126.487 C 129.997 127.649,129.830 129.230,129.629 130.000 C 129.427 130.770,129.150 134.175,129.013 137.568 C 128.876 140.960,128.638 143.930,128.485 144.168 C 127.972 144.965,127.212 147.391,127.206 148.254 C 127.203 148.724,126.931 149.624,126.602 150.254 C 126.274 150.884,126.006 151.760,126.007 152.200 C 126.008 152.640,125.573 154.350,125.040 156.000 C 124.508 157.650,123.766 160.080,123.392 161.400 C 121.707 167.344,117.576 172.368,110.400 177.197 C 108.310 178.603,105.610 180.420,104.400 181.233 C 101.927 182.896,99.800 184.855,97.269 187.800 C 92.339 193.535,86.743 198.700,83.887 200.149 C 81.298 201.463,80.227 202.193,76.295 205.320 C 75.688 205.803,75.092 206.512,74.970 206.894 C 74.849 207.276,74.235 208.103,73.607 208.732 C 70.464 211.875,64.674 227.407,63.318 236.336 C 61.731 246.776,64.695 276.855,67.596 279.756 C 67.818 279.978,67.997 280.439,67.994 280.780 C 67.991 281.121,68.606 282.930,69.361 284.800 C 70.116 286.670,71.311 289.640,72.016 291.400 C 72.722 293.160,73.421 294.690,73.570 294.800 C 73.720 294.910,74.147 295.656,74.520 296.458 C 74.893 297.260,75.828 298.853,76.599 299.998 C 77.370 301.144,78.000 302.128,78.000 302.186 C 78.000 302.245,79.288 303.622,80.861 305.246 C 84.277 308.772,86.996 312.335,88.154 314.800 C 88.619 315.790,89.405 317.168,89.900 317.862 C 90.395 318.556,90.800 319.409,90.800 319.758 C 90.800 320.917,95.337 328.534,97.081 330.304 C 98.027 331.263,98.800 332.216,98.800 332.424 C 98.800 332.631,98.964 332.800,99.164 332.800 C 99.364 332.800,100.421 333.505,101.511 334.368 C 102.602 335.230,104.592 336.489,105.934 337.167 C 108.550 338.487,112.773 342.407,113.856 344.520 C 114.217 345.224,115.004 346.520,115.604 347.400 C 116.204 348.280,117.468 350.440,118.413 352.200 C 121.158 357.314,123.987 360.640,128.509 364.070 C 130.054 365.241,131.877 366.822,132.559 367.582 C 133.242 368.342,134.464 369.602,135.274 370.382 C 136.618 371.674,141.176 378.074,141.217 378.726 C 141.227 378.877,141.992 380.005,142.917 381.233 C 143.843 382.461,145.673 384.891,146.984 386.633 C 148.295 388.375,149.947 390.430,150.654 391.200 C 151.362 391.970,152.430 393.320,153.026 394.200 C 153.622 395.080,154.718 396.510,155.461 397.379 C 156.204 398.247,157.103 399.617,157.458 400.424 C 157.814 401.230,158.628 402.198,159.267 402.576 C 159.905 402.953,161.482 404.287,162.771 405.540 C 164.060 406.794,165.626 408.085,166.252 408.409 C 166.878 408.734,168.540 409.690,169.944 410.534 C 172.794 412.246,181.122 415.652,184.200 416.365 C 185.300 416.619,187.820 417.342,189.800 417.971 C 191.780 418.600,193.940 419.230,194.600 419.372 C 196.416 419.761,203.630 422.020,205.060 422.647 C 205.754 422.951,206.924 423.200,207.661 423.200 C 208.397 423.200,210.226 423.456,211.723 423.770 C 214.443 424.339,222.468 424.100,223.573 423.417 C 224.042 423.127,227.238 422.163,232.293 420.787 C 233.884 420.354,236.744 419.280,238.649 418.400 C 240.554 417.520,242.374 416.800,242.695 416.800 C 243.661 416.800,249.484 413.776,254.844 410.491 C 259.605 407.573,260.876 406.702,267.546 401.794 C 271.254 399.066,276.213 394.337,278.615 391.240 C 279.707 389.831,281.050 388.209,281.600 387.634 C 282.555 386.635,285.301 382.689,286.216 381.000 C 287.348 378.908,288.982 376.140,289.402 375.600 C 289.658 375.270,290.073 374.460,290.323 373.800 C 290.574 373.140,290.990 372.060,291.248 371.400 C 293.163 366.508,294.850 361.471,295.668 358.200 C 296.056 356.652,295.866 346.484,295.344 340.800 C 295.046 337.548,296.578 322.930,297.348 321.685 C 297.449 321.521,297.732 320.040,297.978 318.394 C 298.224 316.747,298.696 313.960,299.027 312.200 C 299.733 308.443,300.481 276.270,300.018 269.585 C 299.461 261.558,302.318 255.495,308.020 252.603 C 308.779 252.218,309.670 251.688,310.000 251.425 C 310.889 250.716,315.406 248.939,318.600 248.041 C 326.968 245.688,329.356 244.761,332.020 242.831 C 332.955 242.154,333.896 241.600,334.111 241.600 C 334.579 241.600,339.886 237.075,343.837 233.306 C 350.663 226.796,353.259 220.959,354.415 209.521 C 354.644 207.254,355.106 203.420,355.440 201.000 C 356.431 193.842,356.345 180.393,355.259 172.600 C 354.769 169.080,354.216 165.030,354.032 163.600 C 353.708 161.091,353.049 158.264,352.400 156.600 C 350.856 152.642,349.285 149.285,348.577 148.430 C 347.431 147.047,344.800 143.262,344.800 142.996 C 344.800 142.879,344.367 142.112,343.837 141.291 C 342.844 139.755,340.290 132.881,339.789 130.400 C 339.447 128.703,335.622 120.687,334.329 118.957 C 333.818 118.273,332.050 115.934,330.400 113.757 C 328.750 111.581,327.101 109.351,326.736 108.800 C 325.719 107.268,322.803 104.309,320.801 102.777 C 319.812 102.019,318.660 101.130,318.240 100.800 C 316.875 99.726,313.051 96.360,310.800 94.253 C 309.590 93.120,307.880 91.660,307.000 91.009 C 306.120 90.357,304.770 89.189,304.000 88.412 C 303.230 87.635,302.150 86.709,301.600 86.354 C 301.050 85.998,299.790 84.971,298.800 84.071 C 297.810 83.171,295.830 81.505,294.400 80.370 C 292.970 79.234,290.881 77.472,289.757 76.453 C 287.148 74.086,281.061 69.587,279.600 68.945 C 279.270 68.800,278.449 68.275,277.777 67.779 C 275.616 66.185,268.179 63.224,266.230 63.182 C 265.774 63.172,263.150 62.401,260.400 61.468 C 256.118 60.016,253.984 59.077,250.800 57.248 C 247.544 55.378,242.451 54.007,238.675 53.986 C 237.314 53.978,235.030 53.715,233.600 53.400 C 230.135 52.638,223.025 52.647,221.254 53.416 M236.800 74.580 C 238.010 74.711,239.990 75.101,241.200 75.446 C 242.410 75.791,244.030 76.248,244.800 76.461 C 247.027 77.078,249.273 78.076,251.000 79.216 C 257.646 83.603,263.567 86.434,267.290 87.004 C 268.110 87.130,270.900 88.324,273.490 89.657 C 276.081 90.991,282.070 94.073,286.800 96.507 C 298.314 102.432,300.415 103.933,303.962 108.757 C 305.030 110.211,306.246 111.760,306.663 112.200 C 307.080 112.640,307.850 113.630,308.373 114.400 C 308.896 115.170,311.505 117.971,314.171 120.624 C 320.326 126.752,321.869 129.212,324.337 136.828 C 324.592 137.614,324.800 138.515,324.800 138.830 C 324.800 139.146,325.902 141.293,327.248 143.602 C 333.507 154.334,338.693 168.486,340.881 180.800 C 341.993 187.055,339.843 207.548,337.068 217.147 C 334.755 225.151,328.994 230.379,319.800 232.819 C 315.667 233.915,309.715 236.350,303.873 239.332 C 300.173 241.221,295.943 243.246,294.473 243.832 C 285.211 247.522,280.491 251.645,278.610 257.687 C 277.739 260.488,277.936 267.738,278.979 271.200 C 280.000 274.592,280.372 276.344,280.762 279.600 C 281.101 282.429,282.044 288.892,283.401 297.682 C 284.189 302.790,284.147 306.044,283.190 314.000 C 282.754 317.630,282.215 322.130,281.992 324.000 C 281.770 325.870,281.397 328.120,281.164 329.000 C 280.930 329.880,280.602 336.450,280.434 343.600 L 280.129 356.600 278.889 360.200 C 276.549 366.989,275.925 368.439,273.779 372.071 C 270.910 376.927,269.034 378.912,264.873 381.494 C 263.539 382.322,261.762 383.474,260.924 384.052 C 260.086 384.631,258.136 385.891,256.591 386.852 C 255.046 387.814,253.426 388.823,252.991 389.096 C 252.556 389.369,251.558 389.940,250.773 390.367 C 249.989 390.793,249.103 391.434,248.806 391.792 C 248.509 392.150,246.541 393.440,244.433 394.660 C 242.325 395.879,240.330 397.034,240.000 397.226 C 239.670 397.418,238.635 397.931,237.700 398.365 C 236.765 398.800,236.000 399.345,236.000 399.578 C 236.000 399.810,235.443 400.000,234.762 400.000 C 234.081 400.000,232.987 400.382,232.331 400.849 C 231.675 401.316,230.568 401.840,229.869 402.013 C 229.171 402.187,227.520 402.735,226.200 403.233 C 223.254 404.343,215.193 404.509,213.542 403.495 C 213.024 403.176,211.523 402.687,210.206 402.408 C 208.889 402.129,206.909 401.492,205.806 400.992 C 204.703 400.493,203.530 399.972,203.200 399.834 C 202.870 399.697,201.880 399.144,201.000 398.606 C 197.723 396.603,196.431 396.144,189.800 394.622 C 184.957 393.511,177.185 390.116,173.325 387.424 C 172.486 386.840,170.862 385.785,169.716 385.081 C 162.239 380.485,157.719 376.317,153.890 370.487 C 152.486 368.349,150.811 365.811,150.168 364.847 C 149.526 363.883,148.280 361.958,147.400 360.569 C 146.520 359.180,145.389 357.538,144.888 356.922 C 143.705 355.468,142.133 353.061,140.891 350.800 C 140.347 349.810,139.474 348.540,138.951 347.978 C 138.428 347.416,137.995 346.786,137.989 346.578 C 137.958 345.536,134.524 341.768,126.066 333.498 C 122.227 329.744,121.454 328.756,119.995 325.742 C 119.076 323.843,117.663 321.189,116.856 319.844 C 116.049 318.500,115.121 316.873,114.794 316.228 C 113.770 314.207,109.385 310.210,106.426 308.600 C 101.166 305.738,95.091 299.100,93.797 294.800 C 93.632 294.250,92.873 292.540,92.111 291.000 C 91.350 289.460,90.387 287.349,89.973 286.310 C 89.558 285.270,88.495 283.358,87.610 282.061 C 86.724 280.764,86.000 279.518,86.000 279.292 C 86.000 279.065,85.347 277.917,84.548 276.740 C 74.653 262.155,75.961 244.457,87.939 230.853 C 92.811 225.319,95.099 222.269,96.258 219.763 C 98.208 215.550,101.559 210.437,104.600 207.037 C 105.613 205.904,109.198 203.305,111.800 201.816 C 116.104 199.354,120.638 196.160,123.551 193.539 C 125.228 192.031,127.230 190.595,128.000 190.348 C 128.770 190.101,129.670 189.673,130.000 189.397 C 130.330 189.122,131.632 188.396,132.894 187.786 C 135.114 186.712,138.012 183.983,141.636 179.555 C 144.504 176.051,145.954 169.485,145.514 162.000 C 145.088 154.758,145.105 149.405,145.562 147.056 C 145.782 145.925,146.169 143.110,146.422 140.800 C 147.345 132.388,148.405 126.880,149.862 122.929 C 152.331 116.229,153.580 112.736,154.842 109.000 C 157.564 100.943,158.393 99.799,167.212 91.935 C 168.855 90.469,171.499 88.039,173.087 86.535 C 176.791 83.026,176.792 83.024,178.708 82.047 C 181.375 80.686,183.088 80.335,192.400 79.238 C 194.490 78.992,197.280 78.503,198.600 78.151 C 199.920 77.799,201.990 77.273,203.200 76.981 C 204.410 76.690,206.120 76.247,207.000 75.996 C 208.906 75.455,211.331 74.963,214.600 74.455 C 217.081 74.069,232.915 74.158,236.800 74.580 " stroke="none" fill="#913b0b" fill-rule="evenodd"></path><path id="path3" d="M217.400 41.212 C 215.420 41.372,212.990 41.712,212.000 41.967 C 209.994 42.485,203.585 43.226,199.600 43.400 C 198.170 43.462,193.670 43.249,189.600 42.925 C 182.507 42.362,174.000 42.493,174.000 43.165 C 174.000 43.324,172.985 43.774,171.744 44.165 C 170.503 44.556,169.057 45.306,168.532 45.832 C 168.006 46.357,166.980 47.195,166.251 47.694 C 163.285 49.722,159.554 52.992,158.959 54.085 C 158.753 54.461,157.776 55.631,156.786 56.685 C 155.797 57.738,154.457 59.320,153.808 60.200 C 152.452 62.040,152.670 61.793,148.989 65.653 C 146.020 68.766,144.564 70.637,143.592 72.588 C 143.266 73.242,142.431 74.632,141.735 75.677 C 141.039 76.722,140.256 78.257,139.994 79.088 C 139.733 79.920,138.750 82.220,137.812 84.200 C 136.873 86.180,135.983 88.193,135.834 88.673 C 135.685 89.153,134.756 90.413,133.770 91.473 C 131.736 93.657,127.632 101.435,126.605 105.050 C 126.238 106.342,125.501 108.790,124.969 110.489 C 124.436 112.188,124.000 114.011,124.000 114.540 C 124.000 115.069,123.727 116.155,123.394 116.953 C 122.116 120.011,121.599 123.725,121.235 132.444 C 120.825 142.290,120.982 141.568,116.913 152.400 C 113.940 160.316,110.845 164.456,105.343 167.874 C 97.792 172.566,94.351 175.214,88.548 180.801 C 86.539 182.735,84.242 184.627,83.443 185.006 C 82.644 185.385,81.587 186.169,81.095 186.748 C 80.602 187.327,79.209 188.294,77.999 188.899 C 74.478 190.658,70.065 195.107,66.150 200.845 C 64.342 203.493,60.800 210.286,60.800 211.103 C 60.800 211.815,58.102 217.531,57.346 218.422 C 57.056 218.763,56.359 220.809,55.798 222.968 C 55.237 225.127,54.611 227.207,54.405 227.590 C 53.390 229.488,53.486 239.607,54.601 248.200 C 55.201 252.820,55.844 258.040,56.031 259.800 C 56.671 265.840,57.121 269.002,57.510 270.200 C 57.725 270.860,58.130 272.390,58.410 273.600 C 58.690 274.810,59.142 276.160,59.415 276.600 C 59.687 277.040,60.216 278.390,60.590 279.600 C 60.965 280.810,61.615 282.563,62.036 283.496 C 62.456 284.428,62.800 285.513,62.800 285.907 C 62.800 286.300,63.042 286.977,63.338 287.411 C 63.634 287.845,63.979 288.560,64.105 289.000 C 64.231 289.440,64.716 291.129,65.183 292.753 C 65.650 294.377,66.655 297.036,67.416 298.661 C 68.177 300.287,68.800 301.725,68.800 301.856 C 68.800 302.371,73.406 308.679,74.747 310.000 C 76.114 311.347,78.665 315.014,81.589 319.832 C 82.352 321.090,83.167 322.318,83.399 322.560 C 83.630 322.802,84.847 324.553,86.103 326.451 C 89.419 331.464,91.916 334.212,99.618 341.323 C 105.641 346.884,110.854 352.147,112.671 354.500 C 113.648 355.765,114.616 356.800,114.823 356.800 C 115.031 356.800,115.200 356.992,115.200 357.227 C 115.200 357.629,116.653 359.565,118.711 361.904 C 119.211 362.474,120.148 363.853,120.793 364.970 C 121.437 366.086,122.420 367.484,122.976 368.076 C 123.533 368.668,124.808 370.468,125.810 372.076 C 128.479 376.362,129.861 378.056,133.158 381.083 C 135.819 383.527,139.200 387.531,139.200 388.240 C 139.200 388.390,139.785 389.069,140.500 389.749 C 141.215 390.428,142.017 391.348,142.283 391.792 C 143.564 393.938,145.191 397.639,145.802 399.800 C 147.563 406.026,150.885 411.110,154.049 412.420 C 154.677 412.680,155.108 413.025,155.009 413.186 C 154.816 413.498,163.081 416.636,165.227 417.065 C 165.929 417.206,167.505 417.924,168.728 418.660 C 169.952 419.397,171.217 420.000,171.539 420.000 C 171.861 420.000,172.714 420.450,173.436 421.000 C 174.157 421.550,174.846 422.000,174.967 422.000 C 175.263 422.000,179.007 424.235,181.000 425.601 C 184.355 427.901,194.370 432.533,197.088 433.043 C 197.919 433.199,199.154 433.637,199.831 434.017 C 202.019 435.246,212.556 436.012,216.347 435.217 C 217.586 434.957,220.310 434.504,222.400 434.210 C 226.727 433.600,232.326 432.094,234.903 430.847 C 235.865 430.381,236.942 430.000,237.296 430.000 C 237.649 430.000,238.447 429.580,239.069 429.067 C 239.691 428.554,240.830 427.794,241.600 427.379 C 242.370 426.963,243.931 426.033,245.068 425.312 C 246.205 424.590,247.250 424.000,247.389 424.000 C 247.529 424.000,248.938 423.042,250.521 421.872 C 256.583 417.392,260.956 414.811,262.511 414.795 C 262.780 414.793,263.720 414.384,264.600 413.887 C 265.480 413.390,267.460 412.463,269.000 411.827 C 273.837 409.828,276.647 407.269,280.713 401.161 C 282.266 398.829,283.820 396.637,284.168 396.289 C 284.516 395.942,284.800 395.486,284.800 395.276 C 284.800 394.880,285.732 393.710,290.800 387.745 C 295.824 381.831,299.600 375.459,299.600 372.893 C 299.600 372.578,299.854 371.754,300.165 371.060 C 302.643 365.529,303.838 356.530,303.160 348.509 C 302.536 341.133,302.621 330.868,303.345 326.383 C 303.680 324.302,304.149 320.826,304.386 318.657 C 304.624 316.489,304.970 314.419,305.156 314.057 C 305.581 313.233,305.888 309.072,306.533 295.389 C 306.813 289.443,307.183 284.351,307.354 284.075 C 307.525 283.798,307.826 282.543,308.024 281.286 C 308.222 280.029,308.654 277.560,308.984 275.800 C 309.314 274.040,309.596 270.620,309.610 268.200 C 309.655 260.414,312.878 256.395,320.800 254.248 C 328.046 252.285,329.949 251.504,335.205 248.340 C 338.172 246.553,341.940 244.309,343.577 243.353 C 353.773 237.400,358.449 227.352,360.214 207.600 C 360.538 203.970,361.003 199.560,361.247 197.800 C 362.263 190.455,362.133 176.982,360.957 167.800 C 360.872 167.140,360.523 163.810,360.181 160.400 C 359.839 156.990,359.388 154.140,359.179 154.067 C 358.971 153.993,358.796 153.453,358.790 152.867 C 358.773 150.982,355.356 141.898,353.999 140.129 C 353.632 139.651,353.014 138.391,352.627 137.329 C 349.457 128.637,347.606 125.282,342.187 118.400 C 339.756 115.312,337.466 111.828,335.878 108.800 C 334.162 105.527,333.972 105.222,331.800 102.224 C 329.188 98.618,324.185 93.636,322.447 92.910 C 319.603 91.722,315.073 87.692,312.716 84.254 C 311.831 82.963,310.774 81.574,310.368 81.168 C 309.961 80.761,308.857 79.178,307.914 77.650 C 304.073 71.422,302.806 70.381,293.000 65.395 C 284.777 61.214,281.131 58.956,278.400 56.352 C 277.190 55.199,275.528 53.938,274.707 53.550 C 273.886 53.163,272.716 52.381,272.107 51.814 C 271.498 51.246,270.190 50.408,269.200 49.951 C 268.210 49.495,266.253 48.577,264.851 47.912 C 263.449 47.246,261.469 46.466,260.451 46.177 C 257.904 45.455,255.343 44.497,253.852 43.710 C 252.607 43.053,246.314 41.901,240.200 41.211 C 236.466 40.790,222.611 40.790,217.400 41.212 M233.600 53.400 C 235.030 53.715,237.314 53.978,238.675 53.986 C 242.451 54.007,247.544 55.378,250.800 57.248 C 253.984 59.077,256.118 60.016,260.400 61.468 C 263.150 62.401,265.774 63.172,266.230 63.182 C 268.179 63.224,275.616 66.185,277.777 67.779 C 278.449 68.275,279.270 68.800,279.600 68.945 C 281.061 69.587,287.148 74.086,289.757 76.453 C 290.881 77.472,292.970 79.234,294.400 80.370 C 295.830 81.505,297.810 83.171,298.800 84.071 C 299.790 84.971,301.050 85.998,301.600 86.354 C 302.150 86.709,303.230 87.635,304.000 88.412 C 304.770 89.189,306.120 90.357,307.000 91.009 C 307.880 91.660,309.590 93.120,310.800 94.253 C 313.051 96.360,316.875 99.726,318.240 100.800 C 318.660 101.130,319.812 102.019,320.801 102.777 C 322.803 104.309,325.719 107.268,326.736 108.800 C 327.101 109.351,328.750 111.581,330.400 113.757 C 332.050 115.934,333.818 118.273,334.329 118.957 C 335.622 120.687,339.447 128.703,339.789 130.400 C 340.290 132.881,342.844 139.755,343.837 141.291 C 344.367 142.112,344.800 142.879,344.800 142.996 C 344.800 143.262,347.431 147.047,348.577 148.430 C 349.285 149.285,350.856 152.642,352.400 156.600 C 353.049 158.264,353.708 161.091,354.032 163.600 C 354.216 165.030,354.769 169.080,355.259 172.600 C 356.345 180.393,356.431 193.842,355.440 201.000 C 355.106 203.420,354.644 207.254,354.415 209.521 C 353.259 220.959,350.663 226.796,343.837 233.306 C 339.886 237.075,334.579 241.600,334.111 241.600 C 333.896 241.600,332.955 242.154,332.020 242.831 C 329.356 244.761,326.968 245.688,318.600 248.041 C 315.406 248.939,310.889 250.716,310.000 251.425 C 309.670 251.688,308.779 252.218,308.020 252.603 C 302.318 255.495,299.461 261.558,300.018 269.585 C 300.481 276.270,299.733 308.443,299.027 312.200 C 298.696 313.960,298.224 316.747,297.978 318.394 C 297.732 320.040,297.449 321.521,297.348 321.685 C 296.578 322.930,295.046 337.548,295.344 340.800 C 295.866 346.484,296.056 356.652,295.668 358.200 C 294.850 361.471,293.163 366.508,291.248 371.400 C 290.990 372.060,290.574 373.140,290.323 373.800 C 290.073 374.460,289.658 375.270,289.402 375.600 C 288.982 376.140,287.348 378.908,286.216 381.000 C 285.301 382.689,282.555 386.635,281.600 387.634 C 281.050 388.209,279.707 389.831,278.615 391.240 C 276.213 394.337,271.254 399.066,267.546 401.794 C 260.876 406.702,259.605 407.573,254.844 410.491 C 249.484 413.776,243.661 416.800,242.695 416.800 C 242.374 416.800,240.554 417.520,238.649 418.400 C 236.744 419.280,233.884 420.354,232.293 420.787 C 227.238 422.163,224.042 423.127,223.573 423.417 C 222.468 424.100,214.443 424.339,211.723 423.770 C 210.226 423.456,208.397 423.200,207.661 423.200 C 206.924 423.200,205.754 422.951,205.060 422.647 C 203.630 422.020,196.416 419.761,194.600 419.372 C 193.940 419.230,191.780 418.600,189.800 417.971 C 187.820 417.342,185.300 416.619,184.200 416.365 C 181.122 415.652,172.794 412.246,169.944 410.534 C 168.540 409.690,166.878 408.734,166.252 408.409 C 165.626 408.085,164.060 406.794,162.771 405.540 C 161.482 404.287,159.905 402.953,159.267 402.576 C 158.628 402.198,157.814 401.230,157.458 400.424 C 157.103 399.617,156.204 398.247,155.461 397.379 C 154.718 396.510,153.622 395.080,153.026 394.200 C 152.430 393.320,151.362 391.970,150.654 391.200 C 149.947 390.430,148.295 388.375,146.984 386.633 C 145.673 384.891,143.843 382.461,142.917 381.233 C 141.992 380.005,141.227 378.877,141.217 378.726 C 141.176 378.074,136.618 371.674,135.274 370.382 C 134.464 369.602,133.242 368.342,132.559 367.582 C 131.877 366.822,130.054 365.241,128.509 364.070 C 123.987 360.640,121.158 357.314,118.413 352.200 C 117.468 350.440,116.204 348.280,115.604 347.400 C 115.004 346.520,114.217 345.224,113.856 344.520 C 112.773 342.407,108.550 338.487,105.934 337.167 C 104.592 336.489,102.602 335.230,101.511 334.368 C 100.421 333.505,99.364 332.800,99.164 332.800 C 98.964 332.800,98.800 332.631,98.800 332.424 C 98.800 332.216,98.027 331.263,97.081 330.304 C 95.337 328.534,90.800 320.917,90.800 319.758 C 90.800 319.409,90.395 318.556,89.900 317.862 C 89.405 317.168,88.619 315.790,88.154 314.800 C 86.996 312.335,84.277 308.772,80.861 305.246 C 79.288 303.622,78.000 302.245,78.000 302.186 C 78.000 302.128,77.370 301.144,76.599 299.998 C 75.828 298.853,74.893 297.260,74.520 296.458 C 74.147 295.656,73.720 294.910,73.570 294.800 C 73.421 294.690,72.722 293.160,72.016 291.400 C 71.311 289.640,70.116 286.670,69.361 284.800 C 68.606 282.930,67.991 281.121,67.994 280.780 C 67.997 280.439,67.818 279.978,67.596 279.756 C 64.695 276.855,61.731 246.776,63.318 236.336 C 64.674 227.407,70.464 211.875,73.607 208.732 C 74.235 208.103,74.849 207.276,74.970 206.894 C 75.092 206.512,75.688 205.803,76.295 205.320 C 80.227 202.193,81.298 201.463,83.887 200.149 C 86.743 198.700,92.339 193.535,97.269 187.800 C 99.800 184.855,101.927 182.896,104.400 181.233 C 105.610 180.420,108.310 178.603,110.400 177.197 C 117.576 172.368,121.707 167.344,123.392 161.400 C 123.766 160.080,124.508 157.650,125.040 156.000 C 125.573 154.350,126.008 152.640,126.007 152.200 C 126.006 151.760,126.274 150.884,126.602 150.254 C 126.931 149.624,127.203 148.724,127.206 148.254 C 127.212 147.391,127.972 144.965,128.485 144.168 C 128.638 143.930,128.876 140.960,129.013 137.568 C 129.150 134.175,129.427 130.770,129.629 130.000 C 129.830 129.230,129.997 127.649,129.998 126.487 C 129.999 125.325,130.270 123.728,130.600 122.938 C 130.930 122.149,131.200 121.068,131.200 120.538 C 131.200 120.007,131.650 118.685,132.200 117.600 C 132.750 116.515,133.200 115.437,133.200 115.205 C 133.200 114.973,133.642 114.112,134.182 113.291 C 134.723 112.471,135.423 110.810,135.738 109.600 C 136.840 105.373,138.817 99.787,139.772 98.200 C 140.301 97.320,141.404 95.430,142.223 94.000 C 143.042 92.570,143.970 91.101,144.286 90.735 C 144.602 90.369,144.907 89.829,144.964 89.535 C 145.117 88.745,146.047 86.803,147.086 85.108 C 147.589 84.287,148.000 83.401,148.000 83.139 C 148.000 82.877,148.240 82.379,148.534 82.031 C 148.828 81.684,149.309 80.770,149.604 80.000 C 149.898 79.230,150.468 78.278,150.869 77.885 C 151.271 77.491,151.942 76.497,152.362 75.675 C 153.139 74.150,156.840 70.400,157.567 70.400 C 157.787 70.400,158.380 69.956,158.884 69.413 C 159.747 68.483,161.983 67.173,166.600 64.890 C 167.700 64.346,168.870 63.672,169.200 63.391 C 169.944 62.758,173.477 60.748,176.400 59.294 L 178.600 58.200 190.000 58.169 C 199.053 58.144,201.894 58.007,203.800 57.504 C 205.120 57.155,207.550 56.641,209.200 56.360 C 210.850 56.080,213.150 55.434,214.311 54.925 C 215.473 54.416,217.207 54.000,218.165 54.000 C 219.124 54.000,220.514 53.737,221.254 53.416 C 223.025 52.647,230.135 52.638,233.600 53.400 " stroke="none" fill="#812606" fill-rule="evenodd"></path></g></svg>