<svg id="svg" version="1.1" width="400" height="720" viewBox="0 0 400 720" xmlns="http://www.w3.org/2000/svg" xmlns:xlink="http://www.w3.org/1999/xlink"><g id="svgg"><path id="path0" d="M152.400 116.040 C 151.850 116.270,149.445 116.563,147.056 116.691 L 142.711 116.925 140.064 118.737 C 137.899 120.220,137.016 120.581,135.209 120.724 C 133.994 120.819,132.820 121.031,132.600 121.194 C 132.380 121.357,131.746 121.598,131.192 121.729 C 130.638 121.861,129.745 122.378,129.209 122.877 C 128.673 123.377,128.046 123.789,127.817 123.793 C 127.446 123.799,122.905 126.667,122.400 127.214 C 122.290 127.333,120.670 128.397,118.800 129.578 C 116.930 130.758,114.639 132.417,113.709 133.262 C 112.779 134.108,111.744 134.800,111.409 134.800 C 111.074 134.800,110.800 134.957,110.800 135.150 C 110.800 135.342,109.660 136.652,108.266 138.059 C 106.872 139.467,105.209 141.424,104.569 142.409 C 103.930 143.394,103.294 144.290,103.156 144.400 C 102.654 144.800,100.894 148.654,100.234 150.800 C 99.862 152.010,99.353 153.360,99.104 153.800 C 98.855 154.240,98.512 155.500,98.342 156.600 C 98.171 157.700,97.836 159.770,97.597 161.200 C 97.358 162.630,97.006 165.690,96.814 168.000 C 96.622 170.310,96.285 172.668,96.065 173.240 C 95.845 173.812,95.548 175.792,95.405 177.640 C 95.262 179.488,94.860 183.430,94.513 186.400 C 93.840 192.157,93.733 207.455,94.336 211.682 C 94.515 212.937,94.525 215.097,94.359 216.482 C 93.916 220.165,94.249 264.538,94.763 270.400 C 95.004 273.150,95.358 277.920,95.550 281.000 C 95.920 286.945,96.935 297.420,97.624 302.400 C 98.524 308.905,99.948 320.746,100.414 325.600 C 101.259 334.399,101.672 337.859,102.084 339.600 C 102.321 340.598,102.566 346.835,102.634 353.600 C 102.723 362.413,102.937 366.911,103.405 369.800 C 103.761 372.000,104.205 374.970,104.390 376.400 C 104.575 377.830,105.193 380.121,105.763 381.492 C 106.334 382.863,106.800 384.167,106.800 384.390 C 106.800 384.614,107.401 386.102,108.136 387.698 C 108.871 389.294,109.596 391.380,109.746 392.334 C 109.897 393.287,110.646 395.356,111.410 396.932 C 112.175 398.508,112.800 400.076,112.800 400.417 C 112.800 402.758,121.907 412.860,132.435 422.200 C 134.493 424.025,137.823 429.160,138.593 431.693 C 138.878 432.632,139.655 434.570,140.320 436.000 C 140.985 437.430,141.851 439.500,142.244 440.600 C 142.637 441.700,143.060 442.690,143.184 442.800 C 143.307 442.910,143.938 444.064,144.585 445.365 C 146.017 448.244,147.309 449.829,148.888 450.646 C 149.544 450.985,151.098 452.301,152.341 453.570 C 153.583 454.839,155.275 456.121,156.100 456.419 C 156.925 456.717,157.600 457.105,157.600 457.280 C 157.600 457.456,157.780 457.600,158.000 457.600 C 158.220 457.600,159.884 458.320,161.698 459.200 C 163.512 460.080,165.195 460.800,165.437 460.800 C 165.679 460.800,167.390 461.700,169.239 462.800 C 171.087 463.900,172.825 464.800,173.100 464.800 C 173.375 464.800,173.600 464.941,173.600 465.114 C 173.600 465.286,174.172 465.765,174.870 466.178 C 175.569 466.591,176.424 467.160,176.770 467.443 C 177.117 467.726,178.472 468.822,179.783 469.879 C 181.094 470.936,182.984 472.623,183.983 473.630 C 184.982 474.636,186.880 476.145,188.200 476.982 C 189.520 477.820,191.256 479.093,192.057 479.813 C 193.416 481.032,199.796 484.400,200.747 484.400 C 201.418 484.400,204.835 485.587,206.695 486.465 C 207.627 486.906,210.091 487.688,212.170 488.202 C 214.248 488.717,216.546 489.407,217.275 489.736 C 218.507 490.291,220.497 490.730,226.000 491.660 C 231.132 492.528,242.467 492.535,247.268 491.673 C 249.761 491.225,252.880 490.679,254.200 490.460 C 255.520 490.240,257.410 489.861,258.400 489.616 C 259.390 489.372,261.550 488.940,263.200 488.656 C 264.850 488.372,266.560 488.003,267.000 487.837 C 267.440 487.671,268.182 487.384,268.648 487.200 C 269.114 487.015,270.374 486.749,271.448 486.607 C 274.923 486.148,280.731 484.791,282.600 484.001 C 283.040 483.814,284.300 483.343,285.400 482.953 C 287.142 482.335,290.208 480.649,290.800 479.983 C 290.910 479.859,291.691 479.239,292.536 478.604 C 293.381 477.969,294.790 476.393,295.668 475.100 C 296.545 473.808,297.519 472.652,297.832 472.532 C 298.144 472.413,298.400 472.092,298.400 471.819 C 298.400 471.547,298.851 470.801,299.402 470.162 C 299.954 469.523,300.506 468.685,300.629 468.300 C 300.753 467.915,301.022 467.600,301.227 467.600 C 301.432 467.600,301.600 467.412,301.600 467.183 C 301.600 466.741,301.655 466.668,303.811 464.255 C 304.570 463.405,305.075 462.522,304.934 462.293 C 304.792 462.064,304.868 461.995,305.102 462.139 C 305.559 462.422,306.471 460.644,309.993 452.600 C 310.185 452.160,310.635 450.810,310.993 449.600 C 311.350 448.390,311.830 447.061,312.058 446.647 C 312.615 445.637,312.580 417.743,312.018 414.845 C 311.788 413.660,311.600 411.895,311.600 410.923 C 311.600 409.950,311.428 408.400,311.218 407.477 C 310.769 405.512,309.860 400.567,309.218 396.600 C 308.969 395.060,308.394 392.720,307.941 391.400 C 307.488 390.080,306.956 388.190,306.758 387.200 C 306.560 386.210,306.056 384.500,305.638 383.400 C 304.304 379.895,302.811 372.227,302.055 365.000 C 301.463 359.343,300.866 353.104,300.581 349.600 C 300.447 347.950,300.006 345.610,299.601 344.400 C 299.195 343.190,298.740 341.390,298.590 340.400 C 298.440 339.410,298.048 337.610,297.721 336.400 C 297.393 335.190,296.874 333.120,296.566 331.800 C 296.259 330.480,295.810 328.680,295.569 327.800 C 295.328 326.920,294.883 325.210,294.581 324.000 C 293.688 320.425,292.113 314.790,291.228 312.000 C 290.483 309.656,286.550 301.293,285.961 300.800 C 285.829 300.690,284.935 299.340,283.973 297.800 C 283.011 296.260,281.989 294.757,281.701 294.460 C 281.413 294.163,280.934 293.338,280.637 292.627 C 280.340 291.915,279.490 290.521,278.748 289.527 C 276.697 286.778,273.893 281.853,270.935 275.800 C 270.369 274.643,270.033 273.995,269.219 272.500 C 269.010 272.115,268.201 270.450,267.421 268.800 C 265.933 265.648,264.363 262.745,263.963 262.402 C 263.833 262.291,263.397 261.300,262.994 260.200 C 262.592 259.100,262.146 258.020,262.003 257.800 C 261.861 257.580,261.547 256.680,261.306 255.800 C 261.065 254.920,260.659 253.480,260.405 252.600 C 259.608 249.848,258.816 245.085,258.808 243.000 C 258.804 241.900,258.545 239.560,258.232 237.800 C 257.920 236.040,257.356 232.620,256.981 230.200 C 256.605 227.780,255.871 224.867,255.349 223.726 C 254.827 222.585,254.400 221.353,254.400 220.987 C 254.400 220.622,254.066 219.846,253.657 219.262 C 251.535 216.228,250.357 213.375,249.010 208.000 C 248.651 206.570,248.007 204.637,247.579 203.704 C 247.151 202.772,246.800 201.905,246.800 201.779 C 246.800 201.652,246.355 200.575,245.810 199.385 C 245.266 198.195,244.696 196.722,244.543 196.111 C 244.132 194.465,241.619 190.488,239.000 187.339 C 238.780 187.074,235.270 183.408,231.200 179.193 C 227.130 174.977,223.280 170.689,222.644 169.664 C 222.008 168.639,221.378 167.710,221.244 167.600 C 221.110 167.490,220.385 166.230,219.632 164.800 C 218.880 163.370,217.845 161.691,217.332 161.069 C 216.820 160.447,216.400 159.716,216.400 159.445 C 216.400 159.173,216.076 158.602,215.680 158.175 C 215.284 157.749,214.615 156.815,214.194 156.100 C 213.772 155.385,213.286 154.800,213.114 154.800 C 212.941 154.800,212.800 154.526,212.800 154.191 C 212.800 153.857,211.945 152.712,210.900 151.647 C 209.338 150.055,207.505 147.924,206.400 146.413 C 205.994 145.859,200.083 141.317,198.567 140.395 C 197.705 139.871,196.910 139.337,196.800 139.207 C 196.592 138.962,193.218 136.760,190.800 135.289 C 190.030 134.821,188.893 133.794,188.274 133.007 C 187.654 132.221,186.394 131.105,185.474 130.529 C 184.553 129.952,183.710 129.372,183.600 129.239 C 183.490 129.107,182.320 128.190,181.000 127.202 C 179.680 126.214,177.700 124.527,176.600 123.454 C 175.500 122.380,173.843 121.159,172.918 120.740 C 171.992 120.321,171.002 119.758,170.718 119.489 C 169.840 118.660,167.231 117.600,166.066 117.600 C 165.458 117.600,164.745 117.385,164.481 117.121 C 164.214 116.854,162.101 116.508,159.701 116.338 C 157.336 116.170,154.950 115.941,154.400 115.828 C 153.850 115.715,152.950 115.811,152.400 116.040 M163.941 160.933 L 166.000 161.967 166.060 160.883 L 166.120 159.800 166.287 160.900 C 166.442 161.929,166.581 162.000,168.427 162.000 C 170.081 162.000,170.400 162.120,170.400 162.741 C 170.400 163.745,172.617 166.000,173.603 166.000 C 174.059 166.000,174.400 166.268,174.400 166.625 C 174.400 166.992,175.225 167.613,176.391 168.125 C 177.663 168.684,178.385 169.250,178.391 169.692 C 178.396 170.089,178.818 170.490,179.379 170.630 C 179.917 170.766,180.630 171.291,180.962 171.799 C 181.295 172.306,182.693 173.284,184.069 173.971 C 185.446 174.659,186.938 175.555,187.386 175.961 C 187.834 176.367,189.131 177.002,190.269 177.372 C 191.407 177.741,192.539 178.286,192.785 178.582 C 193.031 178.878,194.530 179.536,196.116 180.043 C 197.702 180.551,199.509 181.379,200.131 181.883 C 200.753 182.387,201.518 182.800,201.831 182.800 C 202.144 182.800,202.400 182.960,202.400 183.157 C 202.400 183.353,202.805 183.625,203.300 183.761 C 203.795 183.897,205.253 184.990,206.540 186.190 C 207.827 187.390,209.195 188.472,209.581 188.594 C 209.967 188.717,210.606 189.488,211.000 190.308 C 211.395 191.129,211.897 192.153,212.115 192.585 C 212.334 193.017,213.114 195.052,213.849 197.108 C 214.584 199.165,215.450 201.421,215.775 202.124 C 216.099 202.826,216.720 204.750,217.154 206.400 C 219.048 213.603,220.810 218.038,223.033 221.200 C 223.729 222.190,224.435 223.450,224.601 224.000 C 225.088 225.614,226.246 227.710,227.361 229.000 C 227.979 229.714,228.400 230.686,228.401 231.400 C 228.402 232.060,229.094 233.965,229.939 235.633 C 230.783 237.301,231.579 239.315,231.707 240.107 C 231.836 240.900,232.495 242.682,233.171 244.068 C 233.847 245.454,234.400 247.096,234.400 247.717 C 234.400 248.338,234.820 249.601,235.334 250.523 C 235.847 251.445,236.400 252.732,236.562 253.383 C 236.724 254.034,237.474 255.249,238.228 256.084 C 238.983 256.919,239.600 257.803,239.600 258.048 C 239.600 258.293,240.320 259.214,241.200 260.094 C 242.080 260.974,242.800 261.848,242.800 262.035 C 242.800 262.223,243.602 263.237,244.581 264.288 C 245.561 265.340,246.466 266.609,246.591 267.110 C 246.717 267.610,247.419 268.805,248.152 269.764 C 249.497 271.526,254.212 280.800,256.204 285.600 C 257.914 289.720,258.798 291.747,259.214 292.495 C 259.426 292.877,259.600 293.380,259.600 293.614 C 259.600 293.847,260.230 295.023,261.000 296.227 C 261.770 297.431,262.400 298.621,262.400 298.873 C 262.400 299.366,264.660 303.064,265.486 303.923 C 266.122 304.585,270.800 314.106,270.800 314.738 C 270.800 314.997,271.144 315.972,271.564 316.904 C 271.985 317.837,272.718 319.770,273.194 321.200 C 273.670 322.630,274.586 324.840,275.230 326.112 C 275.873 327.384,276.404 328.644,276.409 328.912 C 276.414 329.180,276.950 330.480,277.600 331.800 C 278.250 333.120,278.786 334.439,278.791 334.731 C 278.796 335.023,279.598 336.913,280.572 338.931 C 283.310 344.599,284.446 349.648,284.864 358.000 C 285.495 370.644,286.258 377.075,287.256 378.180 C 287.445 378.389,287.600 378.963,287.600 379.456 C 287.600 379.949,287.757 380.450,287.948 380.568 C 288.140 380.686,288.403 381.314,288.532 381.962 C 288.662 382.611,289.113 383.919,289.535 384.871 C 289.957 385.822,290.608 387.453,290.982 388.496 C 291.357 389.539,291.829 390.494,292.032 390.619 C 292.234 390.745,292.400 391.159,292.400 391.539 C 292.400 391.920,292.771 392.944,293.225 393.815 C 293.679 394.687,294.319 396.660,294.647 398.200 C 294.976 399.740,295.395 401.630,295.578 402.400 C 297.848 411.920,297.964 412.978,298.250 426.754 C 298.401 434.036,298.336 437.992,298.058 438.554 C 297.827 439.019,297.290 441.110,296.863 443.200 C 296.072 447.070,294.443 452.092,293.900 452.333 C 293.735 452.407,293.600 452.651,293.600 452.876 C 293.600 453.725,291.048 456.458,288.962 457.843 C 287.770 458.634,286.660 459.488,286.497 459.741 C 286.047 460.436,277.868 464.400,276.883 464.400 C 276.409 464.400,274.711 464.908,273.110 465.529 C 271.510 466.150,269.390 466.879,268.400 467.149 C 267.410 467.420,265.250 468.064,263.600 468.581 C 261.950 469.098,259.520 469.823,258.200 470.192 C 256.880 470.562,255.350 471.015,254.800 471.199 C 254.250 471.383,253.170 471.632,252.400 471.752 C 251.630 471.873,249.308 472.338,247.239 472.785 C 238.729 474.629,227.026 473.331,218.600 469.609 C 218.160 469.415,217.080 469.051,216.200 468.800 C 214.134 468.211,212.738 467.634,210.200 466.319 C 208.463 465.419,207.273 464.943,204.862 464.184 C 202.417 463.414,193.707 459.047,192.131 457.800 C 191.852 457.580,190.701 456.770,189.573 456.000 C 188.444 455.230,186.934 453.970,186.216 453.200 C 181.736 448.391,180.038 446.217,178.846 443.765 C 178.107 442.244,177.387 440.910,177.247 440.800 C 176.886 440.517,175.140 437.674,174.237 435.899 C 173.817 435.075,173.334 434.400,173.164 434.400 C 172.993 434.400,172.750 434.072,172.622 433.671 C 172.495 433.269,172.078 432.594,171.695 432.169 C 171.313 431.744,170.193 430.318,169.207 428.998 C 167.157 426.257,165.746 424.800,165.140 424.800 C 164.910 424.800,162.985 423.123,160.861 421.073 C 158.737 419.023,156.255 416.931,155.345 416.424 C 153.227 415.246,149.037 409.050,147.946 405.482 C 147.528 404.117,146.390 401.380,145.416 399.400 C 142.600 393.672,142.000 392.216,142.000 391.107 C 142.000 390.534,141.549 389.167,140.997 388.069 C 140.446 386.971,139.880 385.472,139.740 384.737 C 139.390 382.896,138.695 381.692,136.821 379.675 C 135.933 378.721,135.024 377.230,134.783 376.336 C 134.544 375.448,133.832 373.704,133.201 372.461 C 131.019 368.162,130.002 363.750,130.001 358.589 C 130.000 356.882,129.787 355.468,129.459 354.989 C 129.161 354.555,128.812 352.670,128.683 350.800 C 128.445 347.367,127.796 344.333,126.672 341.400 C 126.334 340.520,125.941 338.585,125.797 337.100 C 125.631 335.384,125.358 334.400,125.048 334.400 C 124.769 334.400,124.349 333.332,124.067 331.900 C 123.266 327.835,122.722 325.452,122.400 324.600 C 122.233 324.160,121.892 322.810,121.641 321.600 C 120.405 315.636,120.015 313.248,120.008 311.589 C 120.004 310.593,119.756 309.423,119.458 308.989 C 119.159 308.555,118.791 307.030,118.638 305.600 C 118.486 304.170,118.220 301.650,118.048 300.000 C 117.876 298.350,117.545 296.640,117.313 296.200 C 116.123 293.951,115.739 280.715,116.367 263.600 C 116.379 263.270,116.289 262.100,116.166 261.000 C 116.044 259.900,116.125 258.201,116.346 257.226 C 116.607 256.076,116.612 255.196,116.362 254.728 C 116.114 254.266,116.108 251.376,116.345 246.703 C 116.549 242.686,116.591 239.173,116.439 238.895 C 116.287 238.618,116.325 236.998,116.523 235.295 C 116.721 233.593,116.868 230.387,116.849 228.171 C 116.830 225.956,117.018 223.526,117.265 222.771 C 117.513 222.017,117.871 218.520,118.062 215.000 C 118.476 207.325,118.475 207.490,118.164 205.078 C 118.027 204.021,118.119 202.348,118.368 201.361 C 118.646 200.257,118.681 199.317,118.460 198.921 C 118.103 198.284,118.450 196.259,119.199 194.600 C 119.397 194.160,119.843 192.900,120.189 191.800 C 120.535 190.700,120.980 189.440,121.178 189.000 C 121.376 188.560,121.635 187.750,121.754 187.200 C 121.933 186.374,123.443 184.294,124.707 183.131 C 124.868 182.983,126.166 181.761,127.590 180.416 C 129.015 179.071,130.590 177.867,131.090 177.742 C 131.631 177.606,132.000 177.210,132.000 176.764 C 132.000 176.299,132.379 175.920,133.000 175.764 C 133.623 175.608,134.000 175.230,134.000 174.762 C 134.000 174.338,134.654 173.573,135.500 173.009 C 137.901 171.406,139.321 170.265,140.116 169.300 C 140.524 168.805,141.006 168.400,141.187 168.400 C 141.367 168.400,142.093 167.860,142.800 167.200 C 143.507 166.540,144.516 166.000,145.042 166.000 C 145.627 166.000,146.000 165.766,146.000 165.400 C 146.000 165.058,146.360 164.800,146.838 164.800 C 148.043 164.800,150.000 163.542,150.000 162.768 C 150.000 162.128,150.683 161.799,155.200 160.264 C 157.796 159.382,161.402 159.658,163.941 160.933 " stroke="none" fill="#e99139" fill-rule="evenodd"></path><path id="path1" d="M159.800 83.177 C 159.140 83.358,157.261 83.527,155.624 83.553 C 153.987 83.579,151.647 83.778,150.424 83.996 C 149.201 84.214,146.400 84.570,144.200 84.788 C 142.000 85.006,139.120 85.370,137.800 85.597 C 136.480 85.824,132.700 86.274,129.400 86.597 C 126.100 86.920,122.410 87.364,121.200 87.584 C 119.990 87.805,117.560 88.142,115.800 88.334 C 113.891 88.543,112.024 89.010,111.173 89.494 C 110.388 89.940,109.128 90.439,108.373 90.603 C 103.613 91.637,86.062 102.611,84.867 105.300 C 84.793 105.465,84.555 105.600,84.338 105.600 C 84.121 105.600,83.689 105.854,83.379 106.164 C 83.068 106.475,82.676 106.790,82.507 106.864 C 81.223 107.432,72.400 119.896,72.400 121.143 C 72.400 121.394,72.265 121.601,72.100 121.603 C 71.935 121.605,71.607 122.010,71.371 122.503 C 71.134 122.996,70.482 124.300,69.920 125.400 C 67.778 129.595,65.143 136.134,64.037 140.000 C 63.754 140.990,63.371 142.094,63.187 142.453 C 61.770 145.215,61.427 149.395,61.371 164.600 C 61.340 172.960,61.070 183.490,60.772 188.000 C 60.087 198.330,60.099 226.506,60.792 237.600 C 61.704 252.210,61.672 251.853,62.019 251.000 C 62.248 250.435,62.358 250.846,62.392 252.400 C 62.419 253.610,62.612 255.860,62.820 257.400 C 63.567 262.913,63.980 266.704,64.586 273.600 C 66.074 290.542,66.635 295.693,67.155 297.200 C 67.678 298.715,68.310 301.784,68.967 306.000 C 70.368 315.001,71.575 323.115,71.733 324.600 C 71.826 325.480,72.098 327.280,72.336 328.600 C 74.257 339.221,74.746 345.363,74.786 359.400 C 74.803 365.560,74.985 371.410,75.191 372.400 C 75.397 373.390,75.578 375.190,75.594 376.400 C 75.610 377.610,75.991 379.860,76.440 381.400 C 76.889 382.940,77.400 384.920,77.576 385.800 C 77.751 386.680,78.099 388.210,78.348 389.200 C 78.597 390.190,79.254 392.980,79.809 395.400 C 80.839 399.895,81.438 402.225,82.021 404.000 C 82.202 404.550,82.462 405.630,82.598 406.400 C 82.735 407.170,83.000 408.160,83.187 408.600 C 85.183 413.287,89.366 421.888,91.260 425.200 C 93.585 429.264,94.800 431.677,94.800 432.229 C 94.800 432.530,95.250 433.760,95.800 434.963 C 96.350 436.165,96.800 437.343,96.800 437.580 C 96.800 437.817,96.959 438.323,97.153 438.705 C 97.533 439.451,97.607 439.637,99.601 444.800 C 100.780 447.854,104.133 453.638,105.629 455.200 C 105.945 455.530,106.991 456.752,107.952 457.916 C 108.914 459.080,110.173 460.286,110.751 460.597 C 111.328 460.908,113.060 462.354,114.600 463.810 C 116.140 465.266,117.948 466.796,118.618 467.210 C 120.464 468.352,127.377 475.672,131.200 480.533 C 133.070 482.911,135.545 485.842,136.700 487.046 C 137.855 488.250,138.801 489.363,138.802 489.518 C 138.820 491.777,151.284 499.781,156.100 500.626 C 156.925 500.771,157.600 501.010,157.600 501.157 C 157.600 501.446,159.785 502.073,163.000 502.707 C 164.814 503.065,168.557 504.283,170.600 505.179 C 174.305 506.805,177.342 508.408,179.567 509.912 C 181.015 510.891,183.622 512.590,185.360 513.686 C 187.098 514.783,188.898 516.033,189.360 516.464 C 189.822 516.895,191.370 517.808,192.800 518.494 C 194.230 519.179,196.030 520.315,196.800 521.019 C 197.570 521.722,198.811 522.411,199.557 522.550 C 200.303 522.689,202.143 523.612,203.644 524.601 C 205.146 525.591,206.719 526.400,207.141 526.400 C 208.035 526.400,211.640 527.455,213.460 528.250 C 214.154 528.552,215.024 528.800,215.394 528.800 C 215.764 528.800,217.447 529.358,219.133 530.040 C 224.397 532.168,238.524 532.980,248.000 531.699 C 256.226 530.587,257.904 530.268,259.600 529.491 C 260.590 529.037,262.480 528.585,263.800 528.486 C 265.120 528.386,266.414 528.134,266.676 527.924 C 266.937 527.714,268.737 527.389,270.676 527.202 C 276.174 526.671,277.665 526.386,279.600 525.499 C 280.590 525.045,282.390 524.596,283.600 524.503 C 287.408 524.208,293.697 520.045,294.592 517.227 C 294.736 516.772,294.977 516.400,295.127 516.400 C 296.060 516.398,298.506 513.800,303.800 507.188 C 304.460 506.364,305.540 505.311,306.200 504.849 C 306.860 504.386,308.230 503.241,309.244 502.304 C 311.293 500.409,312.987 499.001,314.663 497.800 C 315.826 496.967,324.526 488.364,325.636 486.951 C 325.985 486.505,326.609 485.569,327.022 484.870 C 327.435 484.172,327.873 483.600,327.995 483.600 C 328.118 483.600,328.572 482.925,329.005 482.100 C 329.438 481.275,329.898 480.510,330.027 480.400 C 330.156 480.290,330.843 478.760,331.553 477.000 C 332.263 475.240,333.187 473.080,333.607 472.200 C 335.895 467.401,337.703 460.981,338.734 454.000 C 339.455 449.121,339.420 447.065,338.348 431.200 C 337.863 424.033,337.686 408.759,338.001 401.400 C 338.261 395.345,337.127 380.969,336.014 376.200 C 335.809 375.320,335.435 373.340,335.183 371.800 C 332.783 357.141,329.983 346.163,327.022 339.800 C 326.305 338.260,325.404 335.740,325.019 334.200 C 324.634 332.660,324.170 331.040,323.989 330.600 C 323.808 330.160,323.572 329.350,323.463 328.800 C 323.355 328.250,322.979 326.810,322.629 325.600 C 322.279 324.390,321.708 322.050,321.361 320.400 C 321.015 318.750,320.296 316.154,319.765 314.630 C 319.234 313.107,318.800 311.514,318.800 311.091 C 318.800 310.667,318.512 309.664,318.159 308.860 C 317.807 308.057,317.368 307.040,317.185 306.600 C 317.001 306.160,316.276 304.540,315.573 303.000 C 314.302 300.216,312.927 296.838,312.520 295.500 C 312.403 295.115,312.169 294.800,312.000 294.800 C 311.832 294.800,311.217 293.225,310.635 291.300 C 310.052 289.375,309.204 286.720,308.751 285.400 C 308.297 284.080,307.397 280.930,306.750 278.400 C 306.103 275.870,304.959 271.999,304.207 269.797 C 303.455 267.595,302.715 265.009,302.561 264.049 C 302.408 263.088,301.859 261.470,301.343 260.451 C 300.826 259.433,300.403 258.206,300.402 257.724 C 300.401 257.242,300.251 256.755,300.068 256.642 C 299.886 256.530,299.515 255.394,299.244 254.119 C 298.973 252.843,298.513 250.990,298.222 250.000 C 297.274 246.772,296.824 245.045,296.190 242.200 C 295.846 240.660,295.403 238.680,295.206 237.800 C 295.008 236.920,294.754 235.003,294.642 233.540 C 294.459 231.157,292.748 224.827,292.010 223.800 C 291.584 223.207,288.800 216.157,288.800 215.670 C 288.800 215.200,286.681 209.484,285.565 206.944 C 285.165 206.033,284.714 204.773,284.564 204.144 C 284.413 203.515,284.159 202.820,283.999 202.600 C 283.838 202.380,283.606 201.750,283.481 201.200 C 282.746 197.948,282.287 196.420,281.604 194.944 C 281.182 194.033,280.712 192.790,280.560 192.181 C 280.146 190.532,276.485 184.437,274.780 182.558 C 273.960 181.654,273.076 180.515,272.814 180.026 C 272.327 179.117,271.468 177.982,270.400 176.837 C 269.259 175.613,267.247 172.181,264.751 167.200 C 263.373 164.450,261.830 161.691,261.323 161.069 C 260.815 160.447,260.400 159.761,260.400 159.544 C 260.400 158.866,258.288 154.800,257.935 154.800 C 257.751 154.800,257.600 154.616,257.600 154.390 C 257.600 154.013,254.517 148.858,254.018 148.400 C 253.898 148.290,253.129 147.364,252.309 146.343 C 251.488 145.322,250.228 143.873,249.509 143.123 C 248.789 142.373,247.840 141.246,247.400 140.618 C 246.960 139.990,245.160 137.999,243.400 136.193 C 238.091 130.746,236.281 127.451,234.726 120.400 C 233.679 115.656,231.117 111.182,227.395 107.600 C 225.680 105.950,223.393 103.742,222.312 102.692 C 220.258 100.699,217.309 98.914,211.308 96.034 C 209.421 95.128,203.432 93.052,200.988 92.457 C 200.115 92.244,197.870 91.535,196.000 90.881 C 190.294 88.885,183.885 86.879,182.249 86.578 C 181.396 86.421,179.506 85.857,178.049 85.326 C 173.540 83.683,162.644 82.400,159.800 83.177 M159.701 116.338 C 162.101 116.508,164.214 116.854,164.481 117.121 C 164.745 117.385,165.458 117.600,166.066 117.600 C 167.231 117.600,169.840 118.660,170.718 119.489 C 171.002 119.758,171.992 120.321,172.918 120.740 C 173.843 121.159,175.500 122.380,176.600 123.454 C 177.700 124.527,179.680 126.214,181.000 127.202 C 182.320 128.190,183.490 129.107,183.600 129.239 C 183.710 129.372,184.553 129.952,185.474 130.529 C 186.394 131.105,187.654 132.221,188.274 133.007 C 188.893 133.794,190.030 134.821,190.800 135.289 C 193.218 136.760,196.592 138.962,196.800 139.207 C 196.910 139.337,197.705 139.871,198.567 140.395 C 200.083 141.317,205.994 145.859,206.400 146.413 C 207.505 147.924,209.338 150.055,210.900 151.647 C 211.945 152.712,212.800 153.857,212.800 154.191 C 212.800 154.526,212.941 154.800,213.114 154.800 C 213.286 154.800,213.772 155.385,214.194 156.100 C 214.615 156.815,215.284 157.749,215.680 158.175 C 216.076 158.602,216.400 159.173,216.400 159.445 C 216.400 159.716,216.820 160.447,217.332 161.069 C 217.845 161.691,218.880 163.370,219.632 164.800 C 220.385 166.230,221.110 167.490,221.244 167.600 C 221.378 167.710,222.008 168.639,222.644 169.664 C 223.280 170.689,227.130 174.977,231.200 179.193 C 235.270 183.408,238.780 187.074,239.000 187.339 C 241.619 190.488,244.132 194.465,244.543 196.111 C 244.696 196.722,245.266 198.195,245.810 199.385 C 246.355 200.575,246.800 201.652,246.800 201.779 C 246.800 201.905,247.151 202.772,247.579 203.704 C 248.007 204.637,248.651 206.570,249.010 208.000 C 250.357 213.375,251.535 216.228,253.657 219.262 C 254.066 219.846,254.400 220.622,254.400 220.987 C 254.400 221.353,254.827 222.585,255.349 223.726 C 255.871 224.867,256.605 227.780,256.981 230.200 C 257.356 232.620,257.920 236.040,258.232 237.800 C 258.545 239.560,258.804 241.900,258.808 243.000 C 258.816 245.085,259.608 249.848,260.405 252.600 C 260.659 253.480,261.065 254.920,261.306 255.800 C 261.547 256.680,261.861 257.580,262.003 257.800 C 262.146 258.020,262.592 259.100,262.994 260.200 C 263.397 261.300,263.833 262.291,263.963 262.402 C 264.363 262.745,265.933 265.648,267.421 268.800 C 268.201 270.450,269.010 272.115,269.219 272.500 C 270.033 273.995,270.369 274.643,270.935 275.800 C 273.893 281.853,276.697 286.778,278.748 289.527 C 279.490 290.521,280.340 291.915,280.637 292.627 C 280.934 293.338,281.413 294.163,281.701 294.460 C 281.989 294.757,283.011 296.260,283.973 297.800 C 284.935 299.340,285.829 300.690,285.961 300.800 C 286.550 301.293,290.483 309.656,291.228 312.000 C 292.113 314.790,293.688 320.425,294.581 324.000 C 294.883 325.210,295.328 326.920,295.569 327.800 C 295.810 328.680,296.259 330.480,296.566 331.800 C 296.874 333.120,297.393 335.190,297.721 336.400 C 298.048 337.610,298.440 339.410,298.590 340.400 C 298.740 341.390,299.195 343.190,299.601 344.400 C 300.006 345.610,300.447 347.950,300.581 349.600 C 300.866 353.104,301.463 359.343,302.055 365.000 C 302.811 372.227,304.304 379.895,305.638 383.400 C 306.056 384.500,306.560 386.210,306.758 387.200 C 306.956 388.190,307.488 390.080,307.941 391.400 C 308.394 392.720,308.969 395.060,309.218 396.600 C 309.860 400.567,310.769 405.512,311.218 407.477 C 311.428 408.400,311.600 409.950,311.600 410.923 C 311.600 411.895,311.788 413.660,312.018 414.845 C 312.580 417.743,312.615 445.637,312.058 446.647 C 311.830 447.061,311.350 448.390,310.993 449.600 C 310.635 450.810,310.185 452.160,309.993 452.600 C 306.471 460.644,305.559 462.422,305.102 462.139 C 304.868 461.995,304.792 462.064,304.934 462.293 C 305.075 462.522,304.570 463.405,303.811 464.255 C 301.655 466.668,301.600 466.741,301.600 467.183 C 301.600 467.412,301.432 467.600,301.227 467.600 C 301.022 467.600,300.753 467.915,300.629 468.300 C 300.506 468.685,299.954 469.523,299.402 470.162 C 298.851 470.801,298.400 471.547,298.400 471.819 C 298.400 472.092,298.144 472.413,297.832 472.532 C 297.519 472.652,296.545 473.808,295.668 475.100 C 294.790 476.393,293.381 477.969,292.536 478.604 C 291.691 479.239,290.910 479.859,290.800 479.983 C 290.208 480.649,287.142 482.335,285.400 482.953 C 284.300 483.343,283.040 483.814,282.600 484.001 C 280.731 484.791,274.923 486.148,271.448 486.607 C 270.374 486.749,269.114 487.015,268.648 487.200 C 268.182 487.384,267.440 487.671,267.000 487.837 C 266.560 488.003,264.850 488.372,263.200 488.656 C 261.550 488.940,259.390 489.372,258.400 489.616 C 257.410 489.861,255.520 490.240,254.200 490.460 C 252.880 490.679,249.761 491.225,247.268 491.673 C 242.467 492.535,231.132 492.528,226.000 491.660 C 220.497 490.730,218.507 490.291,217.275 489.736 C 216.546 489.407,214.248 488.717,212.170 488.202 C 210.091 487.688,207.627 486.906,206.695 486.465 C 204.835 485.587,201.418 484.400,200.747 484.400 C 199.796 484.400,193.416 481.032,192.057 479.813 C 191.256 479.093,189.520 477.820,188.200 476.982 C 186.880 476.145,184.982 474.636,183.983 473.630 C 182.984 472.623,181.094 470.936,179.783 469.879 C 178.472 468.822,177.117 467.726,176.770 467.443 C 176.424 467.160,175.569 466.591,174.870 466.178 C 174.172 465.765,173.600 465.286,173.600 465.114 C 173.600 464.941,173.375 464.800,173.100 464.800 C 172.825 464.800,171.087 463.900,169.239 462.800 C 167.390 461.700,165.679 460.800,165.437 460.800 C 165.195 460.800,163.512 460.080,161.698 459.200 C 159.884 458.320,158.220 457.600,158.000 457.600 C 157.780 457.600,157.600 457.456,157.600 457.280 C 157.600 457.105,156.925 456.717,156.100 456.419 C 155.275 456.121,153.583 454.839,152.341 453.570 C 151.098 452.301,149.544 450.985,148.888 450.646 C 147.309 449.829,146.017 448.244,144.585 445.365 C 143.938 444.064,143.307 442.910,143.184 442.800 C 143.060 442.690,142.637 441.700,142.244 440.600 C 141.851 439.500,140.985 437.430,140.320 436.000 C 139.655 434.570,138.878 432.632,138.593 431.693 C 137.823 429.160,134.493 424.025,132.435 422.200 C 121.907 412.860,112.800 402.758,112.800 400.417 C 112.800 400.076,112.175 398.508,111.410 396.932 C 110.646 395.356,109.897 393.287,109.746 392.334 C 109.596 391.380,108.871 389.294,108.136 387.698 C 107.401 386.102,106.800 384.614,106.800 384.390 C 106.800 384.167,106.334 382.863,105.763 381.492 C 105.193 380.121,104.575 377.830,104.390 376.400 C 104.205 374.970,103.761 372.000,103.405 369.800 C 102.937 366.911,102.723 362.413,102.634 353.600 C 102.566 346.835,102.321 340.598,102.084 339.600 C 101.672 337.859,101.259 334.399,100.414 325.600 C 99.948 320.746,98.524 308.905,97.624 302.400 C 96.935 297.420,95.920 286.945,95.550 281.000 C 95.358 277.920,95.004 273.150,94.763 270.400 C 94.249 264.538,93.916 220.165,94.359 216.482 C 94.525 215.097,94.515 212.937,94.336 211.682 C 93.733 207.455,93.840 192.157,94.513 186.400 C 94.860 183.430,95.262 179.488,95.405 177.640 C 95.548 175.792,95.845 173.812,96.065 173.240 C 96.285 172.668,96.622 170.310,96.814 168.000 C 97.006 165.690,97.358 162.630,97.597 161.200 C 97.836 159.770,98.171 157.700,98.342 156.600 C 98.512 155.500,98.855 154.240,99.104 153.800 C 99.353 153.360,99.862 152.010,100.234 150.800 C 100.894 148.654,102.654 144.800,103.156 144.400 C 103.294 144.290,103.930 143.394,104.569 142.409 C 105.209 141.424,106.872 139.467,108.266 138.059 C 109.660 136.652,110.800 135.342,110.800 135.150 C 110.800 134.957,111.074 134.800,111.409 134.800 C 111.744 134.800,112.779 134.108,113.709 133.262 C 114.639 132.417,116.930 130.758,118.800 129.578 C 120.670 128.397,122.290 127.333,122.400 127.214 C 122.905 126.667,127.446 123.799,127.817 123.793 C 128.046 123.789,128.673 123.377,129.209 122.877 C 129.745 122.378,130.638 121.861,131.192 121.729 C 131.746 121.598,132.380 121.357,132.600 121.194 C 132.820 121.031,133.994 120.819,135.209 120.724 C 137.016 120.581,137.899 120.220,140.064 118.737 L 142.711 116.925 147.056 116.691 C 149.445 116.563,151.850 116.270,152.400 116.040 C 152.950 115.811,153.850 115.715,154.400 115.828 C 154.950 115.941,157.336 116.170,159.701 116.338 " stroke="none" fill="#bd5e1c" fill-rule="evenodd"></path><path id="path2" d="M146.760 8.900 C 146.739 13.795,146.604 18.790,146.460 20.000 L 146.200 22.200 116.400 22.400 L 86.600 22.600 86.484 25.904 C 86.346 29.821,86.554 30.000,91.226 30.000 L 94.000 30.000 94.000 32.200 L 94.000 34.400 96.000 34.400 L 98.000 34.400 98.000 36.400 L 98.000 38.400 100.000 38.400 L 102.000 38.400 102.000 40.400 L 102.000 42.400 104.000 42.400 L 106.000 42.400 106.000 44.354 C 106.000 46.464,105.387 47.181,103.105 47.743 C 102.501 47.892,100.609 49.425,98.884 51.164 C 95.313 54.764,93.726 55.507,88.647 55.958 C 85.828 56.209,85.398 56.359,84.590 57.371 C 83.779 58.388,83.346 58.537,80.344 58.829 C 78.505 59.008,76.371 59.345,75.603 59.577 C 74.834 59.810,73.253 60.000,72.089 60.000 C 70.219 60.000,69.817 60.157,68.622 61.352 C 67.691 62.282,66.604 62.860,65.135 63.205 C 62.448 63.837,60.938 64.594,60.415 65.572 C 60.014 66.322,59.080 66.722,55.717 67.588 C 54.287 67.957,52.950 69.119,46.836 75.311 C 38.390 83.864,39.408 82.843,35.400 86.783 C 33.640 88.513,31.814 90.350,31.343 90.864 C 30.872 91.379,29.927 92.274,29.243 92.854 C 28.137 93.792,28.000 94.145,28.000 96.063 C 28.000 99.389,26.748 103.354,25.258 104.746 C 24.004 105.917,24.000 105.934,24.000 110.063 C 24.000 112.341,23.794 114.834,23.543 115.603 C 23.291 116.371,22.976 120.261,22.843 124.247 L 22.600 131.494 21.300 132.707 L 20.000 133.921 19.995 168.060 C 19.991 196.892,19.899 202.542,19.400 204.400 C 18.636 207.245,18.636 212.932,19.400 215.865 C 19.743 217.181,20.000 219.911,20.000 222.237 C 20.000 226.292,20.004 226.309,21.289 227.565 L 22.578 228.825 22.875 234.513 C 23.038 237.641,23.353 241.460,23.573 243.000 C 23.793 244.540,23.980 246.814,23.987 248.053 C 23.999 250.058,24.142 250.444,25.300 251.575 L 26.600 252.846 26.913 259.123 C 27.808 277.043,27.712 276.341,29.487 277.800 C 29.816 278.071,30.028 280.200,30.142 284.400 C 30.520 298.314,31.425 304.189,33.440 305.800 C 33.715 306.020,34.021 307.190,34.119 308.400 C 34.218 309.610,34.588 312.310,34.942 314.400 C 35.296 316.490,35.589 319.562,35.593 321.227 C 35.600 324.373,36.469 328.140,37.439 329.231 C 37.762 329.595,38.000 330.715,38.000 331.869 C 38.000 332.973,38.356 334.939,38.790 336.238 C 39.383 338.010,39.583 339.703,39.590 343.011 C 39.600 347.457,39.906 348.562,41.468 349.800 C 41.855 350.106,42.019 354.143,42.170 367.000 C 42.279 376.240,42.544 386.320,42.760 389.400 C 42.976 392.480,43.262 397.610,43.395 400.800 C 43.690 407.824,43.735 408.065,44.989 409.254 C 45.919 410.136,45.988 410.469,46.006 414.200 C 46.021 417.122,46.238 418.793,46.812 420.400 C 47.260 421.654,47.711 424.288,47.861 426.526 C 48.112 430.278,48.181 430.506,49.407 431.662 C 50.327 432.530,50.835 433.511,51.204 435.136 C 51.768 437.623,52.502 439.031,53.769 440.056 C 54.501 440.649,54.628 441.326,54.855 445.864 C 54.997 448.689,55.308 451.720,55.547 452.600 C 55.786 453.480,55.985 455.124,55.990 456.253 C 55.999 458.020,56.175 458.476,57.258 459.535 C 58.372 460.624,58.552 461.119,58.833 463.882 C 59.432 469.777,59.424 469.760,63.810 474.062 C 66.359 476.563,66.755 477.154,67.213 479.146 C 67.933 482.273,67.776 482.056,73.179 487.400 C 76.365 490.551,78.383 492.901,79.052 494.241 C 79.883 495.903,80.417 496.435,81.936 497.111 C 82.961 497.568,84.306 498.489,84.924 499.160 C 85.781 500.090,86.528 500.443,88.076 500.648 C 89.927 500.893,90.195 501.067,91.152 502.641 C 91.729 503.591,92.681 504.539,93.270 504.752 C 93.867 504.967,94.751 505.855,95.270 506.762 C 95.782 507.656,96.650 508.550,97.200 508.750 C 98.323 509.158,100.000 510.632,100.000 511.211 C 100.000 511.419,100.729 512.050,101.619 512.612 C 103.398 513.735,103.433 513.797,103.783 516.419 C 104.008 518.114,104.415 518.633,109.746 524.019 C 115.354 529.685,115.473 529.841,115.711 531.869 C 116.003 534.344,116.455 535.146,118.209 536.296 C 118.937 536.773,119.835 537.667,120.204 538.282 C 120.573 538.897,121.559 539.880,122.395 540.466 C 123.387 541.162,124.087 542.066,124.408 543.066 C 124.679 543.910,125.140 544.875,125.433 545.212 C 125.792 545.626,126.056 547.745,126.245 551.746 C 126.504 557.242,126.585 557.692,127.362 558.017 C 127.823 558.210,128.829 559.012,129.598 559.800 C 131.124 561.366,131.223 561.400,135.600 561.875 C 138.422 562.181,138.607 562.261,138.719 563.225 C 138.842 564.276,140.541 565.600,141.768 565.600 C 142.123 565.600,142.710 566.222,143.072 566.983 C 143.511 567.902,144.219 568.561,145.183 568.947 C 146.112 569.318,146.912 570.042,147.404 570.955 C 147.834 571.754,148.652 572.549,149.263 572.762 C 150.077 573.046,150.464 573.554,150.792 574.768 C 151.676 578.054,156.983 578.513,157.771 575.372 C 157.988 574.509,158.234 574.400,159.966 574.400 L 161.918 574.400 167.859 568.407 L 173.800 562.414 180.067 562.407 C 185.941 562.400,186.458 562.462,188.301 563.388 C 189.721 564.101,191.369 564.479,194.234 564.749 C 199.548 565.250,201.574 565.822,202.925 567.204 C 204.157 568.463,204.559 568.552,211.823 569.180 C 214.256 569.390,216.743 569.750,217.349 569.981 C 217.956 570.211,220.195 570.403,222.326 570.407 C 225.904 570.413,226.270 570.488,227.121 571.386 C 228.999 573.366,243.112 573.477,244.919 571.526 C 245.860 570.509,246.148 570.443,250.257 570.303 C 252.788 570.216,255.518 569.872,256.800 569.476 C 258.010 569.103,260.620 568.687,262.600 568.552 C 265.571 568.349,266.659 568.076,268.825 566.991 C 270.993 565.906,272.387 565.557,276.825 564.987 C 281.074 564.442,282.700 564.049,284.587 563.111 C 286.173 562.322,288.507 561.662,291.537 561.143 C 295.521 560.462,296.248 560.213,297.280 559.181 C 297.930 558.532,298.507 558.000,298.563 558.000 C 298.619 558.000,300.584 557.654,302.930 557.231 C 307.100 556.479,307.741 556.182,308.641 554.583 C 308.964 554.010,310.034 553.599,312.641 553.049 C 315.225 552.503,316.439 552.040,317.073 551.357 C 318.126 550.223,321.468 548.898,324.184 548.538 C 325.678 548.340,326.505 547.948,327.529 546.953 C 328.278 546.226,329.669 545.334,330.622 544.970 C 331.893 544.485,332.463 543.995,332.766 543.127 C 333.062 542.277,333.645 541.761,334.837 541.293 C 336.166 540.771,336.645 540.294,337.242 538.902 C 337.779 537.650,338.326 537.045,339.196 536.741 C 339.926 536.487,340.497 535.954,340.636 535.398 C 340.908 534.314,342.248 532.998,343.450 532.635 C 343.975 532.476,344.554 531.712,344.966 530.634 C 345.332 529.675,346.250 528.253,347.006 527.475 C 347.963 526.489,348.462 525.534,348.646 524.330 C 349.041 521.753,349.732 520.668,353.162 517.238 C 356.073 514.327,356.300 513.977,356.564 511.986 C 356.830 509.979,357.854 508.400,358.890 508.400 C 359.386 508.400,360.400 507.357,360.400 506.847 C 360.400 506.314,362.314 504.400,362.847 504.400 C 363.442 504.400,364.251 503.499,364.577 502.472 C 364.733 501.982,366.533 499.894,368.579 497.832 C 372.169 494.212,372.307 494.006,372.575 491.859 C 372.814 489.947,373.098 489.387,374.597 487.866 C 376.513 485.923,377.197 483.657,377.203 479.227 C 377.211 474.611,377.615 472.907,379.055 471.424 C 380.319 470.123,380.400 469.872,380.400 467.270 C 380.400 462.393,380.534 462.121,383.040 461.913 C 386.321 461.641,386.314 461.675,385.907 449.621 C 385.589 440.208,385.344 439.034,383.272 436.971 L 382.095 435.800 381.898 429.000 C 381.670 421.166,381.146 419.138,379.168 418.449 L 378.000 418.042 378.000 410.854 C 378.000 402.400,378.000 402.400,376.009 402.400 L 374.503 402.400 374.219 398.400 C 374.017 395.539,373.788 394.400,373.418 394.400 C 372.921 394.400,372.400 392.733,372.400 391.145 C 372.400 390.730,371.785 389.087,371.033 387.495 C 369.545 384.345,368.400 378.044,368.400 373.008 C 368.400 371.084,368.165 369.902,367.538 368.681 C 367.063 367.756,366.548 365.830,366.393 364.400 C 366.238 362.970,365.837 360.810,365.502 359.600 C 365.122 358.226,364.789 354.545,364.616 349.800 C 364.346 342.381,364.311 342.143,363.123 339.800 C 361.441 336.480,360.800 333.730,360.800 329.830 C 360.800 325.536,360.511 324.188,359.355 323.092 C 358.640 322.415,358.412 321.765,358.407 320.394 C 358.403 319.401,358.040 317.604,357.600 316.400 C 357.160 315.196,356.800 313.376,356.800 312.356 C 356.800 309.443,356.390 308.085,355.143 306.866 C 353.932 305.682,353.262 303.016,352.597 296.736 C 352.345 294.363,352.145 293.895,350.757 292.452 C 349.398 291.037,349.200 290.592,349.200 288.948 C 349.200 285.108,348.414 282.109,347.063 280.787 C 345.862 279.613,345.793 279.372,345.542 275.479 C 345.109 268.759,344.536 266.311,343.020 264.704 C 341.958 263.578,341.653 262.859,341.431 260.955 C 341.009 257.349,340.544 256.259,339.094 255.479 C 337.683 254.719,336.384 249.259,336.395 244.134 C 336.399 242.339,336.239 241.919,335.174 240.934 C 333.509 239.395,332.800 237.942,332.800 236.070 C 332.800 233.463,332.357 232.053,331.174 230.896 C 330.087 229.833,329.317 227.723,328.950 224.800 C 328.854 224.030,328.682 222.651,328.568 221.735 C 328.444 220.732,327.989 219.698,327.423 219.133 C 326.735 218.444,326.437 217.609,326.304 215.997 C 326.204 214.789,325.825 212.756,325.461 211.480 C 324.955 209.703,324.800 207.447,324.800 201.830 C 324.800 193.427,324.651 192.321,323.355 191.092 C 322.498 190.280,322.412 189.859,322.396 186.400 C 322.375 182.007,320.808 176.558,319.059 174.799 C 317.766 173.498,316.814 170.714,316.802 168.200 C 316.781 163.567,316.402 162.200,314.605 160.271 C 312.713 158.239,312.400 157.205,312.400 152.984 C 312.400 150.249,312.324 149.997,311.181 148.934 C 309.740 147.593,308.953 146.012,308.603 143.756 C 308.437 142.683,307.893 141.629,307.034 140.719 C 306.016 139.639,305.657 138.838,305.443 137.162 C 304.654 130.987,304.359 129.999,302.872 128.555 C 301.254 126.983,300.960 125.255,300.549 114.897 L 300.354 109.994 298.895 108.576 C 297.500 107.222,297.422 107.003,297.154 103.679 C 296.772 98.936,296.543 98.244,294.753 96.400 C 293.894 95.514,293.197 94.397,293.194 93.900 C 293.187 92.919,292.460 90.707,291.691 89.332 C 291.424 88.855,290.530 88.245,289.703 87.977 C 288.876 87.708,287.722 87.154,287.138 86.744 C 286.282 86.144,285.334 86.000,282.240 86.000 L 278.403 86.000 276.475 84.000 C 274.636 82.092,274.449 82.000,272.419 82.000 C 270.697 82.000,270.125 81.820,269.416 81.055 C 268.908 80.507,267.291 79.729,265.570 79.205 C 263.609 78.608,262.239 77.916,261.538 77.168 C 260.362 75.912,260.273 75.884,254.600 74.982 C 252.000 74.569,250.388 74.111,249.995 73.673 C 248.236 71.718,246.811 71.273,240.862 70.823 C 237.068 70.535,236.639 70.418,235.713 69.420 C 234.597 68.216,232.200 67.069,229.911 66.644 C 229.093 66.492,228.193 66.044,227.911 65.648 C 227.038 64.417,224.283 62.936,222.404 62.688 C 221.340 62.547,220.355 62.137,219.986 61.682 C 219.074 60.556,216.147 58.800,215.182 58.800 C 213.911 58.800,212.918 58.124,212.656 57.080 C 212.496 56.442,211.715 55.794,210.228 55.066 C 209.022 54.476,207.893 53.769,207.718 53.496 C 206.751 51.987,203.033 50.800,199.269 50.800 C 197.167 50.800,196.866 50.684,195.656 49.400 C 194.433 48.104,194.153 47.998,191.868 47.971 C 190.510 47.955,188.410 47.776,187.200 47.575 C 182.174 46.736,179.650 46.381,177.000 46.138 C 174.806 45.937,173.992 45.676,173.237 44.933 C 172.708 44.411,171.808 43.878,171.237 43.748 C 165.861 42.526,162.400 39.536,162.400 36.114 L 162.400 34.000 160.443 34.000 L 158.486 34.000 158.243 29.300 C 158.109 26.715,157.889 19.065,157.754 12.300 L 157.509 -0.000 152.154 -0.000 L 146.800 0.000 146.760 8.900 M171.400 83.749 C 173.600 84.085,176.592 84.795,178.049 85.326 C 179.506 85.857,181.396 86.421,182.249 86.578 C 183.885 86.879,190.294 88.885,196.000 90.881 C 197.870 91.535,200.115 92.244,200.988 92.457 C 203.432 93.052,209.421 95.128,211.308 96.034 C 217.309 98.914,220.258 100.699,222.312 102.692 C 223.393 103.742,225.680 105.950,227.395 107.600 C 231.117 111.182,233.679 115.656,234.726 120.400 C 236.281 127.451,238.091 130.746,243.400 136.193 C 245.160 137.999,246.960 139.990,247.400 140.618 C 247.840 141.246,248.789 142.373,249.509 143.123 C 250.228 143.873,251.488 145.322,252.309 146.343 C 253.129 147.364,253.898 148.290,254.018 148.400 C 254.517 148.858,257.600 154.013,257.600 154.390 C 257.600 154.616,257.751 154.800,257.935 154.800 C 258.288 154.800,260.400 158.866,260.400 159.544 C 260.400 159.761,260.815 160.447,261.323 161.069 C 261.830 161.691,263.373 164.450,264.751 167.200 C 267.247 172.181,269.259 175.613,270.400 176.837 C 271.468 177.982,272.327 179.117,272.814 180.026 C 273.076 180.515,273.960 181.654,274.780 182.558 C 276.485 184.437,280.146 190.532,280.560 192.181 C 280.712 192.790,281.182 194.033,281.604 194.944 C 282.287 196.420,282.746 197.948,283.481 201.200 C 283.606 201.750,283.838 202.380,283.999 202.600 C 284.159 202.820,284.413 203.515,284.564 204.144 C 284.714 204.773,285.165 206.033,285.565 206.944 C 286.681 209.484,288.800 215.200,288.800 215.670 C 288.800 216.157,291.584 223.207,292.010 223.800 C 292.748 224.827,294.459 231.157,294.642 233.540 C 294.754 235.003,295.008 236.920,295.206 237.800 C 295.403 238.680,295.846 240.660,296.190 242.200 C 296.824 245.045,297.274 246.772,298.222 250.000 C 298.513 250.990,298.973 252.843,299.244 254.119 C 299.515 255.394,299.886 256.530,300.068 256.642 C 300.251 256.755,300.401 257.242,300.402 257.724 C 300.403 258.206,300.826 259.433,301.343 260.451 C 301.859 261.470,302.408 263.088,302.561 264.049 C 302.715 265.009,303.455 267.595,304.207 269.797 C 304.959 271.999,306.103 275.870,306.750 278.400 C 307.397 280.930,308.297 284.080,308.751 285.400 C 309.204 286.720,310.052 289.375,310.635 291.300 C 311.217 293.225,311.832 294.800,312.000 294.800 C 312.169 294.800,312.403 295.115,312.520 295.500 C 312.927 296.838,314.302 300.216,315.573 303.000 C 316.276 304.540,317.001 306.160,317.185 306.600 C 317.368 307.040,317.807 308.057,318.159 308.860 C 318.512 309.664,318.800 310.667,318.800 311.091 C 318.800 311.514,319.234 313.107,319.765 314.630 C 320.296 316.154,321.015 318.750,321.361 320.400 C 321.708 322.050,322.279 324.390,322.629 325.600 C 322.979 326.810,323.355 328.250,323.463 328.800 C 323.572 329.350,323.808 330.160,323.989 330.600 C 324.170 331.040,324.634 332.660,325.019 334.200 C 325.404 335.740,326.305 338.260,327.022 339.800 C 329.983 346.163,332.783 357.141,335.183 371.800 C 335.435 373.340,335.809 375.320,336.014 376.200 C 337.127 380.969,338.261 395.345,338.001 401.400 C 337.686 408.759,337.863 424.033,338.348 431.200 C 339.420 447.065,339.455 449.121,338.734 454.000 C 337.703 460.981,335.895 467.401,333.607 472.200 C 333.187 473.080,332.263 475.240,331.553 477.000 C 330.843 478.760,330.156 480.290,330.027 480.400 C 329.898 480.510,329.438 481.275,329.005 482.100 C 328.572 482.925,328.118 483.600,327.995 483.600 C 327.873 483.600,327.435 484.172,327.022 484.870 C 326.609 485.569,325.985 486.505,325.636 486.951 C 324.526 488.364,315.826 496.967,314.663 497.800 C 312.987 499.001,311.293 500.409,309.244 502.304 C 308.230 503.241,306.860 504.386,306.200 504.849 C 305.540 505.311,304.460 506.364,303.800 507.188 C 298.506 513.800,296.060 516.398,295.127 516.400 C 294.977 516.400,294.736 516.772,294.592 517.227 C 293.697 520.045,287.408 524.208,283.600 524.503 C 282.390 524.596,280.590 525.045,279.600 525.499 C 277.665 526.386,276.174 526.671,270.676 527.202 C 268.737 527.389,266.937 527.714,266.676 527.924 C 266.414 528.134,265.120 528.386,263.800 528.486 C 262.480 528.585,260.590 529.037,259.600 529.491 C 257.904 530.268,256.226 530.587,248.000 531.699 C 238.524 532.980,224.397 532.168,219.133 530.040 C 217.447 529.358,215.764 528.800,215.394 528.800 C 215.024 528.800,214.154 528.552,213.460 528.250 C 211.640 527.455,208.035 526.400,207.141 526.400 C 206.719 526.400,205.146 525.591,203.644 524.601 C 202.143 523.612,200.303 522.689,199.557 522.550 C 198.811 522.411,197.570 521.722,196.800 521.019 C 196.030 520.315,194.230 519.179,192.800 518.494 C 191.370 517.808,189.822 516.895,189.360 516.464 C 188.898 516.033,187.098 514.783,185.360 513.686 C 183.622 512.590,181.015 510.891,179.567 509.912 C 177.342 508.408,174.305 506.805,170.600 505.179 C 168.557 504.283,164.814 503.065,163.000 502.707 C 159.785 502.073,157.600 501.446,157.600 501.157 C 157.600 501.010,156.925 500.771,156.100 500.626 C 151.284 499.781,138.820 491.777,138.802 489.518 C 138.801 489.363,137.855 488.250,136.700 487.046 C 135.545 485.842,133.070 482.911,131.200 480.533 C 127.377 475.672,120.464 468.352,118.618 467.210 C 117.948 466.796,116.140 465.266,114.600 463.810 C 113.060 462.354,111.328 460.908,110.751 460.597 C 110.173 460.286,108.914 459.080,107.952 457.916 C 106.991 456.752,105.945 455.530,105.629 455.200 C 104.133 453.638,100.780 447.854,99.601 444.800 C 97.607 439.637,97.533 439.451,97.153 438.705 C 96.959 438.323,96.800 437.817,96.800 437.580 C 96.800 437.343,96.350 436.165,95.800 434.963 C 95.250 433.760,94.800 432.530,94.800 432.229 C 94.800 431.677,93.585 429.264,91.260 425.200 C 89.366 421.888,85.183 413.287,83.187 408.600 C 83.000 408.160,82.735 407.170,82.598 406.400 C 82.462 405.630,82.202 404.550,82.021 404.000 C 81.438 402.225,80.839 399.895,79.809 395.400 C 79.254 392.980,78.597 390.190,78.348 389.200 C 78.099 388.210,77.751 386.680,77.576 385.800 C 77.400 384.920,76.889 382.940,76.440 381.400 C 75.991 379.860,75.610 377.610,75.594 376.400 C 75.578 375.190,75.397 373.390,75.191 372.400 C 74.985 371.410,74.803 365.560,74.786 359.400 C 74.746 345.363,74.257 339.221,72.336 328.600 C 72.098 327.280,71.826 325.480,71.733 324.600 C 71.575 323.115,70.368 315.001,68.967 306.000 C 68.310 301.784,67.678 298.715,67.155 297.200 C 66.635 295.693,66.074 290.542,64.586 273.600 C 63.980 266.704,63.567 262.913,62.820 257.400 C 62.612 255.860,62.419 253.610,62.392 252.400 C 62.358 250.846,62.248 250.435,62.019 251.000 C 61.672 251.853,61.704 252.210,60.792 237.600 C 60.099 226.506,60.087 198.330,60.772 188.000 C 61.070 183.490,61.340 172.960,61.371 164.600 C 61.427 149.395,61.770 145.215,63.187 142.453 C 63.371 142.094,63.754 140.990,64.037 140.000 C 65.143 136.134,67.778 129.595,69.920 125.400 C 70.482 124.300,71.134 122.996,71.371 122.503 C 71.607 122.010,71.935 121.605,72.100 121.603 C 72.265 121.601,72.400 121.394,72.400 121.143 C 72.400 119.896,81.223 107.432,82.507 106.864 C 82.676 106.790,83.068 106.475,83.379 106.164 C 83.689 105.854,84.121 105.600,84.338 105.600 C 84.555 105.600,84.793 105.465,84.867 105.300 C 86.062 102.611,103.613 91.637,108.373 90.603 C 109.128 90.439,110.388 89.940,111.173 89.494 C 112.024 89.010,113.891 88.543,115.800 88.334 C 117.560 88.142,119.990 87.805,121.200 87.584 C 122.410 87.364,126.100 86.920,129.400 86.597 C 132.700 86.274,136.480 85.824,137.800 85.597 C 139.120 85.370,142.000 85.006,144.200 84.788 C 146.400 84.570,149.201 84.214,150.424 83.996 C 151.647 83.778,153.987 83.579,155.624 83.553 C 157.261 83.527,159.140 83.358,159.800 83.177 C 161.390 82.743,166.453 82.992,171.400 83.749 " stroke="none" fill="#6a1d05" fill-rule="evenodd"></path><path id="path3" d="M155.200 160.264 C 150.683 161.799,150.000 162.128,150.000 162.768 C 150.000 163.542,148.043 164.800,146.838 164.800 C 146.360 164.800,146.000 165.058,146.000 165.400 C 146.000 165.766,145.627 166.000,145.042 166.000 C 144.516 166.000,143.507 166.540,142.800 167.200 C 142.093 167.860,141.367 168.400,141.187 168.400 C 141.006 168.400,140.524 168.805,140.116 169.300 C 139.321 170.265,137.901 171.406,135.500 173.009 C 134.654 173.573,134.000 174.338,134.000 174.762 C 134.000 175.230,133.623 175.608,133.000 175.764 C 132.379 175.920,132.000 176.299,132.000 176.764 C 132.000 177.210,131.631 177.606,131.090 177.742 C 130.590 177.867,129.015 179.071,127.590 180.416 C 126.166 181.761,124.868 182.983,124.707 183.131 C 123.443 184.294,121.933 186.374,121.754 187.200 C 121.635 187.750,121.376 188.560,121.178 189.000 C 120.980 189.440,120.535 190.700,120.189 191.800 C 119.843 192.900,119.397 194.160,119.199 194.600 C 118.450 196.259,118.103 198.284,118.460 198.921 C 118.681 199.317,118.646 200.257,118.368 201.361 C 118.119 202.348,118.027 204.021,118.164 205.078 C 118.475 207.490,118.476 207.325,118.062 215.000 C 117.871 218.520,117.513 222.017,117.265 222.771 C 117.018 223.526,116.830 225.956,116.849 228.171 C 116.868 230.387,116.721 233.593,116.523 235.295 C 116.325 236.998,116.287 238.618,116.439 238.895 C 116.591 239.173,116.549 242.686,116.345 246.703 C 116.108 251.376,116.114 254.266,116.362 254.728 C 116.612 255.196,116.607 256.076,116.346 257.226 C 116.125 258.201,116.044 259.900,116.166 261.000 C 116.289 262.100,116.379 263.270,116.367 263.600 C 115.739 280.715,116.123 293.951,117.313 296.200 C 117.545 296.640,117.876 298.350,118.048 300.000 C 118.220 301.650,118.486 304.170,118.638 305.600 C 118.791 307.030,119.159 308.555,119.458 308.989 C 119.756 309.423,120.004 310.593,120.008 311.589 C 120.015 313.248,120.405 315.636,121.641 321.600 C 121.892 322.810,122.233 324.160,122.400 324.600 C 122.722 325.452,123.266 327.835,124.067 331.900 C 124.349 333.332,124.769 334.400,125.048 334.400 C 125.358 334.400,125.631 335.384,125.797 337.100 C 125.941 338.585,126.334 340.520,126.672 341.400 C 127.796 344.333,128.445 347.367,128.683 350.800 C 128.812 352.670,129.161 354.555,129.459 354.989 C 129.787 355.468,130.000 356.882,130.001 358.589 C 130.002 363.750,131.019 368.162,133.201 372.461 C 133.832 373.704,134.544 375.448,134.783 376.336 C 135.024 377.230,135.933 378.721,136.821 379.675 C 138.695 381.692,139.390 382.896,139.740 384.737 C 139.880 385.472,140.446 386.971,140.997 388.069 C 141.549 389.167,142.000 390.534,142.000 391.107 C 142.000 392.216,142.600 393.672,145.416 399.400 C 146.390 401.380,147.528 404.117,147.946 405.482 C 149.037 409.050,153.227 415.246,155.345 416.424 C 156.255 416.931,158.737 419.023,160.861 421.073 C 162.985 423.123,164.910 424.800,165.140 424.800 C 165.746 424.800,167.157 426.257,169.207 428.998 C 170.193 430.318,171.313 431.744,171.695 432.169 C 172.078 432.594,172.495 433.269,172.622 433.671 C 172.750 434.072,172.993 434.400,173.164 434.400 C 173.334 434.400,173.817 435.075,174.237 435.899 C 175.140 437.674,176.886 440.517,177.247 440.800 C 177.387 440.910,178.107 442.244,178.846 443.765 C 180.038 446.217,181.736 448.391,186.216 453.200 C 186.934 453.970,188.444 455.230,189.573 456.000 C 190.701 456.770,191.852 457.580,192.131 457.800 C 193.707 459.047,202.417 463.414,204.862 464.184 C 207.273 464.943,208.463 465.419,210.200 466.319 C 212.738 467.634,214.134 468.211,216.200 468.800 C 217.080 469.051,218.160 469.415,218.600 469.609 C 227.026 473.331,238.729 474.629,247.239 472.785 C 249.308 472.338,251.630 471.873,252.400 471.752 C 253.170 471.632,254.250 471.383,254.800 471.199 C 255.350 471.015,256.880 470.562,258.200 470.192 C 259.520 469.823,261.950 469.098,263.600 468.581 C 265.250 468.064,267.410 467.420,268.400 467.149 C 269.390 466.879,271.510 466.150,273.110 465.529 C 274.711 464.908,276.409 464.400,276.883 464.400 C 277.868 464.400,286.047 460.436,286.497 459.741 C 286.660 459.488,287.770 458.634,288.962 457.843 C 291.048 456.458,293.600 453.725,293.600 452.876 C 293.600 452.651,293.735 452.407,293.900 452.333 C 294.443 452.092,296.072 447.070,296.863 443.200 C 297.290 441.110,297.827 439.019,298.058 438.554 C 298.336 437.992,298.401 434.036,298.250 426.754 C 297.964 412.978,297.848 411.920,295.578 402.400 C 295.395 401.630,294.976 399.740,294.647 398.200 C 294.319 396.660,293.679 394.687,293.225 393.815 C 292.771 392.944,292.400 391.920,292.400 391.539 C 292.400 391.159,292.234 390.745,292.032 390.619 C 291.829 390.494,291.357 389.539,290.982 388.496 C 290.608 387.453,289.957 385.822,289.535 384.871 C 289.113 383.919,288.662 382.611,288.532 381.962 C 288.403 381.314,288.140 380.686,287.948 380.568 C 287.757 380.450,287.600 379.949,287.600 379.456 C 287.600 378.963,287.445 378.389,287.256 378.180 C 286.258 377.075,285.495 370.644,284.864 358.000 C 284.446 349.648,283.310 344.599,280.572 338.931 C 279.598 336.913,278.796 335.023,278.791 334.731 C 278.786 334.439,278.250 333.120,277.600 331.800 C 276.950 330.480,276.414 329.180,276.409 328.912 C 276.404 328.644,275.873 327.384,275.230 326.112 C 274.586 324.840,273.670 322.630,273.194 321.200 C 272.718 319.770,271.985 317.837,271.564 316.904 C 271.144 315.972,270.800 314.997,270.800 314.738 C 270.800 314.106,266.122 304.585,265.486 303.923 C 264.660 303.064,262.400 299.366,262.400 298.873 C 262.400 298.621,261.770 297.431,261.000 296.227 C 260.230 295.023,259.600 293.847,259.600 293.614 C 259.600 293.380,259.426 292.877,259.214 292.495 C 258.798 291.747,257.914 289.720,256.204 285.600 C 254.212 280.800,249.497 271.526,248.152 269.764 C 247.419 268.805,246.717 267.610,246.591 267.110 C 246.466 266.609,245.561 265.340,244.581 264.288 C 243.602 263.237,242.800 262.223,242.800 262.035 C 242.800 261.848,242.080 260.974,241.200 260.094 C 240.320 259.214,239.600 258.293,239.600 258.048 C 239.600 257.803,238.983 256.919,238.228 256.084 C 237.474 255.249,236.724 254.034,236.562 253.383 C 236.400 252.732,235.847 251.445,235.334 250.523 C 234.820 249.601,234.400 248.338,234.400 247.717 C 234.400 247.096,233.847 245.454,233.171 244.068 C 232.495 242.682,231.836 240.900,231.707 240.107 C 231.579 239.315,230.783 237.301,229.939 235.633 C 229.094 233.965,228.402 232.060,228.401 231.400 C 228.400 230.686,227.979 229.714,227.361 229.000 C 226.246 227.710,225.088 225.614,224.601 224.000 C 224.435 223.450,223.729 222.190,223.033 221.200 C 220.810 218.038,219.048 213.603,217.154 206.400 C 216.720 204.750,216.099 202.826,215.775 202.124 C 215.450 201.421,214.584 199.165,213.849 197.108 C 213.114 195.052,212.334 193.017,212.115 192.585 C 211.897 192.153,211.395 191.129,211.000 190.308 C 210.606 189.488,209.967 188.717,209.581 188.594 C 209.195 188.472,207.827 187.390,206.540 186.190 C 205.253 184.990,203.795 183.897,203.300 183.761 C 202.805 183.625,202.400 183.353,202.400 183.157 C 202.400 182.960,202.144 182.800,201.831 182.800 C 201.518 182.800,200.753 182.387,200.131 181.883 C 199.509 181.379,197.702 180.551,196.116 180.043 C 194.530 179.536,193.031 178.878,192.785 178.582 C 192.539 178.286,191.407 177.741,190.269 177.372 C 189.131 177.002,187.834 176.367,187.386 175.961 C 186.938 175.555,185.446 174.659,184.069 173.971 C 182.693 173.284,181.295 172.306,180.962 171.799 C 180.630 171.291,179.917 170.766,179.379 170.630 C 178.818 170.490,178.396 170.089,178.391 169.692 C 178.385 169.250,177.663 168.684,176.391 168.125 C 175.225 167.613,174.400 166.992,174.400 166.625 C 174.400 166.268,174.059 166.000,173.603 166.000 C 172.617 166.000,170.400 163.745,170.400 162.741 C 170.400 162.120,170.081 162.000,168.427 162.000 C 166.581 162.000,166.442 161.929,166.287 160.900 L 166.120 159.800 166.060 160.883 L 166.000 161.967 163.941 160.933 C 161.402 159.658,157.796 159.382,155.200 160.264 " stroke="none" fill="#f4ae4b" fill-rule="evenodd"></path></g></svg>