<svg id="svg" version="1.1" width="400" height="581.8181818181819" viewBox="0 0 400 581.8181818181819" xmlns="http://www.w3.org/2000/svg" xmlns:xlink="http://www.w3.org/1999/xlink"><g id="svgg"><path id="path0" d="M230.771 199.355 C 230.645 199.485,228.125 199.689,225.171 199.808 C 222.217 199.927,219.260 200.184,218.600 200.380 C 217.940 200.575,215.510 201.038,213.200 201.408 C 210.890 201.778,208.730 202.224,208.400 202.398 C 208.070 202.572,206.360 203.201,204.600 203.796 C 202.840 204.390,200.050 205.551,198.400 206.374 C 196.750 207.197,194.140 208.388,192.600 209.019 C 191.060 209.651,189.170 210.517,188.400 210.945 C 187.630 211.372,184.669 212.893,181.820 214.324 C 178.971 215.756,176.044 217.469,175.316 218.131 C 174.588 218.794,173.568 219.620,173.050 219.968 C 172.532 220.316,171.382 221.085,170.496 221.679 C 169.609 222.272,166.633 224.993,163.882 227.726 C 160.853 230.735,157.958 233.218,156.540 234.021 C 155.253 234.750,154.110 235.451,154.000 235.577 C 153.452 236.208,150.464 237.904,149.464 238.152 C 143.451 239.643,134.419 249.324,131.750 257.139 C 131.175 258.822,130.390 260.920,130.004 261.800 C 129.023 264.042,127.200 268.692,127.200 268.956 C 127.200 269.076,126.120 271.436,124.800 274.200 C 123.480 276.964,122.400 279.298,122.400 279.387 C 122.400 279.475,122.190 280.055,121.934 280.674 C 121.677 281.293,121.157 282.880,120.778 284.200 C 120.399 285.520,119.439 288.760,118.644 291.400 C 116.885 297.242,115.706 301.433,115.410 302.892 C 115.288 303.492,114.677 304.852,114.052 305.912 C 113.426 306.973,112.685 308.535,112.405 309.384 C 112.125 310.232,111.029 312.625,109.969 314.701 C 108.909 316.777,107.832 319.493,107.577 320.738 C 107.322 321.982,106.925 323.232,106.696 323.515 C 105.199 325.358,105.719 356.373,107.278 358.285 C 107.496 358.552,107.771 360.262,107.890 362.085 C 108.008 363.908,108.238 365.580,108.401 365.800 C 108.563 366.020,108.821 366.895,108.975 367.745 C 109.132 368.616,109.929 370.146,110.801 371.249 C 111.652 372.325,112.470 373.591,112.619 374.060 C 113.094 375.557,116.260 380.148,117.857 381.657 C 119.599 383.303,119.984 383.780,120.715 385.203 C 120.999 385.754,122.169 387.406,123.315 388.875 C 124.462 390.343,125.887 392.321,126.483 393.272 C 127.079 394.222,128.654 396.247,129.983 397.771 C 131.312 399.295,132.400 400.777,132.400 401.064 C 132.400 401.580,135.260 403.210,137.200 403.801 C 137.750 403.968,138.650 404.418,139.200 404.802 C 141.105 406.129,152.122 406.917,155.510 405.969 C 158.304 405.187,168.813 406.232,175.400 407.948 C 184.067 410.205,197.573 406.368,200.998 400.676 C 201.939 399.110,205.555 394.326,206.346 393.599 C 206.706 393.268,207.471 392.368,208.047 391.599 C 208.623 390.829,209.973 389.275,211.047 388.145 C 212.121 387.015,213.720 385.253,214.600 384.229 C 215.480 383.206,216.962 381.920,217.893 381.371 C 218.825 380.823,220.020 379.975,220.550 379.487 C 221.080 378.999,222.118 378.118,222.857 377.530 C 223.596 376.941,226.810 373.801,230.000 370.551 C 240.981 359.363,242.435 358.171,247.700 356.035 C 250.096 355.063,261.701 349.494,263.000 348.693 C 266.508 346.530,269.746 343.682,272.800 340.073 C 274.671 337.862,275.055 337.268,276.340 334.600 C 276.764 333.720,277.850 331.565,278.754 329.810 C 279.658 328.056,280.512 325.986,280.652 325.210 C 280.792 324.435,281.581 322.630,282.404 321.200 C 283.227 319.770,284.380 317.544,284.966 316.254 C 285.552 314.963,286.789 312.962,287.716 311.808 C 288.642 310.653,289.670 309.301,290.000 308.805 C 290.330 308.308,291.350 307.085,292.267 306.087 C 293.872 304.340,294.956 302.459,296.812 298.200 C 297.291 297.100,298.293 294.940,299.039 293.400 C 300.251 290.894,300.868 288.718,302.044 282.800 C 302.240 281.810,302.656 280.100,302.967 279.000 C 303.278 277.900,303.735 275.770,303.982 274.267 C 304.230 272.763,304.698 270.751,305.022 269.795 C 305.347 268.839,305.791 266.649,306.009 264.928 C 306.227 263.208,306.567 261.260,306.765 260.600 C 308.616 254.431,307.651 239.788,305.184 236.600 C 305.014 236.380,304.540 235.210,304.131 234.000 C 302.676 229.700,294.476 218.252,291.410 216.243 C 290.822 215.858,289.589 214.823,288.670 213.943 C 287.752 213.063,285.593 211.591,283.873 210.672 C 278.070 207.569,277.404 207.197,275.600 206.046 C 274.610 205.414,273.395 204.774,272.900 204.622 C 272.405 204.470,272.000 204.185,272.000 203.988 C 272.000 203.792,271.235 203.436,270.300 203.199 C 269.365 202.961,268.240 202.598,267.800 202.392 C 267.360 202.187,265.200 201.653,263.000 201.206 C 260.800 200.759,258.280 200.197,257.400 199.957 C 255.715 199.497,231.171 198.943,230.771 199.355 M234.600 216.080 C 235.260 216.075,237.870 215.951,240.400 215.804 C 245.113 215.531,246.945 215.783,254.600 217.759 C 258.910 218.871,268.800 224.604,268.800 225.989 C 268.800 226.177,270.164 227.651,271.832 229.265 C 273.499 230.879,275.212 232.875,275.639 233.699 C 276.066 234.524,277.371 236.144,278.539 237.299 C 279.708 238.455,281.180 240.300,281.812 241.400 C 282.444 242.500,283.082 243.490,283.228 243.600 C 286.391 245.974,286.232 264.561,282.986 271.817 C 282.142 273.704,280.556 280.787,279.622 286.846 C 279.432 288.082,278.989 289.648,278.638 290.326 C 278.287 291.005,277.806 292.514,277.570 293.680 C 277.008 296.443,275.480 300.633,273.053 306.060 C 272.694 306.864,272.400 307.650,272.400 307.807 C 272.400 307.964,271.794 308.927,271.053 309.946 C 269.620 311.917,268.317 314.626,267.853 316.600 C 267.577 317.771,263.656 326.002,263.184 326.400 C 263.054 326.510,262.353 327.648,261.628 328.929 C 260.026 331.757,259.371 332.448,255.868 335.005 C 254.366 336.102,252.386 337.582,251.468 338.294 C 250.059 339.387,245.207 342.000,244.586 342.000 C 244.480 342.000,242.819 343.015,240.896 344.256 C 238.973 345.496,236.905 346.684,236.300 346.895 C 235.695 347.106,235.200 347.429,235.200 347.612 C 235.200 347.796,234.843 348.059,234.406 348.198 C 233.970 348.337,232.906 349.171,232.043 350.052 C 231.179 350.933,229.691 352.183,228.736 352.831 C 225.897 354.757,224.271 355.982,223.000 357.152 C 222.340 357.759,221.260 358.583,220.600 358.982 C 219.481 359.659,218.150 360.847,213.741 365.100 C 212.772 366.035,211.800 366.800,211.581 366.800 C 211.362 366.800,210.978 367.250,210.727 367.800 C 210.477 368.350,210.022 368.800,209.717 368.800 C 209.412 368.800,208.225 369.742,207.081 370.894 C 205.936 372.045,204.863 372.990,204.695 372.994 C 204.527 372.997,203.621 373.720,202.680 374.600 C 200.221 376.901,198.731 377.880,196.958 378.359 C 196.101 378.591,194.687 379.145,193.815 379.590 C 192.944 380.036,191.558 380.400,190.735 380.400 C 189.912 380.400,188.315 380.598,187.185 380.841 C 184.943 381.321,177.006 380.431,174.607 379.429 C 173.943 379.152,172.258 378.796,170.863 378.639 C 169.468 378.481,167.758 378.117,167.063 377.830 C 163.879 376.514,156.570 375.085,152.060 374.895 C 149.497 374.787,147.220 374.558,147.000 374.385 C 146.780 374.213,145.168 373.776,143.418 373.415 C 139.884 372.687,136.774 370.484,136.221 368.318 C 136.069 367.723,135.603 367.128,135.186 366.996 C 134.688 366.837,134.350 366.248,134.201 365.277 C 134.076 364.465,133.620 363.134,133.187 362.321 C 132.754 361.507,132.398 360.517,132.396 360.121 C 132.394 359.724,131.921 358.410,131.344 357.200 C 130.768 355.990,130.152 354.370,129.975 353.600 C 129.798 352.830,129.466 351.480,129.236 350.600 C 129.007 349.720,128.815 348.156,128.810 347.124 C 128.804 346.092,128.639 345.148,128.442 345.026 C 127.805 344.632,127.105 338.085,127.358 334.888 C 127.493 333.189,127.712 330.000,127.846 327.800 C 127.979 325.600,128.254 323.595,128.456 323.345 C 128.658 323.095,129.080 321.745,129.394 320.345 C 130.684 314.594,131.548 311.212,132.601 307.800 C 133.211 305.820,133.944 302.670,134.230 300.800 C 134.516 298.930,135.115 295.960,135.561 294.200 C 136.008 292.440,136.378 290.550,136.385 290.000 C 136.398 288.969,137.816 285.835,138.700 284.882 C 138.975 284.585,139.200 284.122,139.200 283.852 C 139.200 282.070,145.828 273.563,147.672 272.977 C 149.267 272.471,154.998 266.973,155.999 264.988 C 156.329 264.335,156.709 263.710,156.843 263.600 C 157.237 263.277,159.200 259.444,159.200 258.998 C 159.200 258.773,159.796 257.692,160.525 256.595 C 161.254 255.498,162.084 253.970,162.369 253.200 C 162.853 251.897,163.978 249.578,165.608 246.525 C 166.476 244.898,169.276 241.603,169.800 241.591 C 170.020 241.585,171.491 240.730,173.069 239.691 C 178.312 236.236,180.717 234.800,181.261 234.800 C 181.558 234.800,182.790 234.255,184.000 233.590 C 185.210 232.925,187.820 231.581,189.800 230.604 C 191.780 229.628,194.210 228.347,195.200 227.757 C 196.190 227.168,197.810 226.235,198.800 225.683 C 199.790 225.131,201.029 224.347,201.554 223.940 C 202.079 223.533,202.726 223.200,202.992 223.200 C 203.258 223.200,203.999 222.750,204.638 222.200 C 205.277 221.651,205.952 221.201,206.137 221.200 C 206.322 221.200,206.914 220.854,207.452 220.431 C 207.989 220.008,209.998 219.190,211.915 218.613 C 213.832 218.036,215.999 217.375,216.731 217.145 C 217.462 216.915,219.583 216.587,221.442 216.418 C 223.302 216.248,224.953 215.974,225.112 215.809 C 225.270 215.643,227.200 215.638,229.400 215.798 C 231.600 215.957,233.940 216.084,234.600 216.080 " stroke="none" fill="#d87628" fill-rule="evenodd"></path><path id="path1" d="M225.112 215.809 C 224.953 215.974,223.302 216.248,221.442 216.418 C 219.583 216.587,217.462 216.915,216.731 217.145 C 215.999 217.375,213.832 218.036,211.915 218.613 C 209.998 219.190,207.989 220.008,207.452 220.431 C 206.914 220.854,206.322 221.200,206.137 221.200 C 205.952 221.201,205.277 221.651,204.638 222.200 C 203.999 222.750,203.258 223.200,202.992 223.200 C 202.726 223.200,202.079 223.533,201.554 223.940 C 201.029 224.347,199.790 225.131,198.800 225.683 C 197.810 226.235,196.190 227.168,195.200 227.757 C 194.210 228.347,191.780 229.628,189.800 230.604 C 187.820 231.581,185.210 232.925,184.000 233.590 C 182.790 234.255,181.558 234.800,181.261 234.800 C 180.717 234.800,178.312 236.236,173.069 239.691 C 171.491 240.730,170.020 241.585,169.800 241.591 C 169.276 241.603,166.476 244.898,165.608 246.525 C 163.978 249.578,162.853 251.897,162.369 253.200 C 162.084 253.970,161.254 255.498,160.525 256.595 C 159.796 257.692,159.200 258.773,159.200 258.998 C 159.200 259.444,157.237 263.277,156.843 263.600 C 156.709 263.710,156.329 264.335,155.999 264.988 C 154.998 266.973,149.267 272.471,147.672 272.977 C 145.828 273.563,139.200 282.070,139.200 283.852 C 139.200 284.122,138.975 284.585,138.700 284.882 C 137.816 285.835,136.398 288.969,136.385 290.000 C 136.378 290.550,136.008 292.440,135.561 294.200 C 135.115 295.960,134.516 298.930,134.230 300.800 C 133.944 302.670,133.211 305.820,132.601 307.800 C 131.548 311.212,130.684 314.594,129.394 320.345 C 129.080 321.745,128.658 323.095,128.456 323.345 C 128.254 323.595,127.979 325.600,127.846 327.800 C 127.712 330.000,127.493 333.189,127.358 334.888 C 127.105 338.085,127.805 344.632,128.442 345.026 C 128.639 345.148,128.804 346.092,128.810 347.124 C 128.815 348.156,129.007 349.720,129.236 350.600 C 129.466 351.480,129.798 352.830,129.975 353.600 C 130.152 354.370,130.768 355.990,131.344 357.200 C 131.921 358.410,132.394 359.724,132.396 360.121 C 132.398 360.517,132.754 361.507,133.187 362.321 C 133.620 363.134,134.076 364.465,134.201 365.277 C 134.350 366.248,134.688 366.837,135.186 366.996 C 135.603 367.128,136.069 367.723,136.221 368.318 C 136.774 370.484,139.884 372.687,143.418 373.415 C 145.168 373.776,146.780 374.213,147.000 374.385 C 147.220 374.558,149.497 374.787,152.060 374.895 C 156.570 375.085,163.879 376.514,167.063 377.830 C 167.758 378.117,169.468 378.481,170.863 378.639 C 172.258 378.796,173.943 379.152,174.607 379.429 C 177.006 380.431,184.943 381.321,187.185 380.841 C 188.315 380.598,189.912 380.400,190.735 380.400 C 191.558 380.400,192.944 380.036,193.815 379.590 C 194.687 379.145,196.101 378.591,196.958 378.359 C 198.731 377.880,200.221 376.901,202.680 374.600 C 203.621 373.720,204.527 372.997,204.695 372.994 C 204.863 372.990,205.936 372.045,207.081 370.894 C 208.225 369.742,209.412 368.800,209.717 368.800 C 210.022 368.800,210.477 368.350,210.727 367.800 C 210.978 367.250,211.362 366.800,211.581 366.800 C 211.800 366.800,212.772 366.035,213.741 365.100 C 218.150 360.847,219.481 359.659,220.600 358.982 C 221.260 358.583,222.340 357.759,223.000 357.152 C 224.271 355.982,225.897 354.757,228.736 352.831 C 229.691 352.183,231.179 350.933,232.043 350.052 C 232.906 349.171,233.970 348.337,234.406 348.198 C 234.843 348.059,235.200 347.796,235.200 347.612 C 235.200 347.429,235.695 347.106,236.300 346.895 C 236.905 346.684,238.973 345.496,240.896 344.256 C 242.819 343.015,244.480 342.000,244.586 342.000 C 245.207 342.000,250.059 339.387,251.468 338.294 C 252.386 337.582,254.366 336.102,255.868 335.005 C 259.371 332.448,260.026 331.757,261.628 328.929 C 262.353 327.648,263.054 326.510,263.184 326.400 C 263.656 326.002,267.577 317.771,267.853 316.600 C 268.317 314.626,269.620 311.917,271.053 309.946 C 271.794 308.927,272.400 307.964,272.400 307.807 C 272.400 307.650,272.694 306.864,273.053 306.060 C 275.480 300.633,277.008 296.443,277.570 293.680 C 277.806 292.514,278.287 291.005,278.638 290.326 C 278.989 289.648,279.432 288.082,279.622 286.846 C 280.556 280.787,282.142 273.704,282.986 271.817 C 286.232 264.561,286.391 245.974,283.228 243.600 C 283.082 243.490,282.444 242.500,281.812 241.400 C 281.180 240.300,279.708 238.455,278.539 237.299 C 277.371 236.144,276.066 234.524,275.639 233.699 C 275.212 232.875,273.499 230.879,271.832 229.265 C 270.164 227.651,268.800 226.177,268.800 225.989 C 268.800 224.604,258.910 218.871,254.600 217.759 C 246.945 215.783,245.113 215.531,240.400 215.804 C 234.532 216.145,234.189 216.145,229.400 215.798 C 227.200 215.638,225.270 215.643,225.112 215.809 " stroke="none" fill="#f8a83a" fill-rule="evenodd"></path><path id="path2" d="M240.400 190.889 C 229.502 191.245,220.703 191.801,217.200 192.356 C 209.518 193.572,203.737 195.070,200.200 196.761 C 198.880 197.392,197.170 198.030,196.400 198.178 C 195.630 198.326,194.640 198.607,194.200 198.802 C 192.402 199.602,187.860 201.243,182.130 203.165 C 173.378 206.100,169.109 208.679,162.412 215.078 C 158.502 218.813,153.914 222.800,153.525 222.800 C 153.357 222.800,152.055 223.565,150.631 224.500 C 149.208 225.435,146.473 227.100,144.552 228.200 C 142.631 229.300,140.240 230.875,139.237 231.700 C 138.235 232.525,137.205 233.200,136.949 233.200 C 136.454 233.200,131.361 238.050,129.382 240.407 C 128.185 241.831,126.318 245.369,125.797 247.200 C 125.640 247.750,124.922 249.460,124.200 251.000 C 122.614 254.386,120.400 260.154,120.400 260.900 C 120.400 261.197,120.242 261.611,120.048 261.820 C 119.855 262.029,119.483 262.870,119.221 263.689 C 118.959 264.507,118.309 265.947,117.776 266.889 C 117.242 267.830,116.468 269.320,116.056 270.200 C 115.423 271.549,112.595 276.046,111.527 277.400 C 111.354 277.620,110.759 278.366,110.206 279.058 C 109.653 279.750,109.200 280.417,109.200 280.541 C 109.200 280.665,108.320 282.619,107.244 284.883 C 106.169 287.148,105.196 289.450,105.083 290.000 C 104.533 292.669,102.130 299.672,100.967 302.000 C 100.472 302.990,99.776 304.970,99.420 306.400 C 99.064 307.830,98.605 309.360,98.401 309.800 C 94.764 317.632,92.690 342.436,94.297 358.881 C 94.861 364.655,95.100 365.827,97.444 374.300 C 98.020 376.383,100.078 380.261,101.868 382.638 C 102.380 383.319,102.800 384.043,102.800 384.247 C 102.800 384.451,103.303 385.244,103.918 386.009 C 104.532 386.774,105.927 388.808,107.018 390.529 C 111.185 397.107,113.555 400.634,114.420 401.546 C 114.914 402.067,115.950 403.327,116.722 404.346 C 117.495 405.366,118.279 406.260,118.464 406.333 C 118.649 406.407,118.800 406.717,118.800 407.023 C 118.800 407.633,124.682 412.801,126.356 413.662 C 126.930 413.957,127.490 414.289,127.600 414.399 C 128.209 415.010,132.936 416.918,135.000 417.387 C 136.320 417.686,138.210 418.152,139.200 418.421 C 141.157 418.954,145.750 419.017,170.800 418.853 C 179.490 418.796,187.680 418.595,189.000 418.407 C 194.070 417.686,198.273 416.438,200.440 415.010 C 201.618 414.235,202.768 413.600,202.996 413.600 C 203.570 413.600,207.095 411.158,208.859 409.539 C 209.661 408.803,210.980 407.675,211.789 407.033 C 212.599 406.391,213.833 404.940,214.531 403.809 C 215.955 401.502,215.959 401.496,218.831 396.800 C 221.235 392.868,222.902 390.286,223.220 390.000 C 223.343 389.890,224.507 388.450,225.808 386.800 C 227.109 385.150,229.260 382.810,230.587 381.600 C 231.914 380.390,234.182 378.230,235.628 376.800 C 237.073 375.370,239.131 373.480,240.200 372.600 C 242.258 370.907,242.720 370.642,249.501 367.249 C 251.865 366.066,254.250 364.868,254.800 364.587 C 260.496 361.680,261.856 360.965,262.200 360.697 C 262.420 360.526,263.352 359.894,264.271 359.293 C 265.876 358.244,276.347 348.479,279.756 344.851 C 282.000 342.464,282.557 341.905,283.440 341.151 C 284.620 340.144,287.336 336.772,288.393 335.000 C 288.919 334.120,289.757 332.979,290.256 332.463 C 290.756 331.948,291.552 330.688,292.025 329.663 C 293.272 326.966,296.445 320.668,296.793 320.200 C 296.956 319.980,297.207 319.310,297.349 318.712 C 297.492 318.114,298.135 316.764,298.778 315.712 C 301.254 311.660,306.000 303.192,306.000 302.826 C 306.000 302.615,306.450 301.596,307.000 300.562 C 307.550 299.527,308.000 298.435,308.000 298.135 C 308.000 297.835,308.162 297.277,308.360 296.895 C 308.558 296.513,308.993 294.760,309.327 293.000 C 309.661 291.240,310.323 288.270,310.797 286.400 C 311.272 284.530,311.919 281.404,312.235 279.454 C 312.551 277.504,313.076 275.434,313.401 274.854 C 313.911 273.947,315.602 268.053,317.384 260.973 C 317.664 259.858,318.091 258.577,318.333 258.126 C 319.073 256.742,320.400 248.435,320.400 245.180 C 320.400 241.840,320.004 240.409,317.825 235.879 C 317.041 234.249,316.399 232.575,316.397 232.158 C 316.395 231.741,315.567 229.960,314.557 228.200 C 313.547 226.440,312.556 224.640,312.356 224.200 C 312.155 223.760,311.539 222.680,310.987 221.800 C 309.953 220.154,309.719 219.682,308.165 216.113 C 307.097 213.660,306.942 213.453,303.771 210.252 C 298.977 205.413,294.672 202.362,291.000 201.201 C 290.120 200.923,289.220 200.561,289.000 200.397 C 288.780 200.232,288.150 199.970,287.600 199.813 C 286.714 199.560,283.224 198.278,281.000 197.389 C 267.404 191.950,257.324 190.337,240.400 190.889 M257.400 199.957 C 258.280 200.197,260.800 200.759,263.000 201.206 C 265.200 201.653,267.360 202.187,267.800 202.392 C 268.240 202.598,269.365 202.961,270.300 203.199 C 271.235 203.436,272.000 203.792,272.000 203.988 C 272.000 204.185,272.405 204.470,272.900 204.622 C 273.395 204.774,274.610 205.414,275.600 206.046 C 277.404 207.197,278.070 207.569,283.873 210.672 C 285.593 211.591,287.752 213.063,288.670 213.943 C 289.589 214.823,290.822 215.858,291.410 216.243 C 294.476 218.252,302.676 229.700,304.131 234.000 C 304.540 235.210,305.014 236.380,305.184 236.600 C 307.651 239.788,308.616 254.431,306.765 260.600 C 306.567 261.260,306.227 263.208,306.009 264.928 C 305.791 266.649,305.347 268.839,305.022 269.795 C 304.698 270.751,304.230 272.763,303.982 274.267 C 303.735 275.770,303.278 277.900,302.967 279.000 C 302.656 280.100,302.240 281.810,302.044 282.800 C 300.868 288.718,300.251 290.894,299.039 293.400 C 298.293 294.940,297.291 297.100,296.812 298.200 C 294.956 302.459,293.872 304.340,292.267 306.087 C 291.350 307.085,290.330 308.308,290.000 308.805 C 289.670 309.301,288.642 310.653,287.716 311.808 C 286.789 312.962,285.552 314.963,284.966 316.254 C 284.380 317.544,283.227 319.770,282.404 321.200 C 281.581 322.630,280.792 324.435,280.652 325.210 C 280.512 325.986,279.658 328.056,278.754 329.810 C 277.850 331.565,276.764 333.720,276.340 334.600 C 275.055 337.268,274.671 337.862,272.800 340.073 C 269.746 343.682,266.508 346.530,263.000 348.693 C 261.701 349.494,250.096 355.063,247.700 356.035 C 242.435 358.171,240.981 359.363,230.000 370.551 C 226.810 373.801,223.596 376.941,222.857 377.530 C 222.118 378.118,221.080 378.999,220.550 379.487 C 220.020 379.975,218.825 380.823,217.893 381.371 C 216.962 381.920,215.480 383.206,214.600 384.229 C 213.720 385.253,212.121 387.015,211.047 388.145 C 209.973 389.275,208.623 390.829,208.047 391.599 C 207.471 392.368,206.706 393.268,206.346 393.599 C 205.555 394.326,201.939 399.110,200.998 400.676 C 197.573 406.368,184.067 410.205,175.400 407.948 C 168.813 406.232,158.304 405.187,155.510 405.969 C 152.122 406.917,141.105 406.129,139.200 404.802 C 138.650 404.418,137.750 403.968,137.200 403.801 C 135.260 403.210,132.400 401.580,132.400 401.064 C 132.400 400.777,131.312 399.295,129.983 397.771 C 128.654 396.247,127.079 394.222,126.483 393.272 C 125.887 392.321,124.462 390.343,123.315 388.875 C 122.169 387.406,120.999 385.754,120.715 385.203 C 119.984 383.780,119.599 383.303,117.857 381.657 C 116.260 380.148,113.094 375.557,112.619 374.060 C 112.470 373.591,111.652 372.325,110.801 371.249 C 109.929 370.146,109.132 368.616,108.975 367.745 C 108.821 366.895,108.563 366.020,108.401 365.800 C 108.238 365.580,108.008 363.908,107.890 362.085 C 107.771 360.262,107.496 358.552,107.278 358.285 C 105.719 356.373,105.199 325.358,106.696 323.515 C 106.925 323.232,107.322 321.982,107.577 320.738 C 107.832 319.493,108.909 316.777,109.969 314.701 C 111.029 312.625,112.125 310.232,112.405 309.384 C 112.685 308.535,113.426 306.973,114.052 305.912 C 114.677 304.852,115.288 303.492,115.410 302.892 C 115.706 301.433,116.885 297.242,118.644 291.400 C 119.439 288.760,120.399 285.520,120.778 284.200 C 121.157 282.880,121.677 281.293,121.934 280.674 C 122.190 280.055,122.400 279.475,122.400 279.387 C 122.400 279.298,123.480 276.964,124.800 274.200 C 126.120 271.436,127.200 269.076,127.200 268.956 C 127.200 268.692,129.023 264.042,130.004 261.800 C 130.390 260.920,131.175 258.822,131.750 257.139 C 134.419 249.324,143.451 239.643,149.464 238.152 C 150.464 237.904,153.452 236.208,154.000 235.577 C 154.110 235.451,155.253 234.750,156.540 234.021 C 157.958 233.218,160.853 230.735,163.882 227.726 C 166.633 224.993,169.609 222.272,170.496 221.679 C 171.382 221.085,172.532 220.316,173.050 219.968 C 173.568 219.620,174.588 218.794,175.316 218.131 C 176.044 217.469,178.971 215.756,181.820 214.324 C 184.669 212.893,187.630 211.372,188.400 210.945 C 189.170 210.517,191.060 209.651,192.600 209.019 C 194.140 208.388,196.750 207.197,198.400 206.374 C 200.050 205.551,202.840 204.390,204.600 203.796 C 206.360 203.201,208.070 202.572,208.400 202.398 C 208.730 202.224,210.890 201.778,213.200 201.408 C 215.510 201.038,217.940 200.575,218.600 200.380 C 219.260 200.184,222.217 199.927,225.171 199.808 C 228.125 199.689,230.645 199.485,230.771 199.355 C 231.171 198.943,255.715 199.497,257.400 199.957 " stroke="none" fill="#bf601e" fill-rule="evenodd"></path><path id="path3" d="M285.000 140.451 C 277.860 140.944,275.166 141.448,272.556 142.781 L 270.200 143.983 229.400 144.095 C 185.088 144.217,186.933 144.120,185.382 146.427 L 184.645 147.523 176.223 147.690 C 166.838 147.877,166.625 147.921,165.932 149.838 L 165.439 151.200 162.020 151.204 C 156.896 151.211,155.860 151.478,154.122 153.242 C 153.285 154.092,152.285 154.790,151.900 154.793 C 151.338 154.799,151.200 155.155,151.200 156.600 L 151.200 158.400 149.400 158.400 L 147.600 158.400 147.600 160.192 L 147.600 161.985 138.500 162.092 L 129.400 162.200 129.278 163.885 L 129.155 165.570 125.678 165.685 L 122.200 165.800 122.078 167.478 C 121.957 169.140,121.940 169.157,120.278 169.278 C 118.612 169.399,118.599 169.412,118.477 171.100 L 118.354 172.800 114.777 172.800 L 111.200 172.800 111.200 176.400 L 111.200 180.000 109.400 180.000 L 107.600 180.000 107.600 181.800 L 107.600 183.600 105.800 183.600 L 104.000 183.600 104.000 187.400 L 104.000 191.200 102.200 191.200 L 100.400 191.200 100.400 193.000 L 100.400 194.800 98.400 194.800 L 96.400 194.800 96.400 196.600 L 96.400 198.400 94.600 198.400 L 92.800 198.400 92.800 202.000 L 92.800 205.600 91.000 205.600 L 89.200 205.600 89.200 207.377 L 89.200 209.154 87.500 209.277 C 85.812 209.399,85.799 209.412,85.678 211.078 C 85.557 212.740,85.540 212.757,83.878 212.878 L 82.200 213.000 82.085 216.478 L 81.970 219.955 80.285 220.078 C 78.611 220.199,78.599 220.211,78.477 221.900 L 78.354 223.600 76.577 223.600 L 74.800 223.600 74.800 227.400 L 74.800 231.200 73.000 231.200 L 71.200 231.200 71.200 234.800 L 71.200 238.400 69.400 238.400 L 67.600 238.400 67.600 243.800 L 67.600 249.200 65.800 249.200 L 64.000 249.200 64.000 258.200 L 64.000 267.200 62.208 267.200 L 60.415 267.200 60.308 276.300 L 60.200 285.400 58.400 285.600 L 56.600 285.800 56.491 292.877 L 56.382 299.955 54.691 300.077 L 53.000 300.200 52.896 316.500 L 52.791 332.800 50.996 332.800 L 49.200 332.800 49.200 343.800 L 49.200 354.800 47.395 354.800 L 45.590 354.800 45.695 369.100 L 45.800 383.400 47.500 383.523 L 49.200 383.646 49.200 390.823 L 49.200 398.000 50.994 398.000 L 52.787 398.000 52.894 408.900 L 53.000 419.800 54.689 419.922 L 56.377 420.045 56.489 425.322 L 56.600 430.600 58.500 430.722 L 60.400 430.844 60.400 436.222 L 60.400 441.600 62.200 441.600 L 64.000 441.600 64.000 445.200 L 64.000 448.800 65.800 448.800 L 67.600 448.800 67.600 450.600 L 67.600 452.400 69.400 452.400 L 71.200 452.400 71.200 454.200 L 71.200 456.000 74.778 456.000 L 78.356 456.000 78.478 457.900 L 78.600 459.800 82.078 459.915 L 85.555 460.030 85.678 461.715 L 85.800 463.400 89.278 463.515 L 92.755 463.630 92.878 465.315 L 93.000 467.000 96.700 467.115 L 100.400 467.230 100.400 469.015 L 100.400 470.800 105.800 470.800 L 111.200 470.800 111.200 472.600 L 111.200 474.400 116.577 474.400 L 121.954 474.400 122.077 476.100 L 122.200 477.800 131.000 477.800 L 139.800 477.800 139.923 476.100 L 140.046 474.400 154.600 474.400 L 169.154 474.400 169.277 476.100 C 169.399 477.788,169.412 477.801,171.078 477.922 C 172.740 478.043,172.757 478.060,172.878 479.722 C 172.999 481.388,173.012 481.401,174.698 481.523 C 176.168 481.629,176.431 481.791,176.652 482.723 C 177.494 486.273,183.600 486.230,183.600 482.674 C 183.600 481.843,183.897 481.487,184.956 481.044 C 185.940 480.633,186.443 480.082,186.787 479.039 C 187.105 478.076,187.573 477.522,188.202 477.364 C 189.318 477.084,190.262 476.103,190.461 475.016 C 190.553 474.513,191.046 474.142,191.837 473.980 C 193.569 473.625,193.904 473.350,194.192 472.035 C 194.440 470.906,194.522 470.873,197.723 470.598 C 201.142 470.305,203.235 469.429,204.019 467.964 C 204.769 466.563,209.768 466.867,211.200 468.400 C 213.563 470.930,216.400 468.106,216.400 463.223 L 216.400 460.046 218.100 459.923 L 219.800 459.800 219.922 457.900 L 220.044 456.000 223.622 456.000 L 227.200 456.000 227.200 454.200 L 227.200 452.400 230.777 452.400 L 234.354 452.400 234.477 450.700 L 234.600 449.000 238.300 448.885 L 242.000 448.770 242.000 446.985 L 242.000 445.200 245.600 445.200 L 249.200 445.200 249.200 443.400 L 249.200 441.600 252.800 441.600 L 256.400 441.600 256.400 439.823 L 256.400 438.046 258.100 437.923 C 259.792 437.801,259.801 437.792,259.923 436.100 L 260.046 434.400 263.623 434.400 L 267.200 434.400 267.200 432.600 L 267.200 430.800 269.000 430.800 L 270.800 430.800 270.800 429.000 L 270.800 427.200 272.600 427.200 L 274.400 427.200 274.400 425.400 L 274.400 423.600 276.200 423.600 L 278.000 423.600 278.000 421.800 L 278.000 420.000 287.200 420.000 L 296.400 420.000 296.400 421.000 C 296.400 424.863,305.046 424.473,306.790 420.530 C 307.211 419.579,307.814 418.800,308.132 418.800 C 310.154 418.800,310.350 415.189,308.388 414.073 L 307.205 413.400 307.203 409.500 L 307.200 405.600 305.400 405.600 L 303.600 405.600 303.600 394.600 L 303.600 383.600 305.400 383.600 L 307.200 383.600 307.200 381.800 L 307.200 380.000 309.000 380.000 L 310.800 380.000 310.800 378.200 L 310.800 376.400 312.578 376.400 L 314.356 376.400 314.478 374.500 L 314.600 372.600 320.100 372.489 L 325.600 372.377 325.600 370.589 L 325.600 368.800 332.800 368.800 L 340.000 368.800 340.000 367.000 L 340.000 365.200 341.800 365.200 L 343.600 365.200 343.600 363.400 L 343.600 361.600 345.400 361.600 L 347.200 361.600 347.200 359.800 L 347.200 358.000 349.000 358.000 L 350.800 358.000 350.800 356.200 L 350.800 354.400 352.600 354.400 L 354.400 354.400 354.400 352.600 L 354.400 350.800 356.200 350.800 L 358.000 350.800 358.000 349.022 L 358.000 347.244 359.900 347.122 L 361.800 347.000 361.915 343.522 L 362.030 340.045 363.715 339.922 L 365.400 339.800 365.509 332.500 L 365.618 325.200 367.409 325.200 L 369.200 325.200 369.200 314.423 L 369.200 303.646 370.900 303.523 L 372.600 303.400 372.706 290.700 L 372.811 278.000 374.606 278.000 L 376.400 278.000 376.400 256.400 L 376.400 234.800 374.605 234.800 L 372.810 234.800 372.705 220.300 L 372.600 205.800 370.900 205.677 L 369.200 205.554 369.200 201.977 L 369.200 198.400 367.400 198.400 L 365.600 198.400 365.600 193.000 L 365.600 187.600 363.815 187.600 L 362.030 187.600 361.915 183.900 L 361.800 180.200 359.900 180.078 L 358.000 179.956 358.000 176.378 L 358.000 172.800 356.200 172.800 L 354.400 172.800 354.400 171.000 L 354.400 169.200 352.600 169.200 L 350.800 169.200 350.800 165.600 L 350.800 162.000 349.000 162.000 L 347.200 162.000 347.200 160.200 L 347.200 158.400 343.600 158.400 L 340.000 158.400 340.000 156.600 L 340.000 154.800 331.000 154.800 L 322.000 154.800 322.000 153.000 L 322.000 151.200 316.400 151.200 L 310.800 151.200 310.800 149.400 L 310.800 147.600 309.000 147.600 L 307.200 147.600 307.200 145.800 L 307.200 144.000 305.400 144.000 C 303.615 144.000,303.600 143.988,303.600 142.623 C 303.600 139.899,299.653 139.438,285.000 140.451 M258.800 191.427 C 266.537 192.601,274.126 194.639,281.000 197.389 C 283.224 198.278,286.714 199.560,287.600 199.813 C 288.150 199.970,288.780 200.232,289.000 200.397 C 289.220 200.561,290.120 200.923,291.000 201.201 C 294.672 202.362,298.977 205.413,303.771 210.252 C 306.942 213.453,307.097 213.660,308.165 216.113 C 309.719 219.682,309.953 220.154,310.987 221.800 C 311.539 222.680,312.155 223.760,312.356 224.200 C 312.556 224.640,313.547 226.440,314.557 228.200 C 315.567 229.960,316.395 231.741,316.397 232.158 C 316.399 232.575,317.041 234.249,317.825 235.879 C 320.004 240.409,320.400 241.840,320.400 245.180 C 320.400 248.435,319.073 256.742,318.333 258.126 C 318.091 258.577,317.664 259.858,317.384 260.973 C 315.602 268.053,313.911 273.947,313.401 274.854 C 313.076 275.434,312.551 277.504,312.235 279.454 C 311.919 281.404,311.272 284.530,310.797 286.400 C 310.323 288.270,309.661 291.240,309.327 293.000 C 308.993 294.760,308.558 296.513,308.360 296.895 C 308.162 297.277,308.000 297.835,308.000 298.135 C 308.000 298.435,307.550 299.527,307.000 300.562 C 306.450 301.596,306.000 302.615,306.000 302.826 C 306.000 303.192,301.254 311.660,298.778 315.712 C 298.135 316.764,297.492 318.114,297.349 318.712 C 297.207 319.310,296.956 319.980,296.793 320.200 C 296.445 320.668,293.272 326.966,292.025 329.663 C 291.552 330.688,290.756 331.948,290.256 332.463 C 289.757 332.979,288.919 334.120,288.393 335.000 C 287.336 336.772,284.620 340.144,283.440 341.151 C 282.557 341.905,282.000 342.464,279.756 344.851 C 276.347 348.479,265.876 358.244,264.271 359.293 C 263.352 359.894,262.420 360.526,262.200 360.697 C 261.856 360.965,260.496 361.680,254.800 364.587 C 254.250 364.868,251.865 366.066,249.501 367.249 C 242.720 370.642,242.258 370.907,240.200 372.600 C 239.131 373.480,237.073 375.370,235.628 376.800 C 234.182 378.230,231.914 380.390,230.587 381.600 C 229.260 382.810,227.109 385.150,225.808 386.800 C 224.507 388.450,223.343 389.890,223.220 390.000 C 222.902 390.286,221.235 392.868,218.831 396.800 C 215.959 401.496,215.955 401.502,214.531 403.809 C 213.833 404.940,212.599 406.391,211.789 407.033 C 210.980 407.675,209.661 408.803,208.859 409.539 C 207.095 411.158,203.570 413.600,202.996 413.600 C 202.768 413.600,201.618 414.235,200.440 415.010 C 198.273 416.438,194.070 417.686,189.000 418.407 C 187.680 418.595,179.490 418.796,170.800 418.853 C 145.750 419.017,141.157 418.954,139.200 418.421 C 138.210 418.152,136.320 417.686,135.000 417.387 C 132.936 416.918,128.209 415.010,127.600 414.399 C 127.490 414.289,126.930 413.957,126.356 413.662 C 124.682 412.801,118.800 407.633,118.800 407.023 C 118.800 406.717,118.649 406.407,118.464 406.333 C 118.279 406.260,117.495 405.366,116.722 404.346 C 115.950 403.327,114.914 402.067,114.420 401.546 C 113.555 400.634,111.185 397.107,107.018 390.529 C 105.927 388.808,104.532 386.774,103.918 386.009 C 103.303 385.244,102.800 384.451,102.800 384.247 C 102.800 384.043,102.380 383.319,101.868 382.638 C 100.078 380.261,98.020 376.383,97.444 374.300 C 95.100 365.827,94.861 364.655,94.297 358.881 C 92.690 342.436,94.764 317.632,98.401 309.800 C 98.605 309.360,99.064 307.830,99.420 306.400 C 99.776 304.970,100.472 302.990,100.967 302.000 C 102.130 299.672,104.533 292.669,105.083 290.000 C 105.196 289.450,106.169 287.148,107.244 284.883 C 108.320 282.619,109.200 280.665,109.200 280.541 C 109.200 280.417,109.653 279.750,110.206 279.058 C 110.759 278.366,111.354 277.620,111.527 277.400 C 112.595 276.046,115.423 271.549,116.056 270.200 C 116.468 269.320,117.242 267.830,117.776 266.889 C 118.309 265.947,118.959 264.507,119.221 263.689 C 119.483 262.870,119.855 262.029,120.048 261.820 C 120.242 261.611,120.400 261.197,120.400 260.900 C 120.400 260.154,122.614 254.386,124.200 251.000 C 124.922 249.460,125.640 247.750,125.797 247.200 C 126.318 245.369,128.185 241.831,129.382 240.407 C 131.361 238.050,136.454 233.200,136.949 233.200 C 137.205 233.200,138.235 232.525,139.237 231.700 C 140.240 230.875,142.631 229.300,144.552 228.200 C 146.473 227.100,149.208 225.435,150.631 224.500 C 152.055 223.565,153.357 222.800,153.525 222.800 C 153.914 222.800,158.502 218.813,162.412 215.078 C 169.109 208.679,173.378 206.100,182.130 203.165 C 187.860 201.243,192.402 199.602,194.200 198.802 C 194.640 198.607,195.630 198.326,196.400 198.178 C 197.170 198.030,198.880 197.392,200.200 196.761 C 205.533 194.212,215.110 192.252,225.600 191.564 C 241.541 190.518,252.514 190.473,258.800 191.427 " stroke="none" fill="#ac4b15" fill-rule="evenodd"></path></g></svg>