<svg id="svg" version="1.1" width="400" height="243.47826086956522" viewBox="0 0 400 243.47826086956522" xmlns="http://www.w3.org/2000/svg" xmlns:xlink="http://www.w3.org/1999/xlink"><g id="svgg"><path id="path0" d="M202.710 45.862 C 189.818 53.663,185.945 55.909,185.771 55.684 C 185.647 55.523,183.921 52.384,181.935 48.708 C 179.950 45.032,178.259 42.097,178.177 42.187 C 178.095 42.276,176.943 45.906,175.617 50.254 C 174.292 54.602,172.801 59.458,172.306 61.046 L 171.405 63.932 163.272 56.102 C 158.760 51.758,155.056 48.361,154.954 48.472 C 154.852 48.583,153.070 54.365,150.994 61.321 C 148.918 68.278,147.141 74.053,147.043 74.155 C 146.946 74.258,144.759 72.042,142.183 69.233 C 139.606 66.423,137.413 64.154,137.309 64.191 C 137.205 64.227,132.427 71.270,126.691 79.842 C 120.956 88.413,116.148 95.550,116.008 95.701 C 115.809 95.915,113.849 95.479,107.175 93.739 C 102.457 92.509,98.579 91.522,98.556 91.545 C 98.534 91.568,100.991 97.380,104.016 104.461 C 108.728 115.488,109.468 117.372,109.179 117.594 C 108.993 117.737,105.238 119.870,100.835 122.334 C 96.432 124.799,92.829 126.872,92.829 126.943 C 92.829 127.014,98.521 130.366,105.477 134.393 C 112.434 138.421,118.125 141.785,118.125 141.869 C 118.125 141.953,112.633 146.416,105.920 151.786 C 99.207 157.155,93.756 161.590,93.807 161.640 C 93.857 161.691,101.351 162.036,110.459 162.407 C 119.567 162.778,127.038 163.105,127.062 163.133 C 127.085 163.162,123.676 167.860,119.486 173.574 C 115.296 179.289,111.883 183.985,111.900 184.010 C 111.918 184.036,119.296 182.544,128.296 180.695 C 137.295 178.846,144.695 177.370,144.739 177.414 C 144.784 177.458,146.325 184.268,148.165 192.547 C 150.005 200.825,151.545 207.631,151.588 207.670 C 151.631 207.709,161.443 201.863,173.393 194.678 C 190.878 184.166,195.143 181.691,195.236 181.999 C 195.299 182.210,196.069 185.381,196.948 189.046 C 197.826 192.710,198.618 195.878,198.708 196.086 C 198.858 196.435,209.898 192.163,235.738 181.758 L 236.693 181.374 244.957 190.517 C 249.501 195.547,253.294 199.661,253.384 199.661 C 253.475 199.661,256.085 195.174,259.185 189.691 C 262.286 184.207,264.924 179.587,265.048 179.426 C 265.223 179.197,267.764 179.077,276.443 178.886 C 282.586 178.751,287.636 178.617,287.664 178.588 C 287.693 178.560,286.155 173.000,284.246 166.234 C 282.338 159.467,280.800 153.907,280.830 153.877 C 280.860 153.847,286.560 153.517,293.498 153.142 C 300.436 152.768,306.132 152.435,306.157 152.402 C 306.181 152.370,301.860 146.906,296.554 140.260 C 291.249 133.614,286.925 128.153,286.946 128.125 C 286.967 128.096,291.489 128.328,296.995 128.640 C 302.501 128.952,307.030 129.178,307.059 129.143 C 307.088 129.108,300.531 119.678,292.489 108.187 C 284.447 96.697,277.906 87.253,277.952 87.200 C 277.999 87.148,281.772 85.709,286.336 84.002 C 293.522 81.315,294.560 80.869,294.071 80.680 C 293.761 80.560,289.926 79.306,285.550 77.893 C 281.174 76.481,277.592 75.274,277.590 75.212 C 277.588 75.150,282.459 72.967,288.414 70.362 C 294.369 67.757,299.210 65.595,299.172 65.556 C 299.134 65.518,293.727 65.138,287.157 64.711 C 280.587 64.284,274.482 63.872,273.589 63.796 L 271.966 63.657 278.585 55.826 C 282.226 51.519,285.192 47.979,285.177 47.959 C 285.162 47.938,277.377 50.194,267.877 52.971 C 258.378 55.748,250.589 58.001,250.570 57.977 C 250.551 57.953,251.887 54.783,253.539 50.933 C 255.192 47.083,256.525 43.914,256.502 43.891 C 256.479 43.868,247.620 46.376,236.815 49.464 C 226.011 52.552,217.147 55.055,217.119 55.026 C 217.090 54.997,217.621 50.667,218.299 45.403 C 218.978 40.139,219.508 35.813,219.478 35.790 C 219.448 35.766,211.903 40.299,202.710 45.862 M212.654 47.826 C 212.560 48.789,212.448 50.133,212.404 50.814 C 212.361 51.494,212.227 52.765,212.107 53.637 C 211.987 54.509,211.895 55.375,211.903 55.562 C 211.931 56.276,211.378 61.974,211.262 62.162 C 210.980 62.618,211.382 63.016,211.907 62.800 C 212.190 62.683,215.522 61.577,219.311 60.342 C 223.100 59.108,230.450 56.704,235.645 55.000 C 240.840 53.297,245.141 51.954,245.204 52.017 C 245.353 52.166,244.969 53.265,243.236 57.651 C 241.760 61.385,240.738 64.191,240.824 64.274 C 240.916 64.364,243.955 63.378,257.644 58.822 C 264.760 56.454,270.582 54.553,270.582 54.598 C 270.582 54.643,269.743 55.734,268.718 57.022 C 267.693 58.310,265.889 60.602,264.709 62.114 C 263.529 63.627,261.883 65.711,261.052 66.747 L 259.540 68.629 260.939 68.754 C 261.708 68.823,264.879 68.933,267.984 68.998 C 276.035 69.167,280.673 69.324,282.075 69.475 L 283.293 69.606 280.607 70.913 C 276.422 72.952,272.365 74.902,268.550 76.710 C 264.783 78.495,264.513 78.703,265.657 78.937 C 266.067 79.021,267.685 79.488,269.252 79.974 C 270.819 80.460,272.242 80.858,272.414 80.858 C 272.586 80.858,273.947 81.226,275.438 81.676 C 276.928 82.126,278.531 82.610,279.000 82.751 L 279.853 83.008 275.499 84.868 C 273.105 85.891,270.333 87.036,269.339 87.412 C 268.346 87.788,267.329 88.193,267.081 88.312 C 266.832 88.431,266.338 88.634,265.983 88.762 C 265.523 88.929,265.399 89.077,265.550 89.275 C 265.666 89.429,266.257 90.215,266.862 91.022 C 267.468 91.829,268.022 92.541,268.095 92.603 C 268.167 92.665,268.927 93.682,269.782 94.862 C 270.638 96.042,271.399 97.058,271.474 97.120 C 271.548 97.182,273.741 100.066,276.347 103.527 C 278.952 106.989,281.414 110.242,281.817 110.755 C 282.220 111.268,282.820 112.095,283.151 112.592 C 283.481 113.089,283.937 113.698,284.162 113.947 C 284.648 114.481,287.166 117.826,287.973 119.008 C 288.283 119.463,288.709 120.035,288.918 120.279 C 289.496 120.952,292.264 124.681,292.264 124.786 C 292.264 124.876,282.869 124.747,277.428 124.583 L 274.676 124.500 275.520 125.547 C 275.983 126.124,276.663 126.940,277.030 127.361 C 277.666 128.092,278.062 128.554,280.632 131.570 C 281.254 132.298,282.168 133.366,282.665 133.941 C 283.162 134.517,284.077 135.584,284.698 136.313 C 285.319 137.041,286.269 138.151,286.809 138.779 C 287.349 139.407,288.264 140.474,288.842 141.150 C 289.420 141.825,290.249 142.791,290.685 143.295 C 291.120 143.800,291.656 144.426,291.875 144.687 L 292.274 145.162 288.825 145.528 C 285.207 145.912,281.486 146.247,277.132 146.581 C 274.952 146.749,270.358 147.269,270.195 147.366 C 270.168 147.382,270.906 149.722,271.835 152.566 C 273.412 157.396,274.076 159.571,273.974 159.571 C 273.951 159.571,274.154 160.130,274.427 160.813 C 274.699 161.496,275.258 163.224,275.670 164.653 C 276.081 166.081,276.577 167.555,276.773 167.928 L 277.128 168.605 275.492 168.753 C 274.593 168.834,271.011 169.072,267.532 169.282 C 264.054 169.492,260.310 169.730,259.212 169.812 L 257.216 169.960 255.749 172.784 C 254.942 174.337,253.260 177.589,252.012 180.011 C 250.763 182.434,249.351 185.170,248.873 186.093 C 248.396 187.016,247.898 187.879,247.765 188.011 C 247.595 188.182,246.687 187.389,244.654 185.294 C 243.076 183.668,239.702 180.188,237.156 177.562 C 233.378 173.665,232.444 172.814,232.074 172.931 C 231.825 173.010,231.011 173.358,230.265 173.703 C 229.520 174.049,228.097 174.683,227.103 175.113 C 226.110 175.542,224.712 176.159,223.998 176.484 C 220.806 177.936,220.193 178.204,220.061 178.204 C 219.984 178.204,219.402 178.452,218.769 178.755 C 216.816 179.688,209.066 183.101,208.488 183.282 C 208.187 183.377,207.222 183.786,206.342 184.192 C 198.807 187.671,199.747 187.692,198.871 184.030 C 198.552 182.701,198.146 181.265,197.969 180.841 C 197.641 180.056,196.792 176.923,196.659 176.008 C 196.619 175.732,196.516 175.435,196.430 175.349 C 196.344 175.263,196.273 175.007,196.273 174.779 C 196.273 174.107,196.317 174.083,189.159 178.767 C 187.420 179.906,185.082 181.426,183.964 182.146 C 180.802 184.184,179.457 185.081,179.334 185.234 C 179.272 185.312,178.865 185.568,178.430 185.802 C 177.635 186.232,174.776 188.090,164.497 194.860 C 161.434 196.877,158.888 198.489,158.840 198.441 C 158.792 198.393,158.298 196.590,157.742 194.434 C 154.934 183.539,153.686 178.694,152.905 175.647 C 152.433 173.805,152.011 172.263,151.968 172.220 C 151.880 172.133,148.832 172.827,141.050 174.707 C 138.193 175.397,134.974 176.159,133.898 176.402 C 132.821 176.644,131.499 176.990,130.961 177.171 C 130.423 177.352,128.662 177.813,127.047 178.196 C 125.432 178.579,123.932 178.948,123.713 179.016 C 123.338 179.133,124.676 176.940,127.104 173.461 C 128.281 171.775,131.736 166.652,132.016 166.178 C 132.140 165.968,133.080 164.579,134.105 163.092 C 135.130 161.605,135.968 160.352,135.968 160.307 C 135.968 160.219,133.904 160.198,117.611 160.122 C 105.182 160.064,106.195 160.384,109.542 157.573 C 110.598 156.686,112.332 155.197,113.396 154.265 C 114.459 153.332,115.927 152.061,116.658 151.440 C 118.239 150.097,119.917 148.653,121.213 147.520 C 121.732 147.067,123.379 145.636,124.875 144.340 C 127.253 142.279,127.546 141.951,127.208 141.721 C 126.735 141.400,123.346 139.583,117.109 136.307 C 115.743 135.590,114.320 134.826,113.947 134.610 C 113.574 134.394,112.253 133.685,111.011 133.034 C 104.180 129.455,104.423 129.609,105.195 129.326 C 105.412 129.247,105.966 128.955,106.425 128.679 C 109.653 126.736,111.136 125.832,113.721 124.234 C 115.336 123.236,117.053 122.206,117.536 121.945 C 119.294 120.998,119.308 120.949,118.380 119.014 C 117.930 118.075,117.163 116.448,116.677 115.400 C 116.190 114.353,114.987 111.818,114.003 109.768 C 113.019 107.719,112.028 105.584,111.801 105.025 C 111.575 104.466,110.821 102.862,110.127 101.460 C 109.433 100.058,108.865 98.827,108.865 98.724 C 108.865 98.554,111.977 99.155,115.189 99.945 C 115.872 100.113,117.295 100.423,118.351 100.635 C 119.407 100.847,120.779 101.157,121.400 101.325 C 122.021 101.492,122.896 101.686,123.344 101.755 L 124.157 101.881 125.315 99.896 C 125.952 98.804,127.537 96.234,128.837 94.184 C 130.138 92.134,132.418 88.475,133.906 86.053 C 140.621 75.117,141.696 73.405,141.847 73.405 C 141.935 73.405,143.922 75.335,146.262 77.695 C 148.602 80.055,150.591 81.910,150.683 81.817 C 150.775 81.725,150.909 81.293,150.981 80.858 C 151.053 80.423,151.212 79.814,151.335 79.503 C 151.458 79.193,151.920 77.516,152.361 75.776 C 153.799 70.110,154.427 67.683,155.050 65.387 C 155.387 64.145,155.701 62.935,155.747 62.700 C 155.793 62.464,155.932 61.956,156.056 61.571 C 156.180 61.185,156.341 60.514,156.414 60.079 C 156.638 58.748,156.867 58.774,158.494 60.321 C 160.014 61.765,164.760 66.030,166.193 67.239 C 166.606 67.587,167.724 68.583,168.678 69.454 C 169.632 70.325,170.685 71.276,171.019 71.569 L 171.627 72.102 171.966 70.890 C 172.153 70.224,172.626 68.560,173.017 67.194 C 173.409 65.827,173.759 64.506,173.796 64.257 C 173.833 64.009,174.033 63.196,174.240 62.451 C 174.955 59.878,175.536 57.700,176.107 55.449 C 176.422 54.207,176.754 53.109,176.844 53.009 C 176.978 52.861,181.592 60.234,181.592 60.595 C 181.592 60.654,181.960 61.299,182.409 62.028 C 182.857 62.757,183.391 63.633,183.594 63.974 C 184.035 64.712,184.199 64.723,185.119 64.075 C 185.506 63.803,186.421 63.190,187.152 62.713 C 187.883 62.236,189.396 61.246,190.514 60.512 C 195.409 57.302,207.349 49.494,210.478 47.457 C 211.645 46.697,212.650 46.076,212.712 46.076 C 212.773 46.076,212.747 46.863,212.654 47.826 " stroke="none" fill="#fc842c" fill-rule="evenodd"></path><path id="path1" d="M210.478 47.457 C 207.349 49.494,195.409 57.302,190.514 60.512 C 189.396 61.246,187.883 62.236,187.152 62.713 C 186.421 63.190,185.506 63.803,185.119 64.075 C 184.199 64.723,184.035 64.712,183.594 63.974 C 183.391 63.633,182.857 62.757,182.409 62.028 C 181.960 61.299,181.592 60.654,181.592 60.595 C 181.592 60.234,176.978 52.861,176.844 53.009 C 176.754 53.109,176.422 54.207,176.107 55.449 C 175.536 57.700,174.955 59.878,174.240 62.451 C 174.033 63.196,173.833 64.009,173.796 64.257 C 173.759 64.506,173.409 65.827,173.017 67.194 C 172.626 68.560,172.153 70.224,171.966 70.890 L 171.627 72.102 171.019 71.569 C 170.685 71.276,169.632 70.325,168.678 69.454 C 167.724 68.583,166.606 67.587,166.193 67.239 C 164.760 66.030,160.014 61.765,158.494 60.321 C 156.867 58.774,156.638 58.748,156.414 60.079 C 156.341 60.514,156.180 61.185,156.056 61.571 C 155.932 61.956,155.793 62.464,155.747 62.700 C 155.701 62.935,155.387 64.145,155.050 65.387 C 154.427 67.683,153.799 70.110,152.361 75.776 C 151.920 77.516,151.458 79.193,151.335 79.503 C 151.212 79.814,151.053 80.423,150.981 80.858 C 150.909 81.293,150.775 81.725,150.683 81.817 C 150.591 81.910,148.602 80.055,146.262 77.695 C 143.922 75.335,141.935 73.405,141.847 73.405 C 141.696 73.405,140.621 75.117,133.906 86.053 C 132.418 88.475,130.138 92.134,128.837 94.184 C 127.537 96.234,125.952 98.804,125.315 99.896 L 124.157 101.881 123.344 101.755 C 122.896 101.686,122.021 101.492,121.400 101.325 C 120.779 101.157,119.407 100.847,118.351 100.635 C 117.295 100.423,115.872 100.113,115.189 99.945 C 111.977 99.155,108.865 98.554,108.865 98.724 C 108.865 98.827,109.433 100.058,110.127 101.460 C 110.821 102.862,111.575 104.466,111.801 105.025 C 112.028 105.584,113.019 107.719,114.003 109.768 C 114.987 111.818,116.190 114.353,116.677 115.400 C 117.163 116.448,117.930 118.075,118.380 119.014 C 119.308 120.949,119.294 120.998,117.536 121.945 C 117.053 122.206,115.336 123.236,113.721 124.234 C 111.136 125.832,109.653 126.736,106.425 128.679 C 105.966 128.955,105.412 129.247,105.195 129.326 C 104.423 129.609,104.180 129.455,111.011 133.034 C 112.253 133.685,113.574 134.394,113.947 134.610 C 114.320 134.826,115.743 135.590,117.109 136.307 C 123.346 139.583,126.735 141.400,127.208 141.721 C 127.546 141.951,127.253 142.279,124.875 144.340 C 123.379 145.636,121.732 147.067,121.213 147.520 C 119.917 148.653,118.239 150.097,116.658 151.440 C 115.927 152.061,114.459 153.332,113.396 154.265 C 112.332 155.197,110.598 156.686,109.542 157.573 C 106.195 160.384,105.182 160.064,117.611 160.122 C 133.904 160.198,135.968 160.219,135.968 160.307 C 135.968 160.352,135.130 161.605,134.105 163.092 C 133.080 164.579,132.140 165.968,132.016 166.178 C 131.736 166.652,128.281 171.775,127.104 173.461 C 124.676 176.940,123.338 179.133,123.713 179.016 C 123.932 178.948,125.432 178.579,127.047 178.196 C 128.662 177.813,130.423 177.352,130.961 177.171 C 131.499 176.990,132.821 176.644,133.898 176.402 C 134.974 176.159,138.193 175.397,141.050 174.707 C 148.832 172.827,151.880 172.133,151.968 172.220 C 152.011 172.263,152.433 173.805,152.905 175.647 C 153.686 178.694,154.934 183.539,157.742 194.434 C 158.298 196.590,158.792 198.393,158.840 198.441 C 158.888 198.489,161.434 196.877,164.497 194.860 C 174.776 188.090,177.635 186.232,178.430 185.802 C 178.865 185.568,179.272 185.312,179.334 185.234 C 179.457 185.081,180.802 184.184,183.964 182.146 C 185.082 181.426,187.420 179.906,189.159 178.767 C 196.317 174.083,196.273 174.107,196.273 174.779 C 196.273 175.007,196.344 175.263,196.430 175.349 C 196.516 175.435,196.619 175.732,196.659 176.008 C 196.792 176.923,197.641 180.056,197.969 180.841 C 198.146 181.265,198.552 182.701,198.871 184.030 C 199.747 187.692,198.807 187.671,206.342 184.192 C 207.222 183.786,208.187 183.377,208.488 183.282 C 209.066 183.101,216.816 179.688,218.769 178.755 C 219.402 178.452,219.984 178.204,220.061 178.204 C 220.193 178.204,220.806 177.936,223.998 176.484 C 224.712 176.159,226.110 175.542,227.103 175.113 C 228.097 174.683,229.520 174.049,230.265 173.703 C 231.011 173.358,231.825 173.010,232.074 172.931 C 232.444 172.814,233.378 173.665,237.156 177.562 C 239.702 180.188,243.076 183.668,244.654 185.294 C 246.687 187.389,247.595 188.182,247.765 188.011 C 247.898 187.879,248.396 187.016,248.873 186.093 C 249.351 185.170,250.763 182.434,252.012 180.011 C 253.260 177.589,254.942 174.337,255.749 172.784 L 257.216 169.960 259.212 169.812 C 260.310 169.730,264.054 169.492,267.532 169.282 C 271.011 169.072,274.593 168.834,275.492 168.753 L 277.128 168.605 276.773 167.928 C 276.577 167.555,276.081 166.081,275.670 164.653 C 275.258 163.224,274.699 161.496,274.427 160.813 C 274.154 160.130,273.951 159.571,273.974 159.571 C 274.076 159.571,273.412 157.396,271.835 152.566 C 270.906 149.722,270.168 147.382,270.195 147.366 C 270.358 147.269,274.952 146.749,277.132 146.581 C 281.486 146.247,285.207 145.912,288.825 145.528 L 292.274 145.162 291.875 144.687 C 291.656 144.426,291.120 143.800,290.685 143.295 C 290.249 142.791,289.420 141.825,288.842 141.150 C 288.264 140.474,287.349 139.407,286.809 138.779 C 286.269 138.151,285.319 137.041,284.698 136.313 C 284.077 135.584,283.162 134.517,282.665 133.941 C 282.168 133.366,281.254 132.298,280.632 131.570 C 278.062 128.554,277.666 128.092,277.030 127.361 C 276.663 126.940,275.983 126.124,275.520 125.547 L 274.676 124.500 277.428 124.583 C 282.869 124.747,292.264 124.876,292.264 124.786 C 292.264 124.681,289.496 120.952,288.918 120.279 C 288.709 120.035,288.283 119.463,287.973 119.008 C 287.166 117.826,284.648 114.481,284.162 113.947 C 283.937 113.698,283.481 113.089,283.151 112.592 C 282.820 112.095,282.220 111.268,281.817 110.755 C 281.414 110.242,278.952 106.989,276.347 103.527 C 273.741 100.066,271.548 97.182,271.474 97.120 C 271.399 97.058,270.638 96.042,269.782 94.862 C 268.927 93.682,268.167 92.665,268.095 92.603 C 268.022 92.541,267.468 91.829,266.862 91.022 C 266.257 90.215,265.666 89.429,265.550 89.275 C 265.399 89.077,265.523 88.929,265.983 88.762 C 266.338 88.634,266.832 88.431,267.081 88.312 C 267.329 88.193,268.346 87.788,269.339 87.412 C 270.333 87.036,273.105 85.891,275.499 84.868 L 279.853 83.008 279.000 82.751 C 278.531 82.610,276.928 82.126,275.438 81.676 C 273.947 81.226,272.586 80.858,272.414 80.858 C 272.242 80.858,270.819 80.460,269.252 79.974 C 267.685 79.488,266.067 79.021,265.657 78.937 C 264.513 78.703,264.783 78.495,268.550 76.710 C 272.365 74.902,276.422 72.952,280.607 70.913 L 283.293 69.606 282.075 69.475 C 280.673 69.324,276.035 69.167,267.984 68.998 C 264.879 68.933,261.708 68.823,260.939 68.754 L 259.540 68.629 261.052 66.747 C 261.883 65.711,263.529 63.627,264.709 62.114 C 265.889 60.602,267.693 58.310,268.718 57.022 C 269.743 55.734,270.582 54.643,270.582 54.598 C 270.582 54.553,264.760 56.454,257.644 58.822 C 243.955 63.378,240.916 64.364,240.824 64.274 C 240.738 64.191,241.760 61.385,243.236 57.651 C 244.969 53.265,245.353 52.166,245.204 52.017 C 245.141 51.954,240.840 53.297,235.645 55.000 C 230.450 56.704,223.100 59.108,219.311 60.342 C 215.522 61.577,212.190 62.683,211.907 62.800 C 211.382 63.016,210.980 62.618,211.262 62.162 C 211.378 61.974,211.931 56.276,211.903 55.562 C 211.895 55.375,211.987 54.509,212.107 53.637 C 212.227 52.765,212.361 51.494,212.404 50.814 C 212.448 50.133,212.560 48.789,212.654 47.826 C 212.747 46.863,212.773 46.076,212.712 46.076 C 212.650 46.076,211.645 46.697,210.478 47.457 " stroke="none" fill="#ecac24" fill-rule="evenodd"></path></g></svg>